<svg width="135" height="135" viewBox="0 0 135 135" fill="none" xmlns="http://www.w3.org/2000/svg">
<path d="M89.7319 75.9092C96.53 66.6366 102.374 57.8376 102.374 46.8059C102.374 26.8243 86.1182 10.5686 66.1366 10.5686L65.9666 10.5686L65.962 10.5686C46.0604 10.66 29.8993 26.88 29.8993 46.8059C29.8993 57.8368 35.7415 66.6365 42.5413 75.9085C42.5413 75.9085 42.5413 75.9085 42.5414 75.9086L65.354 107.025L66.158 108.121L66.9652 107.027C69.7541 103.247 79.8409 89.4433 85.654 81.488C87.7485 78.6218 89.2882 76.5147 89.7319 75.9092ZM89.7319 75.9092L88.9254 75.318M89.7319 75.9092C89.7319 75.9092 89.7319 75.9091 89.732 75.909L88.9254 75.318M88.9254 75.318C95.7355 66.0289 101.374 57.473 101.374 46.8059C101.374 27.3766 85.5659 11.5686 66.1366 11.5686H65.9666L88.9254 75.318ZM80.4697 97.7671L79.3078 99.3571H81.2771H87.7471L98.0274 129.715H34.2458L44.5261 99.3571H51.0439H53.0171L51.8504 97.7658L38.1729 79.1113C30.8556 69.1307 24.4835 59.3431 24.4835 46.8059C24.4835 23.8399 43.1659 5.154 66.1282 5.15283C66.1289 5.15283 66.1297 5.15283 66.1304 5.15283L66.3037 5.1536L66.3041 5.1536C89.1936 5.24487 107.79 23.896 107.79 46.8059C107.79 59.3439 101.418 69.1315 94.1002 79.1112C92.9019 80.7443 87.5547 88.0662 83.8181 93.1827C82.3184 95.2362 81.0782 96.9344 80.4697 97.7671ZM42.2445 122.979L41.7972 124.3H43.1917H89.0799H90.4742L90.0271 122.979L84.0929 105.452L83.8629 104.773H83.1457H75.8497H75.3428L75.0432 105.182C73.4426 107.365 71.0003 110.63 68.9559 113.352C67.9341 114.712 67.0126 115.936 66.3465 116.819C66.2522 116.944 66.1631 117.062 66.0795 117.173L57.2879 105.182L56.9882 104.773H56.4814H49.1274H48.4103L48.1803 105.452L42.2445 122.979Z" fill="white" stroke="#28C3D4" stroke-width="2"/>
<path d="M66.1366 21.8384C79.9029 21.8384 91.1041 33.0396 91.1041 46.8059C91.1041 60.5723 79.9029 71.7735 66.1366 71.7735C52.3702 71.7735 41.169 60.5723 41.169 46.8059C41.169 33.0396 52.3702 21.8384 66.1366 21.8384ZM46.5848 46.8059C46.5848 57.5881 55.3544 66.3577 66.1366 66.3577C76.9179 66.3577 85.6883 57.5881 85.6883 46.8059C85.6883 36.0245 76.918 27.2541 66.1366 27.2541C55.3544 27.2541 46.5848 36.0245 46.5848 46.8059Z" fill="white" stroke="#28C3D4" stroke-width="2"/>
</svg>
