<svg xmlns="http://www.w3.org/2000/svg" xmlns:xlink="http://www.w3.org/1999/xlink" version="1.1" x="0px" y="0px" viewBox="0 0 100 125" enable-background="new 0 0 100 100" xml:space="preserve"><g><path d="M94.7,60.8L94.7,60.8c-1.4-1.6-5.3-12-5.1-14.9c0.1-1.5,1.4-6.3,2.6-10.6c0.6-2.3,1.3-4.5,1.6-6c0.1-0.4,0-0.8-0.2-1.1   c-0.4-0.6-1.3-0.6-1.9-0.1c-4.9,4.6-7.2,9.2-8.7,12.2c-1,2-1.7,3.4-2.5,3.5c-0.1,0-0.3,0-0.4,0c-0.5,0-0.8-0.1-1.4-0.3   c-0.1,0-0.2-0.1-0.3-0.1c-0.5-0.8-0.6-1.2-0.6-1.2v0c0-0.2-0.2-0.3-0.3-0.4s-0.4-0.1-0.5-0.1l-1.8,0.6c-0.1,0-0.1-0.1-0.2-0.1   c-0.4-0.7-0.2-1-0.2-1c0,0,0,0,0,0c0.1-0.2,0.1-0.5-0.1-0.7c-0.2-0.2-0.5-0.3-0.7-0.2l-1.7,0.6c0,0-0.1,0-0.1-0.1l-0.2-0.1   c-0.9-1-0.7-1.5-0.7-1.5c0.2-0.2,0.2-0.5,0.1-0.8C71,38,70.7,37.9,70.4,38l-2.3,0.8c0,0-0.1,0-0.1,0l-0.1-0.1   c-0.8-0.8-0.5-1.6-0.5-1.7c0.1-0.2,0-0.5-0.1-0.7c-0.2-0.2-0.4-0.3-0.7-0.2l-2.3,0.8c-1.5-4.2-0.3-6.7,0.3-8.1   c0.3-0.7,0.5-1.1,0.2-1.6c-0.1-0.2-0.4-0.4-0.9-0.4c-2.2,0-5,3.2-6.1,5.5c-0.1,0.1-0.1,0.2-0.2,0.4c-0.3,0.8-0.7,1.6-1.7,2   c-0.7-0.2-1.4-0.3-2.1-0.5c-0.2-0.2-0.5-0.4-0.8-0.6c-1.7-1.4-3.9-3.1-5.4-3.7c0,0,0,0,0,0c0,0,0,0,0,0c-1.2-0.4-3.7-1.2-4.2-1.3   c0,0,0,0,0,0c0,0,0,0,0,0c-1.1-0.3-2.1-0.6-2.8-0.9c-0.1-0.1-0.4-0.3-0.7-0.5c-0.2-0.1-0.3-0.2-0.4-0.3c-0.8-0.7-1.5-1.4-1.8-1.8   c-0.2-0.3-0.5-0.4-0.9-0.4c-0.3,0-0.7,0.1-0.9,0.3c-3,2.8-5.3,6.5-6.5,9c-1.9,0.3-3.5,0.7-4.9,1c-7.7,2-15.8,8.1-18.9,10.6   c-0.5,0.4-0.8,1-0.7,1.7c0,0.6,0.4,1.2,0.9,1.6l0.8,0.5c0.6,0.3,1,0.7,1.4,0.9l-1.5-0.1c0,0-0.1,0-0.1,0c-0.5,0-1,0.3-1.2,0.8   c-0.2,0.5,0,1.1,0.4,1.4c8.8,6.8,18.1,10.9,27.6,12.3c0.1,0.2,0.2,0.3,0.3,0.6c0.4,0.7,1.2,1.8,1.3,2.3c0.8,3.1,2.2,5.5,6.7,7.7   c0.1,0.1,0.3,0.1,0.5,0.1c0.2,0,0.5-0.1,0.6-0.2c0.3-0.2,0.5-0.6,0.4-1c-0.2-1.1-0.5-3.2,0.2-5.1c0.4-1.1,0.4-2.6,0.1-3.8   c5.9-0.3,11.7-1.5,17.5-3.8c1.5,1.1,4.3,3.1,6.4,3.8c1.2,0.4,2,0.6,2.5,0.6c0.4,0,0.6-0.1,0.8-0.4c0.4-0.6-0.1-1.2-0.7-2   c-0.3-0.4-0.7-0.8-0.9-1.3c-0.4-0.6-0.7-2.6-0.8-4.1c0.3-0.2,0.6-0.3,1-0.5c0.6,0.3,1.1,0.6,1.7,0.8c0.3,0.1,0.7-0.1,0.8-0.4   c0.1-0.2,0-0.5-0.1-0.7c-0.1-0.1-0.2-0.4-0.3-0.9c0.5-0.3,1-0.6,1.5-0.9c0.5,0.3,1,0.5,1.5,0.6c0.2,0.1,0.5,0,0.7-0.2   c0.2-0.2,0.2-0.4,0.1-0.7c0,0-0.2-0.5-0.3-1.1c0.4-0.3,0.8-0.5,1.1-0.8c0.5,0.3,1,0.5,1.5,0.6c0.3,0.1,0.5,0,0.7-0.2   c0.2-0.2,0.2-0.5,0.1-0.7c0,0-0.2-0.4-0.3-1.1c0.2-0.1,0.3-0.3,0.5-0.4c0.3-0.2,0.5-0.4,0.7-0.5c0.6-0.5,1.2-0.7,1.8-0.7   c1.1,0,1.7,1,1.7,1.1c0,0,0,0,0,0c4,6.4,10.5,10.7,11.7,10.7c0.3,0,0.6-0.2,0.7-0.4C95.2,61.3,94.8,60.9,94.7,60.8z M59,33.3   c0-0.1,0.1-0.2,0.1-0.3c0.9-2,2.9-4.1,4.3-4.6c-0.7,1.4-1.9,4.1-0.6,8.4c-1.6-0.6-3.3-1.1-5-1.5C58.4,34.6,58.7,33.8,59,33.3z    M47.1,32.3c0.2-0.3,0.4-0.6,0.6-0.8c1,0.5,2.3,1.5,3.5,2.4c-1.6-0.2-3.2-0.4-4.8-0.6C46.6,32.9,46.8,32.6,47.1,32.3z M46,31.5   c-0.5,0.6-0.9,1.2-1.2,1.7c-1.2-0.1-2.3-0.1-3.5-0.1c0.4-0.6,1-1.3,1.5-2c0.3-0.4,0.5-0.7,0.8-1c0.9,0.3,2,0.6,2.9,0.9   C46.3,31.1,46.2,31.3,46,31.5z M40.1,28.9c0.5,0.3,1.3,0.5,2.1,0.8c-0.1,0.2-0.3,0.4-0.5,0.6c-0.7,1-1.5,2-2,2.8   c-1.3,0-2.6,0.1-3.9,0.2c1-1.5,2.5-3.5,3.5-4.9C39.9,28.7,40,28.8,40.1,28.9z M36.8,26c0.3,0.4,0.9,1,1.5,1.5   c-1.3,1.7-3.2,4.3-4.1,5.8c-1.1,0.1-2.1,0.2-3.1,0.4C32,32,33.9,28.7,36.8,26z M42.1,68.6c-0.7,1.9-0.6,3.9-0.3,5.2   c-3.6-1.9-4.7-3.8-5.4-6.6c-0.1-0.5-0.6-1.3-1.2-2.3c2,0.2,3.9,0.4,5.9,0.4c0.3,0,0.7,0,1,0C42.3,66.1,42.4,67.6,42.1,68.6z    M67.9,63c0.3,0.5,0.7,1,1,1.4c0,0,0,0,0,0c-0.3-0.1-0.7-0.2-1.2-0.4c-1.6-0.5-3.8-2-5.4-3.1c1.5-0.6,3-1.3,4.5-2.1   C67,60.2,67.3,62.1,67.9,63z M83.6,50.8c-0.1-0.2-1-1.7-2.8-1.7c-0.8,0-1.7,0.3-2.5,0.9c-0.2,0.1-0.4,0.3-0.7,0.5   c-0.2,0.2-0.5,0.4-0.8,0.6c-0.2,0.1-0.3,0.4-0.3,0.6c0,0.1,0,0.3,0.1,0.4c-0.1-0.1-0.2-0.1-0.3-0.2c-0.2-0.1-0.5-0.1-0.7,0   c-0.5,0.4-1.1,0.8-1.8,1.2c-0.2,0.1-0.3,0.4-0.3,0.7c0,0.1,0,0.2,0.1,0.4c-0.1-0.1-0.2-0.1-0.3-0.2c-0.2-0.1-0.5-0.1-0.7,0   c-0.7,0.5-1.5,0.9-2.2,1.4c-0.2,0.1-0.4,0.4-0.3,0.7c0,0.2,0,0.3,0.1,0.4c-0.1-0.1-0.3-0.2-0.4-0.3c-0.2-0.1-0.5-0.2-0.7,0   C59.8,61.4,50.4,64,41,64c-11.8,0-23.3-4.2-34.2-12.4l3.3,0.2c0.3,0,0.5-0.1,0.6-0.4c0.1-0.3,0.1-0.5-0.1-0.7c0,0-1-1-3.3-2.4   l-0.8-0.5c-0.2-0.1-0.3-0.3-0.3-0.5c0-0.2,0.1-0.4,0.2-0.5c3-2.5,10.9-8.5,18.4-10.4c3.5-0.9,9.1-2,16-2c7.8,0,15.5,1.4,22.7,4   c0,0,0,0,0,0c0.1,0,0.1,0,0.2,0c0,0,0,0,0,0c0,0,0,0,0,0c0,0,0,0,0,0c0.1,0,0.1,0,0.2,0l2-0.7c0.1,0.6,0.3,1.3,1,2   c0.1,0,0.1,0.1,0.2,0.1l0.2,0.1c0.1,0,0.2,0.1,0.3,0.1c0.2,0.1,0.3,0.1,0.5,0l1.5-0.5c0.1,0.5,0.4,1.2,1.1,2   c0.1,0.1,0.1,0.1,0.2,0.1l0.3,0.1c0.1,0.1,0.2,0.1,0.4,0.2c0.2,0.1,0.3,0.1,0.5,0l1-0.3c0.1,0.4,0.2,0.8,0.6,1.3   c0.1,0.1,0.2,0.2,0.3,0.2c0.2,0.1,0.4,0.2,0.6,0.3c0.2,0.1,0.3,0.1,0.5,0l1.5-0.5c0.1,0.3,0.3,0.6,0.6,1.1c0.1,0.1,0.2,0.2,0.4,0.3   c0.2,0.1,0.4,0.1,0.5,0.2c0.6,0.2,1.1,0.4,1.8,0.4c0.2,0,0.4,0,0.6,0c1.5-0.2,2.3-1.8,3.5-4.3c1.4-2.9,3.6-7.2,8.3-11.7   c-0.4,1.5-0.9,3.5-1.5,5.7c-1.3,4.6-2.6,9.3-2.7,10.9c-0.2,2.7,2.7,10.8,4.5,14.4C90.5,58.7,86.5,55.4,83.6,50.8z"/><path d="M27.2,37.9c-0.3-0.2-0.7,0-0.9,0.3c-0.2,0.3,0,0.7,0.3,0.9c0.2,0.1,4.9,2.4,5.1,9.5c0.3,8.8-4.9,11.7-5.1,11.8   c-0.3,0.2-0.5,0.6-0.3,0.9c0.1,0.2,0.3,0.4,0.6,0.4c0.1,0,0.2,0,0.3-0.1c0.3-0.1,6.1-3.3,5.8-13C32.9,40.6,27.5,38,27.2,37.9z"/><path d="M17.6,42.4c-2,0-3.6,1.6-3.6,3.6s1.6,3.6,3.6,3.6c2,0,3.6-1.6,3.6-3.6S19.5,42.4,17.6,42.4z M17.6,48.2   c-1.2,0-2.2-1-2.2-2.2c0-1.2,1-2.2,2.2-2.2c1.2,0,2.2,1,2.2,2.2C19.8,47.2,18.8,48.2,17.6,48.2z"/><path d="M51.3,43.6c-10.2-1.1-16.6,2.9-17.4,3.4c0,0-0.1,0-0.1,0.1c-0.3,0.3-0.4,0.7-0.3,1.1c0,0.1,0.1,0.1,0.1,0.2   c0,0.1,0.1,0.2,0.2,0.2c1.5,1.5,7.8,3.2,10.4,3.2c0.1,0,0.3,0,0.4,0c1.1-0.1,3-1.7,3.6-2.2c0,0,0,0,0,0c0,0,0,0,0,0   c0.5-0.5,1.6-2,2.2-2.8c0,0,0,0,0,0c0,0,0,0,0,0c0.8-1.2,1.3-2.1,1.4-2.1c0.1-0.2,0.1-0.4,0-0.6S51.5,43.6,51.3,43.6z M44.4,50.4   c-1.7,0.2-5.3-0.8-7.6-1.7c3.7,0.1,7.1,0.4,9.4,0.7C45.4,50,44.7,50.4,44.4,50.4z M47.5,48.3c-2.1-0.4-5.3-0.7-8.6-0.8   c4.2-0.5,7.8-0.6,9.7-0.5C48.1,47.5,47.7,48,47.5,48.3z M49.6,45.6c-1.5-0.1-5.6-0.1-10.5,0.5c2.2-0.7,5.2-1.4,8.9-1.4   c0.7,0,1.4,0,2.2,0.1C50,45,49.8,45.3,49.6,45.6z"/><circle cx="17.5" cy="45.9" r="1.4"/></g><text x="0" y="115" fill="#000000" font-size="5px" font-weight="bold" font-family="'Helvetica Neue', Helvetica, Arial-Unicode, Arial, Sans-serif">Created by parkjisun</text><text x="0" y="120" fill="#000000" font-size="5px" font-weight="bold" font-family="'Helvetica Neue', Helvetica, Arial-Unicode, Arial, Sans-serif">from the Noun Project</text></svg>