<svg xmlns="http://www.w3.org/2000/svg" xmlns:xlink="http://www.w3.org/1999/xlink" version="1.1" x="0px" y="0px" viewBox="0 0 100 125" style="enable-background:new 0 0 100 100;" xml:space="preserve"><g><path d="M28.7688332,43.9682617c-1.9951172,0-3.6181641,1.6230469-3.6181641,3.6181641c0,0.5522461,0.4472656,1,1,1   s1-0.4477539,1-1c0-0.8920898,0.7255859-1.6181641,1.6181641-1.6181641s1.6181641,0.7260742,1.6181641,1.6181641   c0,0.5522461,0.4472656,1,1,1s1-0.4477539,1-1C32.3869972,45.5913086,30.7639503,43.9682617,28.7688332,43.9682617z"/><path d="M86.0002823,39.6875v-2.1367188c0-1.4438477-1.1748047-2.6181641-2.6181641-2.6181641h-6.9736328   c-4.4926758,0-8.6108398,2.0985718-11.2480469,5.6630249c-0.0415039-0.0393066-0.0820313-0.0784912-0.1240234-0.1177368   l2.2392578-3.0887451c1.1513672-1.5874023,0.8759766-3.800293-0.6445313-5.0522461   c-2.9873085-2.4702148-6.0439491-4.5166016-9.0849648-6.0825195c-1.640625-0.8442383-3.6220703-0.3681641-4.7109375,1.1328125   l-2.4682617,3.4058838l0.5043945-3.862915c0.2529297-1.9306641-1.0283203-3.7426758-2.9169922-4.125   c-3.7919922-0.7670898-7.6816406-0.8027344-11.2851563-0.1416016c-1.46875,0.2524414-2.9648438,0.6245117-4.4472656,1.1054688   c-1.3671875,0.4423828-2.3691406,1.6459961-2.5527344,3.0668945l-0.8012695,6.1531372   c-5.9526367,3.2372437-10.8964844,8.0352783-14.0151358,11.5387573c-1.0810547,1.2080078-1.140625,3.0141602-0.140625,4.2958984   c0.375,0.4804688,0.6757813,0.8779297,0.8925781,1.171875c-0.2177734,0.2939453-0.5175781,0.6918945-0.8935547,1.1733398   c-0.9951172,1.2758789-0.9414063,3.0800781,0.1259766,4.2871094c0.1884766,0.2143555,0.3857422,0.4287109,0.6191406,0.6821289   c0.1855469,0.2099609,0.3779297,0.4199219,0.5898428,0.6425781c0.0073242,0.0094604,0.0180664,0.0172119,0.0258789,0.0264893   c0.0053711,0.0053711,0.0092773,0.0101318,0.0141602,0.0155029c0.0400391,0.0498047,0.0849609,0.0961914,0.1337891,0.1381836   c0.0214844,0.0249023,0.0458984,0.0517578,0.0625,0.0693359c0.1943359,0.203125,0.3808594,0.3984375,0.5595703,0.5761719   c0.2617188,0.2797852,0.5322266,0.5507813,0.8105469,0.8203125l0.5185547,0.5185547   c0.0146484,0.0151367,0.0595703,0.0541992,0.0761719,0.0683594l0.0097656,0.0089722   c0.03125,0.0304565,0.0581055,0.0578613,0.0898438,0.0886841l0.9091797,0.859375   c0.0839844,0.0698242,0.1601563,0.1391602,0.2998047,0.2744141c0.0957031,0.0805664,0.1914063,0.1689453,0.2871094,0.2646484   c0.0117188,0.012207,0.1318359,0.1132813,0.1445313,0.1245117c0.6621094,0.5976563,1.3583984,1.1933594,2.0761719,1.7744141   l0.1933594,0.15625c0.1210938,0.0986328,0.2431641,0.1982422,0.3662109,0.2929688   c0.0419922,0.0356445,0.0869141,0.0708008,0.1347656,0.1044922c0.3125,0.2495117,0.6269531,0.4907227,0.9472656,0.7255859   c0.3300781,0.246582,0.6689453,0.4941406,1.0087891,0.7329102c0.3339844,0.2348633,0.6767578,0.4697266,1.0507813,0.7241211   l0.4882813,0.3198242c0.1806641,0.1235352,0.3691406,0.237793,0.5683594,0.3574219   c0.3515625,0.2163086,0.7119141,0.4326172,1.0878906,0.6582031c0.2119141,0.121582,0.4267578,0.2398071,0.640625,0.3597412   l0.2314453,2.6324463c0.3349609,3.7958984,3.0947266,6.8774414,6.8671875,7.668457   c0.3369141,0.0708008,0.6728516,0.1357422,1.0019531,0.1938477c1.7158203,0.3134766,3.4882813,0.472168,5.2822266,0.472168   c0.6503906-0.0004883,1.2773438-0.2773438,1.71875-0.7592773c0.4453125-0.4868164,0.6669922-1.1435547,0.609375-1.8007813   V75.246582l-0.4174805-4.7041016c0.7871094-0.0640869,1.5810547-0.1688232,2.3813477-0.3183594l2.6933594,4.8369141   c0.4335938,0.7783203,1.2548828,1.2348633,2.1152344,1.2348633c0.2539063,0,0.5097656-0.0395508,0.7607422-0.121582   c0.6923828-0.2265625,1.3896484-0.4804688,2.0664063-0.7519531c4.2929688-1.6904297,8.5830078-4.2949219,12.7597694-7.7475586   c0.8964844-0.7387695,1.1357422-2.0126953,0.5703125-3.0297852l-2.6054688-4.6863403   c0.1987305-0.184082,0.3969727-0.3684692,0.5898438-0.5513916c0.4013672,0.5393066,0.8310547,1.0629272,1.3164063,1.5487671   c2.6416016,2.6513672,6.1640625,4.1113281,9.9169922,4.1113281h6.9736328c1.4433594,0,2.6181641-1.1743164,2.6181641-2.6181641   V60.3125c0-4.1772461-2.1386719-8.0512695-5.5751953-10.3154297C83.8616104,47.7402344,86.0002823,43.8681641,86.0002823,39.6875z    M54.45438,28.5615234c0.4960938-0.6850586,1.4326172-0.9121094,2.1757813-0.5288086   c2.9140625,1.5,5.8496094,3.4667969,8.7470741,5.862793c0.6884766,0.5668945,0.8115234,1.5859375,0.2792969,2.3198242   l-2.1005898,2.8974609c-0.0771484-0.0685425-0.1499023-0.1300659-0.2260742-0.1967773   c-0.0952148-0.0836792-0.190918-0.166748-0.284668-0.2477417c-0.3330078-0.2879639-0.6591797-0.5657349-0.9736328-0.8240356   c-0.4301758-0.355957-0.8613281-0.699707-1.2924805-1.0341797c-0.1381836-0.1069946-0.2763672-0.2074585-0.4145508-0.3123169   c-0.2929688-0.2218628-0.5854492-0.4429321-0.878418-0.6548462c-0.1699219-0.1231689-0.340332-0.2400513-0.5107422-0.3598022   c-0.2617188-0.184021-0.5234375-0.3674316-0.7856445-0.543457c-0.1821289-0.1222534-0.3637695-0.2393799-0.5458984-0.3577271   c-0.2514648-0.1634521-0.5029297-0.3251343-0.7543945-0.4811401c-0.1870117-0.1160889-0.3740234-0.2285767-0.5615234-0.3405762   c-0.2475586-0.1479492-0.4946289-0.2929688-0.7421875-0.4336548c-0.1879883-0.1069336-0.3759766-0.211792-0.5639648-0.3145142   c-0.2480469-0.135376-0.4960938-0.2662964-0.7436523-0.3944092c-0.1865234-0.0963135-0.3730469-0.1921997-0.559082-0.2843628   c-0.2543945-0.1257935-0.5083008-0.2453003-0.7626953-0.3632813c-0.1772461-0.0823364-0.3544922-0.1659546-0.5317383-0.2444458   c-0.065918-0.0291138-0.1318359-0.0621338-0.1977539-0.0907593L54.45438,28.5615234z M31.6516457,27.09375   c0.0859375-0.6586914,0.5507813-1.2167969,1.1865234-1.4223633c1.3925781-0.4511719,2.7958984-0.800293,4.1816406-1.0390625   c1.5888672-0.2915039,3.2363281-0.4394531,4.8974609-0.4394531c1.8662109,0,3.7646484,0.1923828,5.640625,0.5722656   c0.8632813,0.1748047,1.4472656,1.012207,1.3310547,1.9057617v0.0004883l-0.4707031,3.5996094   c-0.0668945-0.0187988-0.1337891-0.0324097-0.2011719-0.0505981c-0.1630859-0.0440063-0.3256836-0.0820923-0.4887695-0.1227417   c-0.3266602-0.0819092-0.6533203-0.159668-0.9794922-0.2278442c-0.1469727-0.0306396-0.2939453-0.0576782-0.4404297-0.0855713   c-0.3369141-0.0641479-0.6723633-0.1220703-1.0078125-0.1716309c-0.144043-0.0213013-0.2880859-0.0408325-0.4321289-0.0595093   c-0.3330078-0.0431519-0.6645508-0.0787964-0.9956055-0.107605c-0.1469727-0.0128784-0.2939453-0.0255737-0.440918-0.0355835   c-0.324707-0.0221558-0.6474609-0.0355225-0.9697266-0.0438843c-0.1494141-0.0039063-0.2988281-0.0095825-0.4477539-0.0105591   c-0.3193359-0.0020142-0.6362305,0.0061646-0.953125,0.0177002c-0.1469727,0.0053101-0.2944336,0.0070801-0.440918,0.0152588   c-0.3295898,0.0186157-0.6557617,0.0490112-0.9814453,0.0823364c-0.1274414,0.0130005-0.2563477,0.0206299-0.3828125,0.0358887   c-0.4487305,0.0540161-0.894043,0.1199341-1.3339844,0.2018433c-0.6411133,0.1099854-1.2866211,0.2550659-1.9345703,0.420166   c-0.2075195,0.0529175-0.4160156,0.1171265-0.6245117,0.1756592c-0.4477539,0.1259155-0.8959961,0.2613525-1.3461914,0.4130249   c-0.2373047,0.079895-0.4741211,0.1641846-0.7119141,0.2511597c-0.4418945,0.1618042-0.8847656,0.3378906-1.328125,0.5241699   c-0.2216797,0.0932617-0.4433594,0.1824951-0.6655273,0.2817993c-0.0947266,0.0424805-0.1894531,0.0769653-0.284668,0.1205444   L31.6516457,27.09375z M28.92313,64.7563477c-0.3544922-0.2124023-0.7089844-0.4257813-1.0800781-0.6538086   c-0.15625-0.09375-0.3125-0.1870117-0.4804688-0.3012695l-0.4990234-0.3266602   c-0.3359375-0.2304688-0.6728516-0.4604492-0.9990234-0.6899414c-0.3222656-0.2265625-0.6455078-0.4624023-0.9697266-0.7050781   c-0.3183594-0.2324219-0.6201172-0.465332-0.9697266-0.7407227c-0.0097656-0.0073242-0.0761719-0.0625-0.0859375-0.0693359   c-0.1083984-0.0830078-0.2138672-0.1689453-0.3173828-0.2539063l-0.2060547-0.1665039   c-0.6835938-0.5537109-1.3525391-1.1254883-2.0146484-1.7270508c-0.0024414-0.0026245-0.0058594-0.0046387-0.0083008-0.0072021   c-0.0126953-0.012085-0.0258789-0.0255737-0.0327148-0.0313721l-1.4912109-1.380249l-0.0449219-0.0426025   c-0.2275391-0.21875-0.4462891-0.4375-0.6679688-0.6586914c-0.2636719-0.2558594-0.5126953-0.503418-0.7763672-0.7856445   c-0.1923828-0.1918945-0.3681641-0.3759766-0.5722656-0.590332l-0.0019531,0.0013428   c-0.0151367-0.0174561-0.03125-0.0345459-0.0473633-0.0513306c-0.0185547-0.0222168-0.0361328-0.0447998-0.0571289-0.0652466   c-0.0078125-0.0078125-0.0166016-0.0161133-0.0244141-0.0239258c-0.0029297-0.0024414-0.0048828-0.0043945-0.0068359-0.0068359   c-0.2138672-0.222168-0.4179688-0.4443359-0.6708984-0.7275391c-0.1933594-0.2099609-0.3798828-0.4125977-0.5605469-0.6186523   c-0.4326162-0.4887695-0.453124-1.2182617-0.0507813-1.7338867c0.8876953-1.1362305,1.3730469-1.8325195,1.3730469-1.8325195   c0.2392578-0.3432617,0.2392578-0.7998047,0-1.1435547c0,0-0.4853516-0.6967773-1.3730469-1.8310547   c-0.4023428-0.5170898-0.3789053-1.2451172,0.0576172-1.7329102c0.3808594-0.4274902,0.7900391-0.8755493,1.2246094-1.3374023   c0.105957-0.1125488,0.2265625-0.2322998,0.3354492-0.3464966c0.3383789-0.3546143,0.6791992-0.7107544,1.046875-1.0778198   c0.1513672-0.1512451,0.3188477-0.3070679,0.4750977-0.4598389c0.3432617-0.3359985,0.6850586-0.671936,1.050293-1.0126953   c0.1953125-0.1819458,0.4067383-0.3646851,0.6079102-0.5472412c0.347168-0.3149414,0.690918-0.6298828,1.0556641-0.9442749   c0.2299805-0.1982422,0.4750977-0.3930054,0.7119141-0.5900879c0.3554688-0.2962646,0.7075195-0.5933838,1.0776367-0.8850098   c0.2636719-0.2075806,0.5415039-0.4075928,0.8120117-0.6118164c0.0615234-0.0462036,0.1235352-0.0916138,0.1850586-0.1376343   c0.3027344-0.2261353,0.5991211-0.4558716,0.9101563-0.6763916c0.2919922-0.2070313,0.5966797-0.4025269,0.8959961-0.6036377   c0.3706055-0.2495728,0.7387695-0.5019531,1.1201172-0.7406006c0.3164063-0.197998,0.644043-0.3806152,0.9672852-0.5699463   c0.3188477-0.1869507,0.637207-0.3748169,0.9624023-0.5522461c2.5976563,1.428894,4.7958984,3.5108643,6.375,6.0462646   c1.7099609,2.7612305,2.6132813,5.9365234,2.6132813,9.1826172c0,3.2456055-0.9033203,6.4208984-2.6113281,9.1801758   c-1.5805664,2.5354614-3.7797852,4.6223145-6.3847656,6.060791C29.4846535,65.0768433,29.1960793,64.9134521,28.92313,64.7563477z    M42.1760597,75.6977539c-0.0458984,0.0498047-0.125,0.109375-0.2587891,0.109375   c-1.6582031,0-3.3095703-0.1479492-4.9140625-0.440918C36.688755,75.3110352,36.3743019,75.25,36.0588722,75.184082   c-2.9042969-0.609375-5.0283203-2.9750977-5.2851563-5.887207l-0.1201172-1.3632813   c0.1586914,0.0748291,0.315918,0.1347656,0.4741211,0.206543c0.2587891,0.1174927,0.5170898,0.2289429,0.7758789,0.3381958   c0.4291992,0.1815186,0.8569336,0.3501587,1.2836914,0.508606c0.2519531,0.0933838,0.503418,0.1878052,0.7539063,0.2731323   c0.4550781,0.1549683,0.9072266,0.2904663,1.3583984,0.4186401c0.2133789,0.0605469,0.4277344,0.1292725,0.6396484,0.1838379   c0.6591797,0.1693726,1.3139648,0.3161621,1.9614258,0.427002c0.0014648,0.0002441,0.0029297,0.0003052,0.0039063,0.0005493   c0.0029297,0.0004883,0.0058594,0.0014038,0.0087891,0.0018921c0.0043945,0.0006714,0.0087891,0.0003662,0.0126953,0.0010376   c0.644043,0.118103,1.2963867,0.2076416,1.9536133,0.2678223c0.1992188,0.0182495,0.3999023,0.015686,0.5996094,0.0286255   c0.4550781,0.0293579,0.909668,0.0637817,1.3657227,0.0653076l0.4238281,4.7680664   C42.2805519,75.5600586,42.2160988,75.6538086,42.1760597,75.6977539z M42.6926613,68.6298828   c-0.7871094,0.0509033-1.5952148,0.0303955-2.4047852-0.0379639c1.0341797-1.0509644,1.9926758-2.1817017,2.8481445-3.3936768   c0.0205078-0.027832,0.0380859-0.0571289,0.0556641-0.0869141c3.0966797-4.4580078,4.7324219-9.6826172,4.7324219-15.1157227   c0-3.4916992-0.6689453-6.8862305-1.9892578-10.0913086c-1.3032227-3.1514282-3.2348633-6.0443726-5.6274414-8.4835205   c1.8085938-0.1415405,3.6708984-0.0394287,5.5634766,0.3157959c0.1113281,0.0209351,0.222168,0.034668,0.3334961,0.057312   c0.0395508,0.0080566,0.0795898,0.0197144,0.1196289,0.0279541c0.8706055,0.1813965,1.7470703,0.4122925,2.6274414,0.7001343   c0.4130859,0.1326294,0.8295898,0.2849731,1.2563477,0.4542847c1.3432617,2.263855,2.4155273,4.6870728,3.1879883,7.2097778   c0.0058594,0.0239258,0.0126953,0.0483398,0.0195313,0.0722656c0.9609375,3.1323242,1.4482422,6.4086914,1.4482422,9.7373047   c0,2.9326172-0.3798828,5.8354492-1.1289063,8.6293945c-0.7749023,2.9163818-1.9633789,5.7381592-3.5332031,8.3929443   c-0.3901367,0.1487427-0.7709961,0.2794189-1.1503906,0.406311c-0.2089844,0.0699463-0.4243164,0.1531982-0.6308594,0.2166748   c-0.6337891,0.1947632-1.2583008,0.3630371-1.8798828,0.5006714   C45.2522316,68.4238281,43.9690285,68.5878906,42.6926613,68.6298828z M65.4426651,65.6166992v0.0004883   c0.0966797,0.1733398,0.0566406,0.3896484-0.1054688,0.5224609c-4.0048866,3.3120117-8.1132851,5.809082-12.2148476,7.4238281   c-0.6435547,0.2583008-1.2988281,0.4970703-1.9501953,0.7099609c-0.1962891,0.0649414-0.4091797-0.0102539-0.5068359-0.1855469   l-2.4023438-4.3149414c0.1782227-0.0492554,0.3603516-0.1119995,0.5395508-0.1655273   c0.1699219-0.0508423,0.3422852-0.1029053,0.5136719-0.1576538c0.6196289-0.1981201,1.2451172-0.4136963,1.8876953-0.6660767   c0.0131836-0.0050049,0.0249023-0.0081787,0.0375977-0.0131836c0.0009766-0.0004272,0.0019531-0.0012207,0.0029297-0.0016479   c0.8969727-0.3536377,1.7978516-0.7576904,2.699707-1.2113037c2.7089844-1.3623047,5.4316406-3.1710815,8.1254883-5.3998413   c0.3339844-0.2753906,0.6640625-0.5522461,0.9873047-0.8310547L65.4426651,65.6166992z M64.6155167,57.1645508   c-0.4707031,0.4708252-0.9721718,0.9420776-1.4834023,1.4141846c0.0366211-0.1815796,0.0805664-0.3618164,0.1142578-0.5435791   c0.5107422-2.6328125,0.7695351-5.3378906,0.7695351-8.0395508c0-2.5859375-0.2343788-5.1704102-0.6962929-7.6816406   c-0.0537109-0.2932129-0.1235352-0.5892334-0.184082-0.8839111c0.515625,0.4686279,1.0117226,0.9372559,1.4877968,1.4136963   c1.0009766,0.9775391,1.9912109,2.0234375,3.1132813,3.2880859c1.9355469,2.2021484,1.9365234,5.5219727,0.0019531,7.7241211   C66.6252823,55.1118164,65.6340714,56.1611328,64.6155167,57.1645508z M77.9514542,49.0859375   c-0.3564453,0.1625977-0.5849609,0.5175781-0.5849609,0.9086914s0.2275391,0.746582,0.5830078,0.909668   c3.6757813,1.6870117,6.0507813,5.3798828,6.0507813,9.4082031v2.1367188c0,0.3408203-0.2773438,0.6181641-0.6181641,0.6181641   h-6.9736328c-3.2177734,0-6.2363281-1.2514648-8.5019531-3.5244141c-0.4824219-0.4829102-0.9179688-0.9985352-1.3007813-1.5390625   c0.0283203-0.0286255,0.0571289-0.0604858,0.0854492-0.0892334c0.3623047-0.3676758,0.7270508-0.7487183,1.0966797-1.1434326   c0.0810547-0.0864868,0.1650391-0.1774902,0.246582-0.265686c0.0507813-0.0546265,0.1005859-0.1080933,0.1518555-0.1633911   c1.3212891,1.3273315,2.8901367,2.4042358,4.6206055,3.1114502c0.1230469,0.050293,0.2519531,0.074707,0.3779297,0.074707   c0.3935547,0,0.7675781-0.2348633,0.9257813-0.6220703c0.2089844-0.5112305-0.0361328-1.0952148-0.5478516-1.3041992   c-1.5234375-0.6226807-2.9013672-1.5803223-4.0522461-2.7623901c2.2255859-2.8338013,2.2265625-6.8501587,0-9.6882324   c1.1508789-1.1820679,2.5288086-2.1395874,4.0522461-2.7622681c0.5117188-0.2089844,0.7568359-0.7929688,0.5478516-1.3041992   s-0.7978516-0.7558594-1.3037109-0.5473633c-1.7304688,0.7072754-3.2993164,1.7841797-4.6210938,3.1115723   c-0.0571289-0.0620117-0.1132813-0.1218872-0.1699219-0.1829224c-0.0732422-0.0786743-0.1484375-0.1601563-0.2207031-0.2373047   c-0.3828125-0.4083252-0.7587891-0.7992554-1.1289063-1.1731567c-0.0195313-0.0194092-0.0390625-0.0413208-0.0585938-0.0606689   c2.2529297-3.184082,5.8603516-5.0625,9.8007813-5.0625h6.9736328c0.3408203,0,0.6181641,0.2773438,0.6181641,0.6181641V39.6875   C84.0002823,43.71875,81.6262589,47.4082031,77.9514542,49.0859375z"/></g><text x="0" y="115" fill="#000000" font-size="5px" font-weight="bold" font-family="'Helvetica Neue', Helvetica, Arial-Unicode, Arial, Sans-serif">Created by Millenials</text><text x="0" y="120" fill="#000000" font-size="5px" font-weight="bold" font-family="'Helvetica Neue', Helvetica, Arial-Unicode, Arial, Sans-serif">from the Noun Project</text></svg>