<svg xmlns="http://www.w3.org/2000/svg" xmlns:xlink="http://www.w3.org/1999/xlink" version="1.1" x="0px" y="0px" viewBox="0 0 100 125" style="enable-background:new 0 0 100 100;" xml:space="preserve"><path d="M21.6,55.9H24c0.9,1.2,2,2.6,3.3,4.1v5.4c0,0.3,0.1,0.6,0.4,0.8c0.2,0.2,0.6,0.3,0.8,0.2l4.7-1.1l1.2,4.8  c0.1,0.3,0.3,0.6,0.6,0.7c0.3,0.1,0.6,0.1,0.9-0.1l4.6-2.7l3.6,4.3c0.2,0.2,0.5,0.4,0.8,0.4c0,0,0,0,0,0c0.3,0,0.6-0.1,0.8-0.4  l3.5-4.4l5,2.4c0.3,0.1,0.6,0.1,0.9,0s0.5-0.4,0.5-0.7l0.8-4.4l4.3,1.4c0.3,0.1,0.6,0,0.9-0.1c0.3-0.2,0.4-0.5,0.4-0.8l-0.1-5  c0.4-0.4,0.8-0.7,1.2-1.1c3.5-3.3,6-6.5,6.9-7.8c2,0.8,3.4,1.2,4.3,1.2c3,0,5.5-2.5,5.5-5.5s-2.5-5.5-5.5-5.5  c-1.2,0-3.7,0.8-7.4,2.5l-13.9-8.8c0,0-0.1,0-0.1,0c-1.5-1.2-3.3-2.1-5.1-2.7c0.3-0.3,0.5-0.7,0.6-1.1c0.3-0.9,0.3-1.9-0.1-2.7  c-0.8-1.8-3-2.6-4.8-1.7c-0.3,0.1-1.2,0.6-5,5c-4.7,0.9-8.8,3.7-11.4,7.8c-2.1,0.7-3.5,2.7-3.5,5c0,0.5,0.1,0.9,0.2,1.4h-0.7  c-1.6,0-2.9,1.3-2.9,2.9c0,0.4,0.1,0.8,0.2,1.1c-1,0.4-1.7,1.5-1.7,2.6C18.7,54.6,20,55.9,21.6,55.9z M42.1,50  c0.1,0.1,0.1,0.1,0.2,0.2l3.2,2.3c0.5,0.4,1.1,0.6,1.7,0.6c0.5,0,0.9-0.1,1.3-0.3c0.8-0.4,1.4-1.2,1.5-2c4.4,1.5,8.1,4.7,10.1,8.9  c-4.2,3.5-9.6,6.5-15.6,6.5c-6.6,0-11.7-3.5-15.3-7.2C31.8,54.2,36.6,50.8,42.1,50z M47.5,48.9h0.6v0.5h-0.6c-0.3,0-0.5,0.2-0.5,0.5  s0.2,0.5,0.5,0.5h0.6c-0.1,0.3-0.2,0.5-0.5,0.6c-0.3,0.2-0.7,0.1-1-0.1l-2.2-1.6l2.1-1.9c0.4-0.4,0.9-0.2,1-0.2  c0.1,0,0.4,0.2,0.5,0.7h-0.6c-0.3,0-0.5,0.2-0.5,0.5S47.2,48.9,47.5,48.9z M29.4,61.9c0.7,0.6,1.4,1.2,2.2,1.8l-2.2,0.5V61.9z   M35.6,66.1c0.9,0.4,1.7,0.8,2.7,1.1l-2.1,1.2L35.6,66.1z M44.9,70.1l-1.7-2c0.4,0,0.8,0.1,1.3,0.1c0.7,0,1.4,0,2.1-0.1L44.9,70.1z   M53.9,68l-2.2-1.1c0.9-0.3,1.8-0.7,2.7-1.1L53.9,68z M60.1,64.3l-2-0.7c0.7-0.4,1.3-0.9,2-1.4L60.1,64.3z M77.3,45.5h-2.9  c-0.3,0-0.5,0.2-0.5,0.5s0.2,0.5,0.5,0.5h3.4c0.1,0.3,0.2,0.6,0.2,1c0,0.2,0,0.4-0.1,0.6h-3.5c-0.3,0-0.5,0.2-0.5,0.5  s0.2,0.5,0.5,0.5h3.1c-0.6,1.1-1.7,1.9-3.1,1.9c-1.1,0-4.4-1.2-8.8-3.3c-0.1,0-0.1-0.1-0.1-0.2s0-0.2,0.1-0.2  c4.4-2.1,7.7-3.3,8.8-3.3C75.6,43.9,76.7,44.5,77.3,45.5z M44.4,29.1c0.8-0.4,1.7,0,2.1,0.8c0.4,0.8,0,1.7-0.8,2.1l-0.4,0.2  l-1.1-0.2c-0.7-0.1-1.3-0.1-2-0.1c-0.2,0-0.4,0-0.7,0C43.3,30,44.2,29.2,44.4,29.1z M42.2,33.9c0.5,0,1.1,0,1.6,0.1l0.7,0.1  c7.7,1.1,13.7,7.8,13.7,15.8c0,0.6,0.4,1,1,1s1-0.4,1-1c0-3.3-0.9-6.3-2.4-9l7.1,4.5c0,0,0,0,0,0c-0.8,0.4-1.3,1.1-1.3,2  s0.5,1.6,1.3,2c1.3,0.6,2.4,1.1,3.4,1.5c-1.2,1.6-3.7,4.9-7.3,8c-2.2-4.4-6.1-7.8-10.8-9.3v-1.6c0-1.2-0.7-2.2-1.8-2.7  c-1.1-0.5-2.3-0.3-3.2,0.5l-3,2.7c-0.1,0.1-0.2,0.2-0.2,0.4c-5.6,0.8-10.7,4.3-13.4,9.2c-1.2-1.3-2.2-2.7-3-3.8l-0.1-0.1  c-0.2-0.3-0.5-0.4-0.8-0.4h-3c-0.5,0-0.9-0.4-0.9-0.9s0.4-0.9,0.9-0.9l1.3,0c0,0,0,0,0,0c0,0,0.1,0,0.1,0h1.4c1.3,0,2.4-0.9,2.8-2.1  c0.5,0.2,1.1,0.3,1.7,0.3c2.9,0,5.3-2.4,5.3-5.3c0-2.6-1.9-4.8-4.5-5.2C32.8,36.1,37.3,33.9,42.2,33.9z M27.1,45.6  c0.2,0.8,1,1.4,1.8,1.4s1.6-0.6,1.8-1.4h1.4c-0.2,1.6-1.6,2.8-3.3,2.8c-0.9,0-1.7-0.4-2.4-1c0,0-0.1-0.1-0.1-0.1  c-0.4-0.5-0.7-1.1-0.8-1.7H27.1z M29,41.7c1.7,0,3,1.2,3.3,2.8h-6.6C25.9,43,27.3,41.7,29,41.7z M23.1,48.4h1.4  c0.2,0,0.5,0.1,0.6,0.3c0,0,0,0,0,0c0.2,0.2,0.2,0.4,0.2,0.6c0,0.5-0.4,0.9-0.9,0.9h-1.4c-0.5,0-0.9-0.4-0.9-0.9  S22.6,48.4,23.1,48.4z"/><path d="M37.6,44.4c0,0.8-0.2,1.5-0.5,2.2c-0.1,0.3,0,0.5,0.3,0.7c0.1,0,0.1,0,0.2,0c0.2,0,0.4-0.1,0.5-0.3  c0.4-0.8,0.5-1.7,0.5-2.6c0-1.8-0.7-3.5-2-4.8c-0.2-0.2-0.5-0.2-0.7,0c-0.2,0.2-0.2,0.5,0,0.7C37,41.4,37.6,42.9,37.6,44.4z"/><path d="M35.8,44.4c0,0.5-0.1,1-0.3,1.5c-0.1,0.3,0,0.5,0.3,0.7c0.1,0,0.1,0,0.2,0c0.2,0,0.4-0.1,0.5-0.3  c0.3-0.6,0.4-1.2,0.4-1.9c0-1.3-0.5-2.6-1.5-3.5c-0.2-0.2-0.5-0.2-0.7,0c-0.2,0.2-0.2,0.5,0,0.7C35.3,42.4,35.8,43.4,35.8,44.4z"/><path d="M44.3,59.7c0.2,0.2,0.4,0.2,0.7,0.2c0.2,0,0.5-0.1,0.6-0.2l1.5-1.2c0.4-0.4,0.5-1,0.1-1.4  c-0.4-0.4-1-0.5-1.4-0.1L45,57.6L44.2,57c-0.4-0.4-1-0.3-1.4,0.1c-0.4,0.4-0.3,1.1,0.1,1.4L44.3,59.7z"/><path d="M44.3,64.5c0.2,0.2,0.4,0.2,0.7,0.2c0.2,0,0.5-0.1,0.6-0.2l1.5-1.2c0.4-0.4,0.5-1,0.1-1.4  c-0.4-0.4-1-0.5-1.4-0.1L45,62.4l-0.8-0.7c-0.4-0.4-1-0.3-1.4,0.1c-0.4,0.4-0.3,1.1,0.1,1.4L44.3,64.5z"/><path d="M50.7,57.2C50.8,57.2,50.8,57.1,50.7,57.2l2-0.1c0.5,0,0.9-0.4,0.9-0.9l0.2-1.9c0-0.6-0.4-1-0.9-1.1  c-0.5-0.1-1,0.4-1.1,0.9l-0.1,1l-1,0.1c-0.6,0-1,0.5-0.9,1.1C49.8,56.8,50.2,57.2,50.7,57.2z"/><path d="M53.1,59.6c0,0.5,0.5,0.9,1,0.9c0,0,0.1,0,0.1,0l1.9-0.1c0.5,0,0.9-0.4,0.9-0.9l0.2-1.9  c0-0.6-0.4-1-0.9-1.1c-0.6,0-1,0.4-1.1,0.9l-0.1,1l-1,0.1C53.5,58.6,53.1,59,53.1,59.6z"/><path d="M36.2,57l1.9,0.2c0,0,0.1,0,0.1,0c0.5,0,1-0.4,1-0.9c0-0.6-0.4-1-0.9-1.1l-1-0.1l-0.1-1  c0-0.5-0.5-1-1.1-0.9c-0.6,0-1,0.5-0.9,1.1l0.1,1.9C35.4,56.6,35.7,57,36.2,57z"/><path d="M33.1,60.2l1.9,0.2c0,0,0.1,0,0.1,0c0.5,0,1-0.4,1-0.9c0-0.6-0.4-1-0.9-1.1l-1-0.1l-0.1-1  c0-0.6-0.5-1-1.1-0.9c-0.6,0-1,0.5-0.9,1.1l0.1,1.9C32.2,59.8,32.6,60.1,33.1,60.2z"/><text x="0" y="115" fill="#000000" font-size="5px" font-weight="bold" font-family="'Helvetica Neue', Helvetica, Arial-Unicode, Arial, Sans-serif">Created by Nook Fulloption</text><text x="0" y="120" fill="#000000" font-size="5px" font-weight="bold" font-family="'Helvetica Neue', Helvetica, Arial-Unicode, Arial, Sans-serif">from the Noun Project</text></svg>