<svg xmlns="http://www.w3.org/2000/svg" xmlns:xlink="http://www.w3.org/1999/xlink" version="1.1" x="0px" y="0px" viewBox="0 0 100 125" enable-background="new 0 0 100 100" xml:space="preserve"><path d="M83.402,61.681c-2.173,0-3.941,1.768-3.941,3.94s1.769,3.941,3.941,3.941s3.941-1.769,3.941-3.941  S85.575,61.681,83.402,61.681z M83.402,67.563c-1.07,0-1.941-0.871-1.941-1.941s0.871-1.94,1.941-1.94s1.941,0.87,1.941,1.94  S84.473,67.563,83.402,67.563z"/><path d="M28.932,52.681c-2.465,0-4.471,2.005-4.471,4.47s2.006,4.471,4.471,4.471s4.47-2.006,4.47-4.471  S31.396,52.681,28.932,52.681z M28.932,59.621c-1.362,0-2.471-1.108-2.471-2.471c0-1.361,1.108-2.47,2.471-2.47  c1.361,0,2.47,1.108,2.47,2.47C31.401,58.513,30.293,59.621,28.932,59.621z"/><path d="M92.292,50.681c-1.562,0-2.831,1.27-2.831,2.831s1.27,2.831,2.831,2.831s2.831-1.27,2.831-2.831  S93.854,50.681,92.292,50.681z M92.292,54.343c-0.458,0-0.831-0.373-0.831-0.831s0.373-0.831,0.831-0.831s0.831,0.373,0.831,0.831  S92.75,54.343,92.292,54.343z"/><path d="M12.292,48.343c1.562,0,2.831-1.27,2.831-2.831s-1.27-2.831-2.831-2.831s-2.831,1.27-2.831,2.831  S10.73,48.343,12.292,48.343z M12.292,44.681c0.458,0,0.831,0.373,0.831,0.831s-0.373,0.831-0.831,0.831s-0.831-0.373-0.831-0.831  S11.834,44.681,12.292,44.681z"/><path d="M26.292,64.681c-1.562,0-2.831,1.27-2.831,2.831s1.27,2.831,2.831,2.831s2.831-1.27,2.831-2.831  S27.854,64.681,26.292,64.681z M26.292,68.343c-0.458,0-0.831-0.373-0.831-0.831s0.373-0.831,0.831-0.831s0.831,0.373,0.831,0.831  S26.75,68.343,26.292,68.343z"/><circle cx="86.918" cy="47.137" r="1.457"/><circle cx="19.918" cy="37.137" r="1.457"/><path d="M67.869,51.388c-0.933-0.856-0.098-2.079,0.087-2.425c0.281-0.548,0.054-1.352-0.479-1.867  c-0.617-0.595-0.617-1.564-0.117-2.372c0.343-0.554,0.403-1.302,0.026-1.873c-0.185-0.274-0.651-1.741,0.198-2.508  c0.558-0.504,0.819-1.319,0.512-1.911c-0.202-0.385-0.122-1.019-0.096-1.633c0.031-0.736-0.797-1.076-1.439-0.798  c0,0-6.558,1.855-6.562,1.856c-0.071,0.02-0.043-0.718-0.031-0.774c0.105-0.482,0.458-0.908,0.938-1.049  c0.444-0.133,0.791-0.494,0.925-0.939c0.135-0.444,0.038-0.932-0.26-1.29c-0.627-0.755-0.251-1.972,0.703-2.237  c0.45-0.125,0.804-0.467,0.944-0.911c0.142-0.444,0.05-0.926-0.246-1.289c-0.632-0.773-0.238-1.977,0.707-2.261  c0.447-0.134,0.795-0.481,0.928-0.928c0.134-0.448,0.033-0.929-0.267-1.283c-0.646-0.764-0.317-1.988,0.62-2.333  c0.443-0.163,0.771-0.535,0.874-0.996c0.103-0.456-0.056-0.929-0.387-1.267c-0.746-0.761-0.448-1.957,0.399-2.486  c0.406-0.24,0.665-0.668,0.685-1.144c0.019-0.472-0.195-0.914-0.554-1.166c-0.893-0.671-1.113-1.854-0.519-2.799  c0.243-0.4,0.262-0.895,0.048-1.323c-0.217-0.435-0.645-0.733-1.133-0.782c-1.095-0.11-1.936-0.958-1.977-2.063  c-0.009-0.471-0.255-0.902-0.66-1.155c-0.403-0.251-0.897-0.286-1.327-0.083c-0.35,0.166-0.89,0.318-1.489,0.08  c-0.45-0.169-0.81-0.547-0.983-1.032c-0.155-0.441-0.522-0.771-0.981-0.884c-0.456-0.11-0.935,0.013-1.277,0.336  c-0.476,0.449-1.001,0.448-1.613,0.452c-0.914,0.006-1.79-0.415-2.535-0.909c-0.465-0.31-0.985-0.659-1.74-0.585  c-1.414,0.14-2.563,1.477-2.924,3.406c-0.197,1.05-3.406,5.862-7.73,9.529c-3.522,2.985-4.997,2.884-5.705,2.837  c-0.122-0.008-0.229-0.015-0.325-0.015c-0.37,0-1.241,0.17-1.319,1.746c-0.089,1.766,0.954,5.11,3.051,5.396  c0.352,0.048,0.62-0.111,0.767-0.25c1.043-0.989,3.811-3.03,7.097-2.458c2.783,0.48,6.546-0.192,8.355-2.175  c0.037,0.346,0.026,0.964-0.197,2.008c-0.19,0.887-1.397,2.854-2.796,5.133C44.154,36.279,38.249,45.9,40.2,53.925  c1.243,5.113,5.506,9.835,9.628,14.4c4.063,4.501,7.901,8.752,7.415,12.11c-0.581,4.011-3.469,6.336-7.195,5.805  c-1.02-0.148-1.92-0.685-2.536-1.51c-0.617-0.826-0.875-1.842-0.728-2.861c0.081-0.552,0.394-1.008,0.822-1.299  c-0.159,0.271-0.256,0.581-0.256,0.917c0,1.311,1.066,2.377,2.377,2.377c1.816,0,3.295-1.479,3.295-3.295  c0-2.661-2.165-4.826-4.825-4.826c-4.067,0-7.376,3.309-7.376,7.376c0,6.41,5.216,11.626,11.627,11.626  c1.423,0,6.323-0.337,9.993-4.584c0.272-0.127,0.571-0.196,0.873-0.183c0.487,0.018,0.91-0.202,1.183-0.59  c0.274-0.391,0.333-0.886,0.155-1.323c-0.202-0.499-0.199-1.02,0.009-1.471c0.223-0.456,0.616-0.785,1.091-0.919  c0.46-0.12,0.82-0.462,0.964-0.916c0.146-0.457,0.008-0.948-0.294-1.307C66.087,83.05,66,82.557,66,82.058  c0-0.481,0.44-0.903,0.878-1.137c0.415-0.218,0.71-0.652,0.754-1.121c0.044-0.467-0.138-0.966-0.511-1.262  c-0.369-0.293-0.575-0.759-0.599-1.224c-0.026-0.516,0.198-0.865,0.61-1.159c0.383-0.273,0.601-0.718,0.581-1.188  c-0.02-0.468-0.269-0.892-0.655-1.12c-0.874-0.518-1.051-1.745-0.292-2.449c0.346-0.315,0.507-0.78,0.432-1.243  c-0.076-0.463-0.377-0.853-0.806-1.041c-0.913-0.401-1.194-1.641-0.528-2.389c0.311-0.349,0.423-0.826,0.301-1.277  c-0.123-0.452-0.461-0.809-0.908-0.954c-0.946-0.308-1.343-1.505-0.742-2.306c0.284-0.373,0.36-0.859,0.202-1.301  c-0.157-0.44-0.523-0.769-0.971-0.875c-0.474-0.117-0.856-0.448-1.026-0.886c-0.172-0.457-0.114-0.957,0.154-1.339  c0.269-0.383,0.326-0.871,0.152-1.305c-0.173-0.434-0.551-0.747-1.01-0.839c-0.462-0.092-0.844-0.41-1.021-0.851  c-0.085-0.223-0.115-0.453-0.091-0.673l6.006,1.994c1.012,0.432,1.621-0.333,1.497-1.162c-0.088-0.586-0.085-1.224,0.102-1.679  C68.784,52.607,68.443,51.914,67.869,51.388z M61.32,52.153c-0.167-0.414-0.521-0.723-0.963-0.825  c-0.453-0.104-0.805-0.433-0.951-0.917c-0.159-0.463,0.03-0.939,0.302-1.22c0.31-0.331,0.438-0.794,0.344-1.234  c-0.093-0.438-0.396-0.806-0.818-0.984c-0.341-0.14-0.689-0.501-0.702-1.012c-0.012-0.167-0.001-0.404,0.139-0.621  c0.113-0.19,0.267-0.341,0.457-0.444c0.396-0.222,0.658-0.624,0.699-1.076c0.042-0.448-0.129-0.85-0.446-1.184  c-0.691-0.726-0.064-2.029,0.378-2.188c0.383-0.138,0.664-0.438,0.804-0.81l5.3-1.615c0.048,0.354,0.124,0.695,0.245,1.001  C65.344,40,65.031,40.859,65.099,41.8l-3.224,0.202c-0.551,0.034-0.939,0.508-0.904,1.06C61.002,43.592,61.459,44,61.983,44  c0.021,0,0.049-0.001,0.071-0.002c0,0,3.517-0.216,3.518-0.216c-0.087,0.005-0.822,1.437-0.349,3.493l-3.141-0.271  c-0.559-0.063-1.033,0.361-1.08,0.91c-0.048,0.55,0.361,1.035,0.911,1.082l3.859,0.314c-0.081,0.519-0.459,2.253,0.787,3.568  c-0.083,0.281-0.145,0.585-0.174,0.895L61.32,52.153z M42.82,83.119c0-2.964,2.412-5.376,5.376-5.376  c0.799,0,1.518,0.337,2.033,0.872c-0.301-0.175-0.634-0.294-0.989-0.346c-2.146-0.307-4.126,1.177-4.435,3.313  c-0.464,3.196,1.76,6.174,4.955,6.637c0.457,0.066,0.905,0.099,1.343,0.099c1.439,0,2.763-0.356,3.914-1.002  c0.093,0.013,0.189-0.004,0.265-0.071c0.032-0.029,0.034-0.071,0.052-0.107c1.04-0.651,1.92-1.556,2.59-2.67  c0.147,0.013,0.29-0.068,0.342-0.214c0.039-0.109,0.012-0.222-0.052-0.308c0.488-0.95,0.834-2.029,1.007-3.222  c0.025-0.174,0.031-0.35,0.04-0.526c0.017,0.168,0.149,0.304,0.321,0.304c0.184,0,0.333-0.149,0.333-0.333  c0-0.184-0.149-0.333-0.333-0.333c-0.168,0-0.292,0.13-0.316,0.291c0.182-4.117-3.77-8.505-7.955-13.14  c-3.955-4.381-8.046-8.911-9.169-13.533c-1.754-7.216,3.889-16.409,7.622-22.493c1.617-2.634,2.785-4.538,3.047-5.76  c0.536-2.5,0.229-4.033-0.912-4.557c-0.756-0.348-1.684-0.066-2.252,0.683c-1.001,1.316-4.09,2.088-6.607,1.651  c-3.711-0.643-6.787,1.31-8.297,2.534c-0.109-0.1-0.201-0.227-0.261-0.318c-0.49-0.756-0.699-1.955-0.709-2.646  c1.107-0.026,3.101-0.316,6.653-3.329c4.215-3.573,8.043-8.768,8.402-10.686c0.221-1.174,0.809-1.751,1.151-1.786  c0.07,0.015,0.284,0.156,0.44,0.261c0.953,0.637,2.034,1.124,3.191,1.207c0.115,0.008,0.231,0.012,0.347,0.017  c0.878,0.03,1.667-0.02,2.443-0.485c0.421,0.683,1.045,1.207,1.825,1.508c0.723,0.28,1.505,0.322,2.267,0.132  c0.315,1.495,1.441,2.601,2.878,3.041c-0.531,1.413-0.234,3.068,0.819,4.16c-0.04-0.041-0.652,0.777-0.703,0.86  c-0.217,0.355-0.382,0.747-0.454,1.158c-0.138,0.788,0.054,1.771,0.469,2.452c-0.052-0.084-0.902,0.894-0.962,0.989  c-0.682,1.077-0.648,2.351-0.085,3.465c-1.995,1.135-2.166,3.027-1.627,4.436c-1.986,1.272-1.844,3.685-1.466,4.454  c-0.749,0.436-2.144,2.412-1.034,4.53c-0.239,0.16-0.454,0.354-0.653,0.576c-0.358,0.416-1.302,2.306-0.154,4.101  c-0.215,0.201-0.404,0.43-0.549,0.676c-0.802,1.356-0.465,3.218,0.809,4.161c-0.016-0.012-0.278,0.628-0.296,0.689  c-0.074,0.249-0.118,0.507-0.13,0.767c-0.059,1.269,0.659,2.517,1.789,3.098c-0.326,0.789-0.396,3.119,1.709,4.355  c-0.667,1.943,0.583,3.928,1.736,4.321c-0.333,0.763-0.731,2.919,1.221,4.385c-0.452,1.737-0.234,3.409,1.189,4.474  c-0.051-0.038-0.504,1.023-0.533,1.121c-0.156,0.537-0.217,1.222-0.058,1.767c-0.1-0.018-0.21-0.033-0.316-0.017  c-0.529,0.077-0.899,0.567-0.822,1.096c0.077,0.529,0.566,0.895,1.094,0.819c0.363-0.053,0.636-0.306,0.755-0.627  c0.083,0.096,0.402,0.194,0.497,0.284c-0.539,0.616-0.719,1.392-0.759,2.259c-0.031,0.677,0.18,1.766,0.694,2.399  c-1.757,1.264-1.647,3.397-1.111,4.415c-0.667,0.356-1.196,0.911-1.548,1.59c-0.317,0.068-0.59,0.277-0.707,0.605  c-0.142,0.398,0.003,0.82,0.315,1.071c0,0.239,0.016,0.479,0.061,0.719c-0.769,0.132-1.472,0.488-2.034,1.041  c-0.134,0.132-0.206,0.295-0.25,0.465c-0.473,0.463-0.962,0.858-1.456,1.197c-0.341-0.164-0.761-0.12-1.061,0.146  c-0.2,0.177-0.309,0.419-0.324,0.667c-1.276,0.627-2.497,0.931-3.45,1.072c-0.215-0.289-0.579-0.452-0.957-0.378  c-0.296,0.058-0.522,0.251-0.655,0.497c-1.749-0.013-3.383-0.499-4.794-1.33c-0.099-0.096-0.214-0.176-0.372-0.226  C44.572,89.467,42.82,86.496,42.82,83.119z M49.507,15.455c0,0.9-0.729,1.629-1.629,1.629c-0.899,0-1.629-0.729-1.629-1.629  s0.729-1.629,1.629-1.629C48.778,13.826,49.507,14.555,49.507,15.455z M60.241,13.72c0.077-0.529,0.569-0.894,1.097-0.817  s0.894,0.569,0.817,1.097c-0.078,0.529-0.569,0.894-1.098,0.817C60.529,14.74,60.163,14.248,60.241,13.72z M58.436,15.366  c0.061-0.413,0.445-0.699,0.858-0.638c0.413,0.061,0.699,0.445,0.638,0.858c-0.061,0.413-0.445,0.699-0.858,0.638  C58.662,16.163,58.376,15.779,58.436,15.366z M56.632,17.011c0.044-0.298,0.32-0.503,0.618-0.46c0.298,0.044,0.504,0.32,0.46,0.618  c-0.044,0.298-0.32,0.504-0.618,0.46S56.588,17.309,56.632,17.011z M55.109,19.035c-0.182-0.027-0.308-0.196-0.281-0.378  c0.027-0.182,0.196-0.308,0.378-0.281c0.182,0.027,0.308,0.196,0.281,0.378C55.46,18.936,55.291,19.062,55.109,19.035z   M61.768,20.167c0.534,0,0.967,0.433,0.967,0.967c0,0.534-0.433,0.967-0.967,0.967s-0.967-0.433-0.967-0.967  C60.801,20.6,61.234,20.167,61.768,20.167z M60.462,21.812c0,0.418-0.338,0.756-0.756,0.756s-0.756-0.338-0.756-0.756  s0.338-0.756,0.756-0.756S60.462,21.395,60.462,21.812z M58.19,22.49c0,0.301-0.244,0.545-0.545,0.545  c-0.301,0-0.545-0.244-0.545-0.545c0-0.301,0.244-0.545,0.545-0.545C57.946,21.945,58.19,22.189,58.19,22.49z M55.583,22.834  c0.184,0,0.333,0.149,0.333,0.333c0,0.184-0.149,0.333-0.333,0.333c-0.184,0-0.333-0.149-0.333-0.333  C55.25,22.983,55.399,22.834,55.583,22.834z M58.285,28.723c0-0.534,0.433-0.967,0.967-0.967c0.534,0,0.967,0.433,0.967,0.967  c0,0.534-0.433,0.967-0.967,0.967C58.718,29.69,58.285,29.257,58.285,28.723z M56.607,28.538c0-0.418,0.339-0.756,0.756-0.756  c0.418,0,0.756,0.339,0.756,0.756s-0.338,0.756-0.756,0.756C56.945,29.294,56.607,28.955,56.607,28.538z M56.018,28.352  c0,0.301-0.244,0.545-0.545,0.545c-0.301,0-0.545-0.244-0.545-0.545c0-0.301,0.244-0.545,0.545-0.545  C55.774,27.808,56.018,28.052,56.018,28.352z M53.25,28.167c0-0.184,0.149-0.333,0.333-0.333c0.184,0,0.333,0.149,0.333,0.333  c0,0.184-0.149,0.333-0.333,0.333C53.399,28.501,53.25,28.351,53.25,28.167z M56.252,34.755c0.534,0,0.967,0.433,0.967,0.967  c0,0.534-0.433,0.967-0.967,0.967c-0.534,0-0.967-0.433-0.967-0.967C55.285,35.188,55.718,34.755,56.252,34.755z M53.273,35.538  c0-0.418,0.338-0.756,0.756-0.756c0.418,0,0.756,0.339,0.756,0.756s-0.339,0.756-0.756,0.756  C53.612,36.294,53.273,35.955,53.273,35.538z M51.262,35.352c0-0.301,0.244-0.545,0.545-0.545s0.545,0.244,0.545,0.545  c0,0.301-0.244,0.545-0.545,0.545S51.262,35.653,51.262,35.352z M49.25,35.167c0-0.184,0.149-0.333,0.333-0.333  c0.184,0,0.333,0.149,0.333,0.333c0,0.184-0.149,0.333-0.333,0.333C49.399,35.501,49.25,35.351,49.25,35.167z M53.28,42.6  c-0.042-0.533,0.355-0.999,0.888-1.041c0.533-0.042,0.999,0.355,1.041,0.888c0.042,0.533-0.355,0.999-0.888,1.041  C53.788,43.53,53.323,43.133,53.28,42.6z M51.259,42.548c-0.033-0.416,0.278-0.78,0.694-0.813c0.416-0.033,0.78,0.278,0.813,0.694  c0.033,0.416-0.278,0.78-0.694,0.813S51.292,42.964,51.259,42.548z M50.324,42.41c0.024,0.3-0.2,0.562-0.5,0.586  s-0.562-0.2-0.586-0.5c-0.024-0.3,0.2-0.562,0.5-0.586C50.038,41.887,50.3,42.11,50.324,42.41z M47.882,42.392  c0.015,0.184-0.122,0.344-0.306,0.359c-0.184,0.015-0.344-0.122-0.359-0.306c-0.015-0.184,0.122-0.344,0.306-0.359  C47.706,42.071,47.867,42.208,47.882,42.392z M55.402,50.123c-0.522,0.116-1.038-0.214-1.154-0.735  c-0.115-0.522,0.214-1.038,0.735-1.154c0.522-0.116,1.038,0.214,1.154,0.735C56.253,49.491,55.924,50.007,55.402,50.123z   M53.046,49.243c0.09,0.408-0.167,0.811-0.575,0.902c-0.408,0.09-0.811-0.167-0.902-0.575c-0.09-0.408,0.167-0.811,0.575-0.902  C52.552,48.578,52.956,48.835,53.046,49.243z M49.955,49.516c0.065,0.294-0.12,0.585-0.414,0.65  c-0.294,0.065-0.584-0.12-0.649-0.414c-0.065-0.294,0.12-0.584,0.414-0.65S49.89,49.223,49.955,49.516z M46.863,49.79  c0.04,0.18-0.074,0.358-0.253,0.398c-0.18,0.04-0.358-0.074-0.397-0.253s0.074-0.358,0.253-0.398  C46.646,49.497,46.823,49.61,46.863,49.79z M57.426,55.906c-0.51,0.157-1.052-0.129-1.209-0.64c-0.157-0.511,0.129-1.052,0.64-1.209  c0.511-0.157,1.052,0.129,1.209,0.64S57.936,55.749,57.426,55.906z M55.003,55.139c0.123,0.399-0.101,0.822-0.5,0.945  c-0.399,0.123-0.822-0.101-0.945-0.5s0.101-0.822,0.5-0.945S54.88,54.74,55.003,55.139z M50.899,55.9  c-0.089-0.287,0.073-0.592,0.36-0.681c0.287-0.089,0.592,0.073,0.681,0.36c0.089,0.288-0.073,0.592-0.36,0.681  S50.988,56.188,50.899,55.9z M48.878,56.021c0.054,0.176-0.045,0.362-0.221,0.417c-0.176,0.054-0.362-0.045-0.417-0.221  c-0.054-0.176,0.044-0.362,0.22-0.417C48.637,55.747,48.824,55.845,48.878,56.021z M59.422,61.493  c-0.481,0.233-1.059,0.033-1.293-0.448c-0.233-0.481-0.033-1.059,0.448-1.293s1.059-0.033,1.293,0.448S59.903,61.26,59.422,61.493z   M57.232,60.952c0.182,0.376,0.026,0.828-0.35,1.01c-0.376,0.182-0.828,0.026-1.01-0.35s-0.026-0.828,0.35-1.01  S57.05,60.576,57.232,60.952z M54.595,61.703c0.131,0.271,0.019,0.596-0.252,0.728c-0.271,0.131-0.596,0.018-0.728-0.252  c-0.131-0.271-0.019-0.596,0.252-0.728C54.137,61.319,54.463,61.432,54.595,61.703z M51.957,62.454  c0.08,0.166,0.011,0.365-0.154,0.445c-0.166,0.08-0.365,0.011-0.445-0.154c-0.08-0.166-0.011-0.365,0.154-0.445  C51.677,62.219,51.877,62.288,51.957,62.454z M61.226,67.3c-0.146-0.514,0.153-1.049,0.667-1.194s1.049,0.153,1.194,0.667  c0.146,0.514-0.153,1.049-0.667,1.194C61.907,68.113,61.372,67.814,61.226,67.3z M59.561,67.579c-0.114-0.402,0.12-0.82,0.521-0.933  c0.402-0.114,0.82,0.12,0.933,0.521c0.114,0.402-0.12,0.82-0.521,0.933C60.093,68.215,59.675,67.981,59.561,67.579z M58.944,67.562  c0.082,0.289-0.086,0.591-0.376,0.672c-0.289,0.082-0.59-0.086-0.672-0.376c-0.082-0.289,0.086-0.591,0.376-0.672  C58.561,67.104,58.862,67.272,58.944,67.562z M56.872,67.956c0.05,0.177-0.053,0.361-0.23,0.412c-0.177,0.05-0.361-0.053-0.412-0.23  c-0.05-0.177,0.053-0.361,0.23-0.412C56.638,67.676,56.822,67.779,56.872,67.956z M62.438,75.198  c-0.413,0.06-0.797-0.227-0.857-0.64c-0.06-0.413,0.226-0.797,0.64-0.857c0.413-0.06,0.797,0.227,0.857,0.64  C63.138,74.754,62.851,75.138,62.438,75.198z M59.894,74.615c-0.043-0.298,0.163-0.574,0.461-0.617  c0.298-0.043,0.574,0.163,0.617,0.461c0.043,0.298-0.163,0.574-0.461,0.617S59.937,74.913,59.894,74.615z M58.866,74.577  c0.026,0.182-0.1,0.351-0.282,0.378c-0.182,0.026-0.351-0.1-0.378-0.282c-0.026-0.182,0.1-0.351,0.282-0.378  C58.671,74.269,58.84,74.395,58.866,74.577z M63.363,79.781c0.417,0,0.756,0.338,0.756,0.756c0,0.418-0.338,0.756-0.756,0.756  s-0.756-0.338-0.756-0.756C62.607,80.12,62.945,79.781,63.363,79.781z M60.928,80.353c0-0.301,0.244-0.545,0.545-0.545  s0.545,0.244,0.545,0.545c0,0.301-0.244,0.545-0.545,0.545C61.172,80.897,60.928,80.654,60.928,80.353z M62.101,86.013  c-0.14,0.393-0.573,0.598-0.966,0.458c-0.393-0.14-0.598-0.573-0.458-0.966c0.14-0.393,0.573-0.598,0.966-0.458  S62.241,85.62,62.101,86.013z M59.158,84.767c0.101-0.283,0.413-0.431,0.696-0.33c0.283,0.101,0.431,0.413,0.33,0.696  c-0.101,0.283-0.413,0.431-0.696,0.33C59.204,85.362,59.057,85.051,59.158,84.767z M56.789,89.504  c0.313-0.277,0.79-0.248,1.067,0.065c0.277,0.313,0.248,0.79-0.065,1.067s-0.79,0.248-1.067-0.065  C56.447,90.258,56.476,89.781,56.789,89.504z M55.768,88.893c-0.199-0.225-0.178-0.569,0.047-0.769  c0.225-0.199,0.57-0.178,0.769,0.047c0.199,0.225,0.178,0.569-0.047,0.769C56.312,89.14,55.967,89.119,55.768,88.893z   M52.295,91.448c-0.08-0.41,0.188-0.807,0.598-0.887c0.41-0.08,0.807,0.188,0.887,0.597c0.08,0.41-0.188,0.807-0.598,0.887  C52.771,92.125,52.375,91.858,52.295,91.448z M52.322,89.517c-0.057-0.295,0.135-0.581,0.43-0.639  c0.295-0.058,0.581,0.135,0.639,0.43c0.057,0.295-0.135,0.581-0.431,0.639C52.666,90.005,52.38,89.813,52.322,89.517z M46.991,90.13  c0.136-0.395,0.566-0.604,0.961-0.469s0.604,0.566,0.469,0.961s-0.566,0.604-0.961,0.469C47.064,90.955,46.854,90.525,46.991,90.13z   M47.981,88.473c0.098-0.284,0.408-0.436,0.692-0.338c0.284,0.098,0.436,0.408,0.338,0.692c-0.098,0.284-0.408,0.436-0.693,0.338  C48.034,89.067,47.883,88.757,47.981,88.473z M56.75,11.363c0-0.394,0.32-0.714,0.714-0.714c0.394,0,0.714,0.32,0.714,0.714  s-0.32,0.714-0.714,0.714C57.07,12.076,56.75,11.757,56.75,11.363z M54.75,14.13c0-0.266,0.215-0.481,0.481-0.481  c0.266,0,0.481,0.215,0.481,0.481c0,0.266-0.215,0.481-0.481,0.481C54.965,14.611,54.75,14.396,54.75,14.13z"/><path d="M15,58c0.553,0,1-0.447,1-1s-0.447-1-1-1H9c-0.553,0-1,0.447-1,1s0.447,1,1,1H15z"/><path d="M20,61H10c-0.553,0-1,0.447-1,1s0.447,1,1,1h10c0.553,0,1-0.447,1-1S20.553,61,20,61z"/><path d="M79,22h6c0.553,0,1-0.447,1-1s-0.447-1-1-1h-6c-0.553,0-1,0.447-1,1S78.447,22,79,22z"/><path d="M88,25H74c-0.553,0-1,0.447-1,1s0.447,1,1,1h14c0.553,0,1-0.447,1-1S88.553,25,88,25z"/><path d="M87,32c0.553,0,1-0.447,1-1s-0.447-1-1-1h-4c-0.553,0-1,0.447-1,1s0.447,1,1,1H87z"/><text x="0" y="115" fill="#000000" font-size="5px" font-weight="bold" font-family="'Helvetica Neue', Helvetica, Arial-Unicode, Arial, Sans-serif">Created by Laymik</text><text x="0" y="120" fill="#000000" font-size="5px" font-weight="bold" font-family="'Helvetica Neue', Helvetica, Arial-Unicode, Arial, Sans-serif">from the Noun Project</text></svg>