<svg width="25" height="16" viewBox="0 0 25 16" fill="none" xmlns="http://www.w3.org/2000/svg">
<path d="M23.2988 5.64671C22.2064 4.67157 20.7404 3.8327 19.1703 3.28397C19.1693 3.28358 19.1683 3.28324 19.1673 3.28285C19.1655 3.28226 19.1639 3.28163 19.1622 3.28099C18.4375 3.02826 17.6929 2.83758 16.9461 2.71175C16.5052 2.17723 15.043 0.625278 12.511 0.0369972C12.0903 -0.0608544 11.6548 0.0375344 11.3156 0.306773C10.9743 0.577769 10.7786 0.982896 10.7786 1.41834V3.42914C8.40051 4.47577 6.5152 6.1827 5.50158 7.23075C5.35065 6.46883 5.01594 5.5056 4.27717 4.76683C2.87038 3.36009 0.605879 3.41854 0.510762 3.42176C0.233125 3.43099 0.0102251 3.65389 0.0010942 3.93153C-0.00212846 4.02718 -0.0599409 6.29066 1.3467 7.6973C1.69567 8.04627 2.09563 8.30223 2.5029 8.49041C2.09563 8.68255 1.69558 8.9411 1.34665 9.29002C-0.0599409 10.6972 -0.00207963 12.9606 0.0010942 13.0563C0.0102251 13.3339 0.233125 13.5569 0.510762 13.5661C0.519795 13.5664 0.548262 13.5672 0.593623 13.5672C1.02741 13.5672 3.00368 13.4945 4.27717 12.2205C5.02214 11.4755 5.35617 10.4903 5.5051 9.71395C6.24855 10.4813 7.45959 11.6016 8.99064 12.5597V14.4029C8.99064 14.8551 9.1986 15.2694 9.5612 15.5394C9.81061 15.7251 10.1043 15.8212 10.4042 15.8212C10.541 15.8212 10.6792 15.8013 10.815 15.7606C12.091 15.3796 13.0565 14.6843 13.504 14.3179C13.9351 14.3811 14.3647 14.4135 14.7843 14.4135C16.2247 14.4135 17.6659 14.1712 19.0679 13.6935C19.0689 13.6932 19.0698 13.6929 19.0707 13.6926C22.3403 12.5782 24.9999 10.2363 24.9999 8.47108C25.0002 7.62899 24.396 6.62601 23.2988 5.64671ZM2.09274 6.95145C1.37106 6.22977 1.15051 5.14671 1.08376 4.50272C1.72653 4.568 2.80578 4.7871 3.53142 5.51273C4.25246 6.23373 4.47316 7.29647 4.54021 7.92747C3.90661 7.8745 2.81643 7.67513 2.09274 6.95145ZM3.53137 11.4746C2.81032 12.1959 1.72829 12.4166 1.08396 12.4835C1.151 11.8389 1.37185 10.7571 2.09274 10.0358C2.81677 9.3118 3.90471 9.09247 4.54152 9.02665C4.47629 9.66922 4.25725 10.7488 3.53137 11.4746ZM11.8336 1.4183C11.8336 1.30653 11.8839 1.20248 11.9716 1.1328C12.0219 1.09281 12.128 1.03084 12.2722 1.06439C13.604 1.37386 14.6023 1.99789 15.2635 2.53763C15.1034 2.53158 14.9436 2.5285 14.7845 2.5285C13.8219 2.5285 12.8323 2.69491 11.8336 3.02337V1.4183ZM10.5132 14.7499C10.4018 14.7832 10.2844 14.7626 10.1914 14.6933C10.137 14.6528 10.0456 14.5612 10.0456 14.4029V13.1616C10.7423 13.5213 11.4377 13.8045 12.1269 14.01C11.7038 14.2752 11.1544 14.5584 10.5132 14.7499ZM14.7845 13.3586C14.3451 13.3586 13.8918 13.3184 13.4377 13.2394C12.2511 13.0317 11.0237 12.5515 9.78937 11.8118C7.84489 10.6463 6.38078 9.12982 5.79147 8.47083C6.54196 7.63128 8.71198 5.40116 11.5039 4.26747C11.5072 4.2661 11.5107 4.26488 11.514 4.26346C12.6285 3.81224 13.7288 3.58334 14.7845 3.58334C15.3784 3.58334 15.982 3.62938 16.5786 3.7203C17.0341 3.78954 17.4894 3.88592 17.9399 4.00731C16.8331 5.18221 16.1305 6.91288 16.1305 8.58905C16.1305 10.1195 16.8088 11.7711 17.8762 12.9517C16.8559 13.2216 15.8195 13.3586 14.7845 13.3586ZM19.008 12.5957C17.9087 11.6049 17.1853 10.0315 17.1853 8.58914C17.1853 7.01141 17.9554 5.32201 19.0836 4.3744C22.103 5.50365 23.9453 7.49549 23.9453 8.47093C23.9453 9.46292 22.0746 11.472 19.008 12.5957Z" fill="#248EA9"/>
<path d="M20.9549 7.82538C20.6636 7.82538 20.4274 8.06156 20.4274 8.35282V8.58911C20.4274 8.88037 20.6636 9.11656 20.9549 9.11656C21.2461 9.11656 21.4823 8.88037 21.4823 8.58911V8.35282C21.4822 8.06156 21.2461 7.82538 20.9549 7.82538Z" fill="#248EA9"/>
<path d="M15.4932 4.92551C15.2819 4.72487 14.9481 4.73356 14.7476 4.94474C14.697 4.99802 14.6471 5.05383 14.5991 5.11071C14.4114 5.33351 14.4398 5.66623 14.6627 5.85387C14.7616 5.93727 14.8822 5.97799 15.0022 5.97799C15.1524 5.97799 15.3016 5.91418 15.4058 5.79035C15.4403 5.74938 15.4762 5.70924 15.5124 5.67111C15.713 5.45988 15.7044 5.12609 15.4932 4.92551Z" fill="#248EA9"/>
<path d="M15.4323 11.3783C14.8461 10.7033 14.5098 9.67938 14.5098 8.56913C14.5098 7.94755 14.6186 7.33603 14.8246 6.80058C14.9291 6.5287 14.7935 6.22358 14.5216 6.11899C14.2497 6.0144 13.9446 6.15004 13.84 6.42192C13.5881 7.0769 13.455 7.81938 13.455 8.56903C13.455 9.92977 13.8854 11.2058 14.6359 12.0699C14.7403 12.19 14.8869 12.2515 15.0343 12.2515C15.1569 12.2515 15.2801 12.209 15.38 12.1223C15.5999 11.9312 15.6234 11.5981 15.4323 11.3783Z" fill="#248EA9"/>
</svg>
