<svg width="68" height="50" viewBox="0 0 68 50" fill="none" xmlns="http://www.w3.org/2000/svg">
<path d="M3.18181 31.5674H5.81503C6.80249 32.8841 8.00939 34.4201 9.43571 36.0659V41.9906C9.43571 42.3198 9.54543 42.6489 9.87459 42.8684C10.094 43.0878 10.5329 43.1975 10.7523 43.0878L15.9091 41.8809L17.2257 47.1473C17.3354 47.4765 17.5548 47.8057 17.884 47.9154C18.2131 48.0251 18.5423 48.0251 18.8714 47.8056L23.9184 44.8433L27.8683 49.5611C28.0877 49.7806 28.4169 50 28.746 50C29.0752 50 29.4043 49.8903 29.6238 49.5611L33.4639 44.7336L38.9498 47.3668C39.2789 47.4765 39.6081 47.4765 39.9372 47.3668C40.2664 47.2571 40.4858 46.9279 40.4858 46.5988L41.3635 41.7712L46.0814 43.3072C46.4106 43.4169 46.7397 43.3072 47.0689 43.1975C47.398 42.9781 47.5077 42.6489 47.5077 42.3198L47.398 36.8339C47.8369 36.395 48.2758 36.0659 48.7146 35.627C52.5547 32.0063 55.2977 28.4953 56.2851 27.069C58.4795 27.9468 60.0155 28.3856 61.003 28.3856C64.2945 28.3856 67.0375 25.6427 67.0375 22.3512C67.0375 19.0596 64.2945 16.3167 61.003 16.3167C59.6864 16.3167 56.9435 17.1944 52.8839 19.0596L37.6331 9.40448H37.5234C35.8777 8.08787 33.9027 7.10041 31.9278 6.4421C32.257 6.11295 32.4764 5.67408 32.5861 5.23521C32.9153 4.24775 32.9153 3.15058 32.4764 2.27283C31.5987 0.297917 29.1849 -0.579824 27.21 0.407634C26.8808 0.517352 25.8934 1.06594 21.7241 5.89352C16.5674 6.88097 12.0689 9.95307 9.21628 14.4515C6.91221 15.2195 5.37616 17.4139 5.37616 19.9374C5.37616 20.486 5.48588 20.9248 5.5956 21.4734H4.82758C3.07209 21.4734 1.64576 22.8997 1.64576 24.6552C1.64576 25.0941 1.75548 25.533 1.8652 25.8621C0.768022 26.301 0 27.5079 0 28.7148C0 30.1411 1.42633 31.5674 3.18181 31.5674ZM25.6739 25.0941C25.7836 25.2038 25.7836 25.2038 25.8934 25.3135L29.4043 27.837C29.9529 28.2759 30.6112 28.4953 31.2695 28.4953C31.8181 28.4953 32.257 28.3856 32.6959 28.1662C33.5736 27.7273 34.2319 26.8496 34.3416 25.9718C39.1692 27.6176 43.2287 31.1286 45.4231 35.7367C40.815 39.5768 34.8902 42.8684 28.3071 42.8684C21.0658 42.8684 15.4702 39.0282 11.5204 34.9687C14.373 29.7022 19.6395 25.9718 25.6739 25.0941ZM31.5987 23.8872H32.257V24.4358H31.5987C31.2695 24.4358 31.0501 24.6552 31.0501 24.9844C31.0501 25.3135 31.2695 25.533 31.5987 25.533H32.257C32.1473 25.8621 32.0375 26.0816 31.7084 26.1913C31.3792 26.4107 30.9404 26.301 30.6112 26.0816L28.1974 24.3261L30.5015 22.2414C30.9404 21.8026 31.489 22.022 31.5987 22.022C31.7084 22.022 32.0375 22.2414 32.1473 22.79H31.489C31.1598 22.79 30.9404 23.0095 30.9404 23.3386C30.9404 23.6678 31.2695 23.8872 31.5987 23.8872ZM11.7398 38.1505C12.5078 38.8088 13.2758 39.4671 14.1536 40.1254L11.7398 40.674V38.1505ZM18.5423 42.7586C19.5297 43.1975 20.4075 43.6364 21.5047 43.9655L19.2006 45.2821L18.5423 42.7586ZM28.746 47.1473L26.8808 44.953C27.3197 44.953 27.7586 45.0627 28.3071 45.0627C29.0752 45.0627 29.8432 45.0627 30.6112 44.953L28.746 47.1473ZM38.6206 44.8433L36.2068 43.6364C37.1943 43.3072 38.1817 42.8684 39.1692 42.4295L38.6206 44.8433ZM45.4231 40.7837L43.2287 40.0157C43.9968 39.5768 44.6551 39.0282 45.4231 38.4797V40.7837ZM64.2945 20.1568H61.1127C60.7836 20.1568 60.5641 20.3762 60.5641 20.7054C60.5641 21.0345 60.7836 21.254 61.1127 21.254H64.8431C64.9528 21.5831 65.0626 21.9123 65.0626 22.3512C65.0626 22.5706 65.0626 22.79 64.9528 23.0095H61.1127C60.7836 23.0095 60.5641 23.2289 60.5641 23.5581C60.5641 23.8872 60.7836 24.1066 61.1127 24.1066H64.514C63.8557 25.3135 62.6488 26.1913 61.1127 26.1913C59.9058 26.1913 56.2851 24.8747 51.4576 22.5706C51.3479 22.5706 51.3479 22.4609 51.3479 22.3512C51.3479 22.2414 51.3479 22.1317 51.4576 22.1317C56.2851 19.8277 59.9058 18.511 61.1127 18.511C62.4293 18.4013 63.6362 19.0596 64.2945 20.1568ZM28.1974 2.16312C29.0752 1.72425 30.0626 2.16312 30.5015 3.04086C30.9404 3.9186 30.5015 4.90606 29.6238 5.34493L29.1849 5.56436L27.978 5.34493C27.21 5.23521 26.5517 5.23521 25.7836 5.23521C25.5642 5.23521 25.3448 5.23521 25.0156 5.23521C26.9905 3.15057 27.978 2.27283 28.1974 2.16312ZM25.7836 7.42956C26.3322 7.42956 26.9905 7.42956 27.5391 7.53928L28.3071 7.649C36.7554 8.85589 43.3385 16.207 43.3385 24.9844C43.3385 25.6427 43.7773 26.0816 44.4356 26.0816C45.0939 26.0816 45.5328 25.6427 45.5328 24.9844C45.5328 21.3637 44.5454 18.0722 42.8996 15.1098L50.6895 20.0471C49.8118 20.486 49.2632 21.254 49.2632 22.2414C49.2632 23.2289 49.8118 23.9969 50.6895 24.4358C52.1159 25.0941 53.3228 25.6427 54.4199 26.0816C53.1033 27.837 50.3604 31.4577 46.4106 34.859C43.9968 30.0314 39.7178 26.301 34.5611 24.6552V22.8997C34.5611 21.5831 33.793 20.486 32.5861 19.9374C31.3792 19.3888 30.0626 19.6082 29.0752 20.486L25.7836 23.4483C25.6739 23.5581 25.5642 23.6678 25.5642 23.8872C19.42 24.7649 13.8244 28.6051 10.862 33.9812C9.54543 32.5549 8.44826 31.0189 7.57052 29.812L7.4608 29.7022C7.24136 29.3731 6.91221 29.2634 6.58306 29.2634H3.29153C2.74294 29.2634 2.30407 28.8245 2.30407 28.2759C2.30407 27.7273 2.74294 27.2885 3.29153 27.2885H4.71786H4.82758H6.36362C7.78995 27.2885 8.99684 26.301 9.43571 24.9844C9.9843 25.2038 10.6426 25.3135 11.3009 25.3135C14.4827 25.3135 17.1159 22.6803 17.1159 19.4985C17.1159 16.6458 15.0313 14.2321 12.1787 13.7932C15.4702 9.84335 20.4075 7.42956 25.7836 7.42956ZM9.21628 20.2665C9.43572 21.1443 10.3135 21.8026 11.1912 21.8026C12.0689 21.8026 12.9467 21.1443 13.1661 20.2665H14.7022C14.4827 22.022 12.9467 23.3386 11.0815 23.3386C10.094 23.3386 9.21628 22.8997 8.44826 22.2414L8.33854 22.1317C7.89967 21.5831 7.57052 20.9248 7.4608 20.2665H9.21628ZM11.3009 15.9875C13.1661 15.9875 14.5924 17.3041 14.9216 19.0596H7.68023C7.89967 17.4139 9.43572 15.9875 11.3009 15.9875ZM4.82758 23.3386H6.36362C6.58306 23.3386 6.91221 23.4483 7.02193 23.6678C7.24136 23.8872 7.24136 24.1066 7.24136 24.3261C7.24136 24.8747 6.80249 25.3135 6.2539 25.3135H4.71786C4.16927 25.3135 3.7304 24.8747 3.7304 24.3261C3.7304 23.7775 4.27899 23.3386 4.82758 23.3386Z" fill="#248EA9"/>
<path d="M28.0877 35.7368C28.3072 35.9562 28.5266 35.9562 28.8558 35.9562C29.0752 35.9562 29.4044 35.8465 29.5141 35.7368L31.1598 34.4201C31.5987 33.9813 31.7084 33.323 31.2696 32.8841C30.8307 32.4452 30.1724 32.3355 29.7335 32.7744L28.8558 33.4327L27.978 32.7744C27.5392 32.3355 26.8809 32.4452 26.442 32.8841C26.0031 33.323 26.1128 34.091 26.5517 34.4201L28.0877 35.7368Z" fill="#248EA9"/>
<path d="M28.0877 41.0032C28.3072 41.2226 28.5266 41.2226 28.8558 41.2226C29.0752 41.2226 29.4044 41.1129 29.5141 41.0032L31.1598 39.6865C31.5987 39.2477 31.7084 38.5894 31.2696 38.1505C30.8307 37.7116 30.1724 37.6019 29.7335 38.0408L28.8558 38.6991L27.978 37.9311C27.5392 37.4922 26.8809 37.6019 26.442 38.0408C26.0031 38.4796 26.1128 39.2477 26.5517 39.5768L28.0877 41.0032Z" fill="#248EA9"/>
<path d="M35.1097 32.9938C35.2194 32.9938 35.2194 32.8841 35.1097 32.9938L37.3041 32.8841C37.8527 32.8841 38.2915 32.4452 38.2915 31.8967L38.511 29.812C38.511 29.1537 38.0721 28.7148 37.5235 28.6051C36.9749 28.4954 36.4263 29.044 36.3166 29.5926L36.2069 30.6898L35.1097 30.7995C34.4514 30.7995 34.0126 31.3481 34.1223 32.0064C34.1223 32.555 34.5611 32.9938 35.1097 32.9938Z" fill="#248EA9"/>
<path d="M37.7429 35.6271C37.7429 36.1757 38.2915 36.6145 38.8401 36.6145H38.9498L41.0344 36.5048C41.583 36.5048 42.0219 36.0659 42.0219 35.5174L42.2413 33.4327C42.2413 32.7744 41.8025 32.3355 41.2539 32.2258C40.5956 32.2258 40.1567 32.6647 40.047 33.2133L39.9373 34.3105L38.8401 34.4202C38.1818 34.5299 37.7429 34.9688 37.7429 35.6271Z" fill="#248EA9"/>
<path d="M19.2006 32.7744L21.2853 32.9938H21.395C21.9436 32.9938 22.4922 32.555 22.4922 32.0064C22.4922 31.3481 22.0533 30.9092 21.5047 30.7995L20.4075 30.6898L20.2978 29.5926C20.2978 29.044 19.7492 28.4954 19.0909 28.6051C18.4326 28.6051 17.9938 29.1537 18.1035 29.812L18.2132 31.8967C18.3229 32.3355 18.6521 32.7744 19.2006 32.7744Z" fill="#248EA9"/>
<path d="M15.7995 36.2853L17.8842 36.5048H17.9939C18.5425 36.5048 19.0911 36.0659 19.0911 35.5173C19.0911 34.859 18.6522 34.4201 18.1036 34.3104L17.0064 34.2007L16.8967 33.1035C16.8967 32.4452 16.3481 32.0063 15.6898 32.116C15.0315 32.116 14.5926 32.6646 14.7023 33.3229L14.8121 35.4076C14.8121 35.8464 15.2509 36.1756 15.7995 36.2853Z" fill="#248EA9"/>
</svg>
