<svg width="70" height="50" viewBox="0 0 70 50" fill="none" xmlns="http://www.w3.org/2000/svg">
<path d="M68.9273 22.858L66.075 17.6284C64.5886 14.9034 62.7114 12.3932 60.5398 10.1727L60.5477 10.1625L60.475 10.1045C58.9909 8.59546 57.3727 7.21705 55.6341 6.01364C49.9511 2.07955 43.2932 0 36.3795 0C29.4193 0 22.6773 1.46023 16.3409 4.33977L15.3716 4.78068C13.6273 5.575 12.5 7.32614 12.5 9.24204C12.5 9.54432 12.5375 9.84432 12.5932 10.1398L12.2114 9.94886C11.0886 9.3875 9.83182 9.09091 8.57727 9.09091C6.40682 9.09091 4.36591 9.93636 2.83068 11.4716L1.29545 13.0068C0.460227 13.842 0 14.9523 0 16.1341C0 16.9352 0.217045 17.7216 0.630682 18.4114L1.09545 19.1864C2.82614 22.0716 5.99205 23.8636 9.35682 23.8636C10.8455 23.8636 12.3352 23.5114 13.6659 22.8455L15.7239 21.8182C16.0205 21.6693 16.3534 21.5909 16.6852 21.5909H21.5159C22.1091 22.075 22.717 22.5398 23.3386 22.9841L21.9909 24.6693C20.267 26.8227 19.3182 29.5295 19.3182 32.2898C19.3182 34.4091 19.8739 36.5023 20.9261 38.3409C23.0261 42.017 25.958 45.2614 29.4045 47.7239L31.8443 49.467C32.333 49.8159 32.9068 50 33.5057 50C35.0818 50 36.3636 48.7182 36.3636 47.142V43.0739C36.3636 39.9466 35.2614 36.9011 33.2591 34.4989C31.5977 32.5045 30.6818 29.9773 30.6818 27.3807V27.0068C34.7739 28.6489 39.1932 29.5455 43.7386 29.5455C45.4455 29.5455 47.1545 29.5057 48.8636 29.4386V31.7182C48.8636 34.2807 50.1091 36.7011 52.1955 38.1909L56.8455 41.5125C57.333 41.8614 57.9068 42.0455 58.5057 42.0455C60.0818 42.0455 61.3636 40.7636 61.3636 39.1875V34.0909C61.3636 32.0489 60.5534 30.0886 59.1659 28.6227C61.25 28.3773 63.3284 28.0966 65.392 27.7523L66.6466 27.5432C68.1943 27.2852 69.3182 25.9591 69.3182 24.3898C69.3182 23.8557 69.183 23.3261 68.9273 22.858ZM65.2205 20.8091C61.8602 21.4966 58.4602 21.9989 55.042 22.3159L51.1364 14.5045V13.3977C51.1364 12.3886 51.5284 11.4409 52.242 10.7284C53.6034 9.36705 55.7648 9.24432 57.267 10.4511L58.9466 11.7943C60.9591 13.858 62.7 16.1875 64.0795 18.717L65.2205 20.8091ZM33.6648 4.79773C33.8716 5.82955 33.55 6.88977 32.8057 7.63295L32.3011 8.13864L22.9273 12.3045C21.1795 10.367 19.6739 8.21364 18.4557 5.9125C22.7193 4.1125 27.1625 2.96818 31.733 2.51023C32.7159 2.9 33.4545 3.75 33.6648 4.79773ZM33.1966 10.2273H33.9534C35.1852 10.2273 36.392 10.7273 37.2648 11.5989C38.1489 12.483 38.6364 13.6591 38.6364 14.9102V15.6409L35.9784 20.9557C32.7966 19.8477 29.7864 18.2443 27.1011 16.1784C26.2352 15.5125 25.408 14.7943 24.6148 14.0409L33.1966 10.2273ZM40.6545 16.6875L41.6875 15.9989C43.8261 14.5716 46.6955 14.392 49.0011 15.5443L49.1523 15.6205L52.5977 22.5114C50.5182 22.6489 48.4352 22.7273 46.3534 22.7273C43.5886 22.7273 40.842 22.3409 38.1852 21.6261L40.6545 16.6875ZM36.3807 2.27273C42.5795 2.27273 48.55 4.08295 53.7136 7.48409C52.583 7.7125 51.5057 8.25114 50.6341 9.12273C49.5784 10.1784 48.9614 11.5545 48.8739 13.0307C46.2227 12.1136 43.2205 12.4216 40.8284 13.8534C40.608 12.3966 39.9318 11.0534 38.8705 9.99318C37.8784 9.00114 36.6398 8.34659 35.2932 8.08409C35.9284 6.96705 36.15 5.64659 35.8909 4.35227C35.742 3.60455 35.4352 2.91364 35.0114 2.31023C35.4682 2.29545 35.9227 2.27273 36.3807 2.27273ZM16.6852 19.3182C16.0011 19.3182 15.317 19.4807 14.7068 19.7852L12.6489 20.8125C11.633 21.3227 10.4943 21.5909 9.35682 21.5909C6.78523 21.5909 4.36591 20.2216 3.04318 18.0159L2.57955 17.2432C2.37841 16.908 2.27273 16.5239 2.27273 16.1341C2.27273 15.5591 2.49659 15.0193 2.90341 14.6125L4.43864 13.0773C5.54432 11.9727 7.01364 11.3636 8.57727 11.3636C9.48068 11.3636 10.3864 11.5773 11.1955 11.9818L14.2648 13.517L14.2659 13.5136C15.6375 15.6318 17.2239 17.5716 18.9818 19.3182H16.6852ZM31.5136 35.9557C33.175 37.95 34.0909 40.4773 34.0909 43.0739V47.142C34.0909 47.5864 33.5284 47.875 33.1659 47.6182L30.725 45.875C27.5432 43.6023 24.8364 40.6068 22.8989 37.2136C22.0432 35.717 21.5909 34.0148 21.5909 32.2898C21.5909 30.0443 22.3636 27.842 23.7659 26.0898L25.2386 24.2489C26.2659 24.8864 27.3216 25.475 28.4091 26.0034V27.3795C28.4091 30.508 29.5114 33.5523 31.5136 35.9557ZM56.8182 29.5455C58.2409 30.6125 59.0909 32.3125 59.0909 34.0909V39.1875C59.0909 39.6318 58.5284 39.9216 58.1659 39.6636L53.5159 36.342C52.0261 35.2773 51.1364 33.5477 51.1364 31.7182V29.3102C52.767 29.2182 54.3966 29.1 56.0227 28.9477L56.8182 29.5455ZM66.2727 25.3034L65.0182 25.5125C58.0102 26.6807 50.8511 27.2727 43.7386 27.2727C31.8886 27.2727 20.9193 20.8568 15.1102 10.5295C14.8898 10.1375 14.7727 9.69204 14.7727 9.24204C14.7727 8.21477 15.3773 7.27614 16.3125 6.85L16.3659 6.82614C18.6295 11.1534 21.8455 15.0045 25.7159 17.9818C31.6 22.508 38.9284 25 46.3534 25C53.0739 25 59.8034 24.2852 66.358 22.8943L66.9318 23.9466C67.0057 24.0818 67.0455 24.2352 67.0455 24.3898C67.0455 24.8432 66.7193 25.2273 66.2727 25.3034Z" fill="#248EA9"/>
<path d="M10.2273 13.6364H7.95459V15.9091H10.2273V13.6364Z" fill="#248EA9"/>
</svg>
