<svg width="21" height="50" viewBox="0 0 21 50" fill="none" xmlns="http://www.w3.org/2000/svg">
<path d="M20.0484 25.9123C19.53 25.4367 19.9939 24.7572 20.0967 24.565C20.2528 24.2606 20.1267 23.8139 19.8306 23.5278C19.4878 23.1972 19.4878 22.6588 19.7656 22.21C19.9561 21.9022 19.9895 21.4866 19.78 21.1694C19.6772 21.0171 19.4183 20.2021 19.89 19.776C20.2 19.496 20.345 19.0432 20.1745 18.7143C20.0622 18.5004 20.1067 18.1482 20.1211 17.8071C20.1384 17.3982 19.6783 17.2093 19.3217 17.3637C19.3217 17.3637 15.6783 18.3943 15.676 18.3949C15.6366 18.406 15.6521 17.996 15.6588 17.9649C15.7171 17.6971 15.9133 17.4604 16.1799 17.3821C16.4266 17.3082 16.6194 17.1076 16.6938 16.8604C16.7688 16.6137 16.7149 16.3426 16.5494 16.1437C16.201 15.7243 16.4099 15.0481 16.94 14.9009C17.19 14.8315 17.3866 14.6415 17.4644 14.3948C17.5433 14.1481 17.4922 13.8803 17.3277 13.6787C16.9766 13.2492 17.1955 12.5803 17.7205 12.4225C17.9689 12.3481 18.1622 12.1553 18.2361 11.9069C18.3105 11.6581 18.2544 11.3908 18.0878 11.1942C17.7289 10.7697 17.9116 10.0897 18.4322 9.89802C18.6783 9.80746 18.8605 9.60079 18.9178 9.34467C18.975 9.09133 18.8867 8.82855 18.7028 8.64077C18.2883 8.21798 18.4539 7.55352 18.9244 7.25963C19.15 7.12629 19.2939 6.88851 19.305 6.62406C19.3156 6.36183 19.1967 6.11627 18.9972 5.97626C18.5011 5.60348 18.3789 4.94624 18.7089 4.42123C18.8439 4.199 18.8544 3.924 18.7355 3.68622C18.615 3.44454 18.3772 3.27898 18.1061 3.25176C17.4977 3.19065 17.0305 2.71953 17.0077 2.10562C17.0027 1.84395 16.8661 1.6045 16.6411 1.46394C16.4172 1.3245 16.1427 1.30505 15.9038 1.41783C15.7094 1.51006 15.4094 1.5945 15.0766 1.46228C14.8266 1.36839 14.6266 1.15838 14.5305 0.888932C14.4443 0.643927 14.2405 0.460589 13.9854 0.39781C13.7321 0.336698 13.466 0.405033 13.276 0.584481C13.0115 0.833931 12.7199 0.833375 12.3799 0.835598C11.8721 0.838931 11.3854 0.605037 10.9715 0.330587C10.7132 0.158361 10.4243 -0.0355325 10.0048 0.00557954C9.21923 0.083359 8.58088 0.826153 8.38032 1.89784C8.27088 2.48119 6.48806 5.15458 4.08579 7.19185C2.12908 8.85022 1.30961 8.7941 0.916271 8.76799C0.848492 8.76355 0.789046 8.75966 0.735711 8.75966C0.530151 8.75966 0.0462525 8.8541 0.00291826 9.72968C-0.0465273 10.7108 0.53293 12.5686 1.69796 12.7275C1.89352 12.7542 2.04241 12.6659 2.12407 12.5886C2.70353 12.0392 4.24134 10.9053 6.06694 11.223C7.61308 11.4897 9.70368 11.1164 10.7087 10.0147C10.7293 10.2069 10.7232 10.5503 10.5993 11.1303C10.4937 11.6231 9.82313 12.7159 9.04589 13.982C6.87307 17.5182 3.59244 22.8633 4.67635 27.3217C5.36692 30.1623 7.73531 32.7857 10.0254 35.3219C12.2826 37.8225 14.4149 40.1842 14.1449 42.0498C13.8221 44.2782 12.2176 45.5699 10.1476 45.2749C9.5809 45.1927 9.08089 44.8943 8.73866 44.436C8.39588 43.9771 8.25254 43.4126 8.33421 42.8465C8.37921 42.5398 8.5531 42.2865 8.79089 42.1248C8.70255 42.2754 8.64866 42.4476 8.64866 42.6343C8.64866 43.3626 9.2409 43.9549 9.96925 43.9549C10.9782 43.9549 11.7998 43.1332 11.7998 42.1243C11.7998 40.6459 10.597 39.4431 9.11923 39.4431C6.85973 39.4431 5.02136 41.2815 5.02136 43.541C5.02136 47.1022 7.9192 50 11.4809 50C12.2715 50 14.9938 49.8128 17.0327 47.4533C17.1838 47.3827 17.35 47.3444 17.5177 47.3516C17.7883 47.3616 18.0233 47.2394 18.175 47.0238C18.3272 46.8066 18.36 46.5316 18.2611 46.2888C18.1489 46.0116 18.1505 45.7221 18.2661 45.4716C18.39 45.2182 18.6083 45.0354 18.8722 44.961C19.1278 44.8943 19.3278 44.7043 19.4078 44.4521C19.4889 44.1982 19.4122 43.9254 19.2444 43.726C19.0583 43.5026 19.01 43.2287 19.01 42.9515C19.01 42.6843 19.2544 42.4498 19.4978 42.3198C19.7283 42.1987 19.8922 41.9576 19.9167 41.697C19.9411 41.4376 19.84 41.1604 19.6328 40.9959C19.4278 40.8331 19.3133 40.5742 19.3 40.3159C19.2856 40.0292 19.41 39.8353 19.6389 39.672C19.8517 39.5203 19.9728 39.2731 19.9617 39.012C19.9506 38.752 19.8122 38.5164 19.5978 38.3897C19.1122 38.102 19.0139 37.4203 19.4356 37.0292C19.6278 36.8542 19.7172 36.5958 19.6756 36.3386C19.6333 36.0814 19.4661 35.8647 19.2278 35.7602C18.7205 35.5375 18.5644 34.8486 18.9344 34.433C19.1072 34.2391 19.1694 33.9741 19.1017 33.7235C19.0333 33.4724 18.8456 33.2741 18.5972 33.1935C18.0716 33.0224 17.8511 32.3574 18.185 31.9124C18.3428 31.7052 18.385 31.4352 18.2972 31.1896C18.21 30.9451 18.0066 30.7624 17.7577 30.7035C17.4944 30.6385 17.2822 30.4546 17.1877 30.2112C17.0922 29.9573 17.1244 29.6796 17.2733 29.4673C17.4227 29.2545 17.4544 28.9834 17.3577 28.7423C17.2616 28.5012 17.0516 28.3273 16.7966 28.2762C16.5399 28.2251 16.3277 28.0484 16.2294 27.8034C16.1822 27.6795 16.1655 27.5517 16.1788 27.4295L19.5156 28.5373C20.0778 28.7773 20.4161 28.3523 20.3472 27.8917C20.2984 27.5662 20.3 27.2117 20.4039 26.9589C20.5567 26.5895 20.3673 26.2045 20.0484 25.9123ZM16.4099 26.3373C16.3172 26.1073 16.1205 25.9356 15.8749 25.8789C15.6233 25.8211 15.4277 25.6384 15.3466 25.3695C15.2582 25.1122 15.3633 24.8478 15.5144 24.6917C15.6866 24.5078 15.7577 24.2506 15.7055 24.0061C15.6538 23.7628 15.4855 23.5583 15.251 23.4594C15.0616 23.3816 14.8682 23.1811 14.861 22.8972C14.8544 22.8044 14.8605 22.6727 14.9382 22.5522C15.001 22.4466 15.0866 22.3627 15.1921 22.3055C15.4121 22.1822 15.5577 21.9588 15.5805 21.7077C15.6038 21.4588 15.5088 21.2355 15.3327 21.0499C14.9488 20.6466 15.2971 19.9227 15.5427 19.8343C15.7555 19.7577 15.9116 19.591 15.9894 19.3843L18.9339 18.4871C18.9606 18.6838 19.0028 18.8732 19.07 19.0432C18.6455 19.5854 18.4717 20.0627 18.5094 20.5855L16.7183 20.6977C16.4122 20.7166 16.1966 20.9799 16.216 21.2866C16.2333 21.581 16.4872 21.8077 16.7783 21.8077C16.79 21.8077 16.8055 21.8072 16.8177 21.8066C16.8177 21.8066 18.7717 21.6866 18.7722 21.6866C18.7239 21.6894 18.3155 22.485 18.5783 23.6272L16.8333 23.4766C16.5227 23.4416 16.2594 23.6772 16.2333 23.9822C16.2066 24.2878 16.4338 24.5572 16.7394 24.5833L18.8833 24.7578C18.8383 25.0461 18.6283 26.0095 19.3206 26.74C19.2744 26.8962 19.24 27.0651 19.2239 27.2373L16.4099 26.3373ZM6.13194 43.541C6.13194 41.8943 7.47197 40.5542 9.11867 40.5542C9.56257 40.5542 9.96202 40.7415 10.2481 41.0387C10.0809 40.9415 9.89591 40.8754 9.69869 40.8465C8.50644 40.6759 7.40641 41.5004 7.23474 42.6871C6.97696 44.4627 8.21254 46.1171 9.98758 46.3744C10.2415 46.411 10.4904 46.4294 10.7337 46.4294C11.5332 46.4294 12.2687 46.2316 12.9082 45.8727C12.9599 45.8799 13.0132 45.8705 13.0554 45.8332C13.0732 45.8171 13.0743 45.7938 13.0843 45.7738C13.6621 45.4121 14.151 44.9093 14.5232 44.2904C14.6049 44.2977 14.6843 44.2527 14.7132 44.1715C14.7349 44.111 14.7199 44.0482 14.6843 44.0004C14.9555 43.4726 15.1477 42.8732 15.2438 42.2104C15.2577 42.1137 15.261 42.0159 15.266 41.9182C15.2755 42.0115 15.3488 42.087 15.4444 42.087C15.5466 42.087 15.6294 42.0043 15.6294 41.902C15.6294 41.7998 15.5466 41.717 15.4444 41.717C15.351 41.717 15.2821 41.7893 15.2688 41.8787C15.3699 39.5914 13.1743 37.1536 10.8493 34.5786C8.652 32.1446 6.37917 29.6279 5.75526 27.0601C4.7808 23.0511 7.91587 17.9437 9.9898 14.5637C10.8882 13.1003 11.5371 12.0425 11.6826 11.3636C11.9804 9.97468 11.8098 9.123 11.1759 8.83188C10.7559 8.63854 10.2404 8.79521 9.9248 9.21133C9.36868 9.94246 7.65253 10.3714 6.25417 10.1286C4.19245 9.77135 2.48353 10.8564 1.64462 11.5364C1.58406 11.4808 1.53295 11.4103 1.49962 11.3597C1.22739 10.9397 1.11127 10.2736 1.10572 9.88968C1.72073 9.87524 2.82853 9.71412 4.80191 8.0402C7.14363 6.05516 9.27034 3.16898 9.46979 2.1034C9.59257 1.45117 9.91924 1.1306 10.1092 1.11116C10.1481 1.11949 10.267 1.19783 10.3537 1.25616C10.8832 1.61006 11.4837 1.88062 12.1265 1.92673C12.1904 1.93118 12.2549 1.9334 12.3193 1.93618C12.8071 1.95284 13.2454 1.92507 13.6765 1.66673C13.9104 2.04618 14.2571 2.3373 14.6905 2.50452C15.0921 2.66008 15.5266 2.68342 15.9499 2.57786C16.1249 3.40843 16.7505 4.02289 17.5489 4.26734C17.2538 5.05236 17.4189 5.97182 18.0039 6.5785C17.9816 6.55572 17.6416 7.01018 17.6133 7.05629C17.4927 7.25351 17.4011 7.4713 17.3611 7.69964C17.2844 8.13742 17.3911 8.68355 17.6216 9.06189C17.5927 9.01522 17.1205 9.55857 17.0872 9.61134C16.7083 10.2097 16.7272 10.9175 17.04 11.5364C15.9316 12.167 15.8366 13.2181 16.136 14.0009C15.0327 14.7076 15.1116 16.0481 15.3216 16.4754C14.9055 16.7176 14.1304 17.8154 14.7471 18.9921C14.6143 19.081 14.4949 19.1888 14.3843 19.3121C14.1854 19.5432 13.661 20.5933 14.2988 21.5905C14.1793 21.7022 14.0743 21.8294 13.9938 21.9661C13.5482 22.7194 13.7354 23.7539 14.4432 24.2778C14.4343 24.2711 14.2888 24.6267 14.2788 24.6606C14.2377 24.7989 14.2132 24.9422 14.2066 25.0867C14.1738 25.7917 14.5727 26.485 15.2005 26.8078C15.0194 27.2462 14.9805 28.5406 16.1499 29.2273C15.7794 30.3068 16.4738 31.4096 17.1144 31.6279C16.9294 32.0518 16.7083 33.2496 17.7927 34.0641C17.5416 35.0291 17.6627 35.958 18.4533 36.5497C18.425 36.5286 18.1733 37.1181 18.1572 37.1725C18.0705 37.4708 18.0366 37.8514 18.125 38.1542C18.0694 38.1442 18.0083 38.1359 17.9494 38.1447C17.6555 38.1875 17.45 38.4597 17.4927 38.7536C17.5355 39.0475 17.8072 39.2509 18.1005 39.2087C18.3022 39.1792 18.4539 39.0387 18.52 38.8603C18.5661 38.9136 18.7433 38.9681 18.7961 39.0181C18.4967 39.3603 18.3967 39.7914 18.3744 40.2731C18.3572 40.6492 18.4744 41.2543 18.76 41.6059C17.7839 42.3082 17.845 43.4932 18.1428 44.0588C17.7722 44.2565 17.4783 44.5649 17.2827 44.9421C17.1066 44.9799 16.955 45.096 16.8899 45.2782C16.8111 45.4993 16.8916 45.7338 17.065 45.8732C17.065 46.006 17.0738 46.1394 17.0988 46.2727C16.6716 46.346 16.281 46.5438 15.9688 46.851C15.8944 46.9244 15.8544 47.0149 15.8299 47.1094C15.5671 47.3666 15.2955 47.5861 15.021 47.7744C14.8316 47.6833 14.5982 47.7077 14.4316 47.8555C14.3205 47.9538 14.2599 48.0883 14.2516 48.2261C13.5427 48.5744 12.8643 48.7433 12.3349 48.8216C12.2154 48.6611 12.0132 48.5705 11.8032 48.6116C11.6387 48.6439 11.5132 48.7511 11.4393 48.8878C10.4676 48.8805 9.55979 48.6105 8.77589 48.1488C8.72088 48.0955 8.657 48.0511 8.56922 48.0233C7.1053 47.0677 6.13194 45.4171 6.13194 43.541ZM9.84702 5.94904C9.84702 6.44905 9.44201 6.85406 8.942 6.85406C8.44254 6.85406 8.03698 6.44905 8.03698 5.94904C8.03698 5.44903 8.44199 5.04402 8.942 5.04402C9.44201 5.04402 9.84702 5.44903 9.84702 5.94904ZM15.8105 4.98513C15.8533 4.69124 16.1266 4.48845 16.4199 4.53123C16.7133 4.57401 16.9166 4.84735 16.8738 5.14069C16.8305 5.43459 16.5577 5.63737 16.2638 5.59459C15.9705 5.55181 15.7671 5.27847 15.8105 4.98513ZM14.8077 5.8996C14.8416 5.67015 15.0549 5.51125 15.2844 5.54514C15.5138 5.57903 15.6727 5.79237 15.6388 6.02182C15.6049 6.25127 15.3916 6.41016 15.1621 6.37627C14.9332 6.34238 14.7744 6.12905 14.8077 5.8996ZM13.8054 6.81351C13.8299 6.64795 13.9832 6.53406 14.1488 6.55794C14.3143 6.58239 14.4288 6.73573 14.4043 6.90129C14.3799 7.06684 14.2266 7.18129 14.061 7.15685C13.8954 7.1324 13.781 6.97906 13.8054 6.81351ZM12.9593 7.93797C12.8582 7.92297 12.7882 7.82908 12.8032 7.72797C12.8182 7.62686 12.9121 7.55685 13.0132 7.57185C13.1143 7.58685 13.1843 7.68075 13.1693 7.78186C13.1543 7.88297 13.0604 7.95297 12.9593 7.93797ZM16.6588 8.56688C16.9555 8.56688 17.1961 8.80744 17.1961 9.10411C17.1961 9.40078 16.9555 9.64134 16.6588 9.64134C16.3622 9.64134 16.1216 9.40078 16.1216 9.10411C16.1216 8.80744 16.3622 8.56688 16.6588 8.56688ZM15.9333 9.48079C15.9333 9.71301 15.7455 9.90079 15.5133 9.90079C15.281 9.90079 15.0932 9.71301 15.0932 9.48079C15.0932 9.24856 15.281 9.06078 15.5133 9.06078C15.7455 9.06078 15.9333 9.24911 15.9333 9.48079ZM14.671 9.85746C14.671 10.0247 14.5355 10.1602 14.3682 10.1602C14.201 10.1602 14.0654 10.0247 14.0654 9.85746C14.0654 9.69023 14.201 9.55468 14.3682 9.55468C14.5355 9.55468 14.671 9.69023 14.671 9.85746ZM13.2226 10.0486C13.3249 10.0486 13.4077 10.1314 13.4077 10.2336C13.4077 10.3358 13.3249 10.4186 13.2226 10.4186C13.1204 10.4186 13.0376 10.3358 13.0376 10.2336C13.0376 10.1314 13.1204 10.0486 13.2226 10.0486ZM14.7238 13.3203C14.7238 13.0236 14.9644 12.7831 15.261 12.7831C15.5577 12.7831 15.7983 13.0236 15.7983 13.3203C15.7983 13.617 15.5577 13.8575 15.261 13.8575C14.9644 13.8575 14.7238 13.617 14.7238 13.3203ZM13.7916 13.2175C13.7916 12.9853 13.9799 12.7975 14.2116 12.7975C14.4438 12.7975 14.6316 12.9859 14.6316 13.2175C14.6316 13.4492 14.4438 13.6375 14.2116 13.6375C13.9793 13.6375 13.7916 13.4492 13.7916 13.2175ZM13.4643 13.1142C13.4643 13.2814 13.3288 13.417 13.1615 13.417C12.9943 13.417 12.8588 13.2814 12.8588 13.1142C12.8588 12.947 12.9943 12.8114 13.1615 12.8114C13.3288 12.812 13.4643 12.9475 13.4643 13.1142ZM11.9265 13.0114C11.9265 12.9092 12.0093 12.8264 12.1115 12.8264C12.2137 12.8264 12.2965 12.9092 12.2965 13.0114C12.2965 13.1136 12.2137 13.1964 12.1115 13.1964C12.0093 13.197 11.9265 13.1136 11.9265 13.0114ZM13.5943 16.6715C13.891 16.6715 14.1316 16.9121 14.1316 17.2087C14.1316 17.5054 13.891 17.746 13.5943 17.746C13.2977 17.746 13.0571 17.5054 13.0571 17.2087C13.0571 16.9121 13.2977 16.6715 13.5943 16.6715ZM11.9393 17.1065C11.9393 16.8743 12.1271 16.6865 12.3593 16.6865C12.5915 16.6865 12.7793 16.8748 12.7793 17.1065C12.7793 17.3382 12.591 17.5265 12.3593 17.5265C12.1276 17.5265 11.9393 17.3382 11.9393 17.1065ZM10.822 17.0032C10.822 16.8359 10.9576 16.7004 11.1248 16.7004C11.2921 16.7004 11.4276 16.8359 11.4276 17.0032C11.4276 17.1704 11.2921 17.306 11.1248 17.306C10.9576 17.306 10.822 17.1704 10.822 17.0032ZM9.70424 16.9004C9.70424 16.7982 9.78702 16.7154 9.88924 16.7154C9.99147 16.7154 10.0742 16.7982 10.0742 16.9004C10.0742 17.0026 9.99147 17.0854 9.88924 17.0854C9.78702 17.086 9.70424 17.0026 9.70424 16.9004ZM11.9432 21.0299C11.9198 20.7338 12.1404 20.4749 12.4365 20.4516C12.7326 20.4282 12.9915 20.6488 13.0149 20.9449C13.0382 21.241 12.8176 21.4999 12.5215 21.5233C12.2254 21.5466 11.9671 21.326 11.9432 21.0299ZM10.8204 21.001C10.802 20.7699 10.9748 20.5677 11.2059 20.5494C11.4371 20.531 11.6393 20.7038 11.6576 20.9349C11.6759 21.166 11.5032 21.3683 11.2721 21.3866C11.0409 21.4049 10.8387 21.2322 10.8204 21.001ZM10.3009 20.9244C10.3143 21.091 10.1898 21.2366 10.0231 21.2499C9.85647 21.2633 9.71091 21.1388 9.69757 20.9721C9.68424 20.8055 9.80869 20.6599 9.97536 20.6466C10.142 20.6338 10.2876 20.7577 10.3009 20.9244ZM8.94422 20.9144C8.95256 21.0166 8.87644 21.1055 8.77422 21.1138C8.672 21.1222 8.5831 21.046 8.57477 20.9438C8.56644 20.8416 8.64255 20.7527 8.74477 20.7444C8.84644 20.736 8.93589 20.8121 8.94422 20.9144ZM13.1221 25.2095C12.8321 25.2739 12.5454 25.0906 12.481 24.8011C12.4171 24.5111 12.5999 24.2244 12.8893 24.16C13.1793 24.0955 13.466 24.2789 13.5304 24.5683C13.5949 24.8583 13.4121 25.145 13.1221 25.2095ZM11.8132 24.7206C11.8632 24.9472 11.7204 25.1711 11.4937 25.2217C11.2671 25.2717 11.0432 25.1289 10.9926 24.9022C10.9426 24.6756 11.0854 24.4517 11.3121 24.4011C11.5387 24.3511 11.7632 24.4939 11.8132 24.7206ZM10.0959 24.8722C10.132 25.0356 10.0292 25.1972 9.86591 25.2334C9.70257 25.2695 9.54146 25.1667 9.50535 25.0033C9.46923 24.84 9.57201 24.6789 9.73535 24.6422C9.89869 24.6056 10.0598 24.7094 10.0959 24.8722ZM8.3781 25.0245C8.40032 25.1245 8.33699 25.2234 8.23754 25.2456C8.13754 25.2678 8.03865 25.2045 8.01698 25.105C7.99531 25.0056 8.05809 24.9061 8.15754 24.8839C8.25754 24.8617 8.35588 24.9245 8.3781 25.0245ZM14.2466 28.4223C13.9632 28.5095 13.6621 28.3506 13.5749 28.0667C13.4877 27.7829 13.6465 27.4823 13.9304 27.3951C14.2143 27.3078 14.5149 27.4667 14.6021 27.7506C14.6893 28.0345 14.5299 28.3351 14.2466 28.4223ZM12.9004 27.9962C12.9688 28.2179 12.8443 28.4529 12.6226 28.5212C12.401 28.5895 12.166 28.4651 12.0976 28.2434C12.0293 28.0217 12.1537 27.7867 12.3754 27.7184C12.5971 27.6501 12.8321 27.7745 12.9004 27.9962ZM10.6204 28.419C10.5709 28.2595 10.6609 28.0901 10.8204 28.0406C10.9798 27.9912 11.1493 28.0812 11.1987 28.2406C11.2482 28.4006 11.1582 28.5695 10.9987 28.619C10.8393 28.6684 10.6698 28.579 10.6204 28.419ZM9.49757 28.4862C9.52757 28.584 9.47257 28.6873 9.37479 28.7179C9.27701 28.7479 9.17367 28.6929 9.14312 28.5951C9.11312 28.4973 9.16756 28.394 9.26534 28.3634C9.36368 28.334 9.46757 28.3884 9.49757 28.4862ZM15.3555 31.5263C15.0882 31.6557 14.7671 31.5446 14.6371 31.2774C14.5077 31.0101 14.6188 30.689 14.886 30.559C15.1532 30.429 15.4744 30.5407 15.6044 30.8079C15.7344 31.0751 15.6227 31.3968 15.3555 31.5263ZM14.1388 31.2257C14.2399 31.4346 14.1532 31.6857 13.9443 31.7868C13.7354 31.8879 13.4843 31.8013 13.3832 31.5924C13.2821 31.3835 13.3688 31.1324 13.5777 31.0313C13.7866 30.9301 14.0377 31.0168 14.1388 31.2257ZM12.6737 31.6429C12.7465 31.7935 12.6843 31.9741 12.5337 32.0474C12.3832 32.1202 12.2026 32.0574 12.1293 31.9074C12.0565 31.7568 12.1187 31.5763 12.2693 31.5029C12.4193 31.4296 12.6004 31.4924 12.6737 31.6429ZM11.2082 32.0602C11.2526 32.1524 11.2143 32.2629 11.1226 32.3074C11.0304 32.3518 10.9198 32.3135 10.8754 32.2218C10.8309 32.1296 10.8693 32.0191 10.9609 31.9746C11.0526 31.9296 11.1637 31.9679 11.2082 32.0602ZM16.3577 34.7524C16.2766 34.4669 16.4427 34.1697 16.7283 34.0891C17.0138 34.0085 17.3111 34.1741 17.3916 34.4597C17.4727 34.7452 17.3066 35.0425 17.0211 35.123C16.7361 35.2041 16.4388 35.038 16.3577 34.7524ZM15.4327 34.9075C15.3694 34.6841 15.4994 34.4519 15.7221 34.3891C15.9455 34.3258 16.1777 34.4558 16.2405 34.6786C16.3038 34.9019 16.1738 35.1341 15.951 35.1969C15.7283 35.2608 15.496 35.1308 15.4327 34.9075ZM15.0899 34.898C15.1355 35.0586 15.0421 35.2263 14.881 35.2713C14.7205 35.3169 14.5532 35.2236 14.5077 35.0625C14.4621 34.9019 14.5555 34.7341 14.7166 34.6891C14.8771 34.6436 15.0444 34.7369 15.0899 34.898ZM13.9388 35.1169C13.9666 35.2152 13.9093 35.3175 13.811 35.3458C13.7127 35.3736 13.6104 35.3163 13.5821 35.218C13.5543 35.1197 13.6115 35.0175 13.7099 34.9891C13.8088 34.9613 13.911 35.0186 13.9388 35.1169ZM17.0311 39.1403C16.8016 39.1737 16.5883 39.0142 16.5549 38.7848C16.5216 38.5553 16.6805 38.342 16.9105 38.3086C17.14 38.2753 17.3533 38.4347 17.3866 38.6642C17.42 38.8937 17.2605 39.107 17.0311 39.1403ZM15.6177 38.8164C15.5938 38.6509 15.7083 38.4975 15.8738 38.4736C16.0394 38.4497 16.1927 38.5642 16.2166 38.7298C16.2405 38.8953 16.126 39.0486 15.9605 39.0725C15.7949 39.0964 15.6416 38.982 15.6177 38.8164ZM15.0466 38.7953C15.061 38.8964 14.991 38.9903 14.8899 39.0053C14.7888 39.0198 14.6949 38.9498 14.6799 38.8486C14.6655 38.7475 14.7355 38.6536 14.8366 38.6386C14.9382 38.6242 15.0321 38.6942 15.0466 38.7953ZM17.545 41.6865C17.7766 41.6865 17.965 41.8743 17.965 42.1065C17.965 42.3387 17.7772 42.5265 17.545 42.5265C17.3127 42.5265 17.125 42.3387 17.125 42.1065C17.125 41.8748 17.3127 41.6865 17.545 41.6865ZM16.1922 42.0043C16.1922 41.837 16.3277 41.7015 16.4949 41.7015C16.6622 41.7015 16.7977 41.837 16.7977 42.0043C16.7977 42.1715 16.6622 42.3071 16.4949 42.3071C16.3277 42.3065 16.1922 42.1715 16.1922 42.0043ZM16.8438 45.1488C16.7661 45.3671 16.5255 45.481 16.3072 45.4032C16.0888 45.3255 15.9749 45.0849 16.0527 44.8666C16.1305 44.6482 16.3711 44.5343 16.5894 44.6121C16.8077 44.6899 16.9216 44.9304 16.8438 45.1488ZM15.2088 44.4565C15.2649 44.2993 15.4383 44.2171 15.5955 44.2732C15.7527 44.3293 15.8349 44.5027 15.7788 44.6599C15.7227 44.8171 15.5494 44.8993 15.3921 44.8432C15.2344 44.7871 15.1527 44.6143 15.2088 44.4565ZM13.8927 47.0883C14.0666 46.9344 14.3316 46.9505 14.4855 47.1244C14.6393 47.2983 14.6232 47.5633 14.4493 47.7172C14.2755 47.8711 14.0104 47.855 13.8566 47.6811C13.7027 47.5072 13.7188 47.2422 13.8927 47.0883ZM13.3254 46.7488C13.2149 46.6238 13.2265 46.4327 13.3515 46.3216C13.4765 46.211 13.6682 46.2227 13.7788 46.3477C13.8893 46.4727 13.8777 46.6638 13.7527 46.7749C13.6277 46.886 13.436 46.8744 13.3254 46.7488ZM11.3959 48.1683C11.3515 47.9405 11.5004 47.7199 11.7282 47.6755C11.956 47.6311 12.1765 47.7799 12.221 48.0072C12.2654 48.235 12.1165 48.4555 11.8887 48.5C11.6604 48.5444 11.4404 48.3961 11.3959 48.1683ZM11.4109 47.0955C11.3793 46.9316 11.4859 46.7727 11.6498 46.7405C11.8137 46.7083 11.9726 46.8155 12.0048 46.9794C12.0365 47.1433 11.9298 47.3022 11.7654 47.3344C11.6021 47.3666 11.4432 47.2599 11.4109 47.0955ZM8.44921 47.4361C8.52477 47.2166 8.76366 47.1005 8.98311 47.1755C9.20256 47.2505 9.31868 47.4899 9.24368 47.7094C9.16867 47.9288 8.92922 48.045 8.70977 47.97C8.48977 47.8944 8.3731 47.6555 8.44921 47.4361ZM8.99922 46.5155C9.05367 46.3577 9.2259 46.2733 9.38368 46.3277C9.54146 46.3821 9.62591 46.5544 9.57146 46.7122C9.51701 46.8699 9.34479 46.9544 9.18645 46.8999C9.02867 46.8455 8.94478 46.6733 8.99922 46.5155ZM13.871 3.67566C13.871 3.45677 14.0488 3.27898 14.2677 3.27898C14.4866 3.27898 14.6643 3.45677 14.6643 3.67566C14.6643 3.89455 14.4866 4.07233 14.2677 4.07233C14.0488 4.07178 13.871 3.89455 13.871 3.67566ZM12.7599 5.21291C12.7599 5.06513 12.8793 4.94569 13.0271 4.94569C13.1749 4.94569 13.2943 5.06513 13.2943 5.21291C13.2943 5.3607 13.1749 5.48014 13.0271 5.48014C12.8793 5.48014 12.7599 5.3607 12.7599 5.21291Z" fill="#248EA9"/>
</svg>
