<svg width="89" height="50" viewBox="0 0 89 50" fill="none" xmlns="http://www.w3.org/2000/svg">
<path d="M88.579 35.6016C87.1984 34.0237 83.3522 23.7673 83.5495 20.9073C83.6481 19.428 84.9301 14.6943 86.1136 10.4536C86.7053 8.1854 87.3956 6.01578 87.6915 4.53649C87.7901 4.14201 87.6915 3.74753 87.4942 3.45168C87.0998 2.85996 86.2122 2.85996 85.6205 3.35306C80.7881 7.88955 78.5199 12.426 77.0406 15.3846C76.0544 17.357 75.3641 18.7377 74.5751 18.8363C74.4765 18.8363 74.2793 18.8363 74.1806 18.8363C73.6875 18.8363 73.3917 18.7377 72.8 18.5404C72.7013 18.5404 72.6027 18.4418 72.5041 18.4418C72.011 17.6529 71.9124 17.2584 71.9124 17.2584C71.9124 17.0611 71.7151 16.9625 71.6165 16.8639C71.5179 16.7653 71.2221 16.7653 71.1234 16.7653L69.3483 17.357C69.2497 17.357 69.2497 17.2584 69.151 17.2584C68.7566 16.568 68.9538 16.2722 68.9538 16.2722C69.0524 16.075 69.0524 15.7791 68.8552 15.5819C68.6579 15.3846 68.3621 15.286 68.1648 15.3846L66.4883 15.9763C66.4883 15.9763 66.3897 15.9763 66.3897 15.8777L66.1925 15.7791C65.3049 14.7929 65.5021 14.2998 65.5021 14.2998C65.6994 14.1026 65.6994 13.8067 65.6008 13.5108C65.2063 13.1164 64.9104 13.0178 64.6146 13.1164L62.3463 13.9053H62.2477L62.1491 13.8067C61.3601 13.0178 61.656 12.2288 61.656 12.1302C61.7546 11.9329 61.656 11.6371 61.5574 11.4398C61.3601 11.2426 61.1629 11.144 60.867 11.2426L58.5988 12.0316C57.1195 7.88955 58.3029 5.42406 58.8946 4.04339C59.1905 3.35306 59.3877 2.95858 59.0919 2.46548C58.9933 2.26824 58.6974 2.071 58.2043 2.071C56.0347 2.071 53.2733 5.22682 52.1885 7.49507C52.0899 7.59369 52.0899 7.69231 51.9913 7.88955C51.6954 8.6785 51.3009 9.46746 50.3148 9.86193C49.6244 9.66469 48.9341 9.56608 48.2437 9.36884C48.0465 9.1716 47.7506 8.97436 47.4548 8.77712C45.7783 7.39645 43.6086 5.71992 42.1293 5.1282C40.9459 4.73373 38.4804 3.94477 37.9873 3.84615C36.9025 3.5503 35.9163 3.25444 35.226 2.95858C35.1274 2.85996 34.8315 2.66272 34.5357 2.46548C34.3384 2.36686 34.2398 2.26824 34.1412 2.16962C33.3522 1.47929 32.6619 0.788954 32.366 0.394477C32.1688 0.0986189 31.8729 0 31.4785 0C31.1826 0 30.7881 0.0986186 30.5909 0.295857C27.6323 3.0572 25.3641 6.70611 24.1806 9.1716C22.3069 9.46745 20.729 9.86193 19.3483 10.1578C11.7546 12.1302 3.76643 18.146 0.709231 20.6114C0.216134 21.0059 -0.0797237 21.5976 0.0188956 22.288C0.0188956 22.8797 0.413373 23.4714 0.90647 23.8659L1.69542 24.359C2.28714 24.6548 2.68162 25.0493 3.07609 25.2465L1.5968 25.1479H1.49819C1.00509 25.1479 0.511992 25.4438 0.314753 25.9369C0.117515 26.43 0.314753 27.0217 0.709231 27.3176C9.38773 34.0237 18.5593 38.0671 27.9282 39.4477C28.0268 39.645 28.1254 39.7436 28.224 40.0395C28.6185 40.7298 29.4075 41.8146 29.5061 42.3077C30.295 45.3649 31.6757 47.7318 36.1136 49.9014C36.2122 50 36.4094 50 36.6067 50C36.8039 50 37.0998 49.9014 37.1984 49.8028C37.4942 49.6055 37.6915 49.211 37.5929 48.8166C37.3956 47.7318 37.0998 45.6607 37.7901 43.787C38.1846 42.7022 38.1846 41.2229 37.8887 40.0395C43.7073 39.7436 49.4272 38.5602 55.1471 36.2919C56.6264 37.3767 59.3877 39.3491 61.4587 40.0395C62.6422 40.4339 63.4311 40.6312 63.9242 40.6312C64.3187 40.6312 64.5159 40.5325 64.7132 40.2367C65.1077 39.645 64.6146 39.0533 64.0228 38.2643C63.727 37.8698 63.3325 37.4753 63.1353 36.9823C62.7408 36.3905 62.4449 34.4181 62.3463 32.9389C62.6422 32.7416 62.938 32.643 63.3325 32.4458C63.9242 32.7416 64.4173 33.0375 65.009 33.2347C65.3049 33.3333 65.6994 33.1361 65.798 32.8402C65.8966 32.643 65.798 32.3471 65.6994 32.1499C65.6007 32.0513 65.5021 31.7554 65.4035 31.2623C65.8966 30.9665 66.3897 30.6706 66.8828 30.3748C67.3759 30.6706 67.869 30.8678 68.3621 30.9665C68.5593 31.0651 68.8552 30.9665 69.0524 30.7692C69.2497 30.572 69.2497 30.3748 69.151 30.0789C69.151 30.0789 68.9538 29.5858 68.8552 28.9941C69.2497 28.6982 69.6441 28.501 69.94 28.2051C70.4331 28.501 70.9262 28.6982 71.4193 28.7968C71.7151 28.8955 71.9124 28.7968 72.1096 28.5996C72.3069 28.4024 72.3069 28.1065 72.2082 27.9093C72.2082 27.9093 72.011 27.5148 71.9124 26.8245C72.1096 26.7258 72.2082 26.5286 72.4055 26.43C72.7013 26.2327 72.8986 26.0355 73.0958 25.9369C73.6875 25.4438 74.2793 25.2465 74.871 25.2465C75.9558 25.2465 76.5475 26.2327 76.5475 26.3314C80.4923 32.643 86.9025 36.8836 88.086 36.8836C88.3818 36.8836 88.6777 36.6864 88.7763 36.4892C89.0722 36.0947 88.6777 35.7002 88.579 35.6016ZM53.3719 8.48126C53.3719 8.38264 53.4706 8.28402 53.4706 8.1854C54.3581 6.21302 56.3305 4.14201 57.7112 3.64891C57.0209 5.02958 55.8374 7.69231 57.1195 11.9329C55.5416 11.3412 53.865 10.8481 52.1885 10.4536C52.7802 9.76331 53.0761 8.97436 53.3719 8.48126ZM41.6362 7.49507C41.8335 7.19921 42.0307 6.90335 42.228 6.70611C43.2142 7.19921 44.4962 8.1854 45.6796 9.07298C44.1017 8.87574 42.5238 8.6785 40.9459 8.48126C41.1432 8.08678 41.3404 7.79093 41.6362 7.49507ZM40.5514 6.70611C40.0583 7.29783 39.6639 7.88955 39.368 8.38264C38.1846 8.28402 37.0998 8.28402 35.9163 8.28402C36.3108 7.69231 36.9025 7.00197 37.3956 6.31164C37.6915 5.91716 37.8887 5.6213 38.1846 5.32544C39.0721 5.6213 40.157 5.91716 41.0445 6.21302C40.8473 6.31164 40.7487 6.50887 40.5514 6.70611ZM34.7329 4.14201C35.226 4.43787 36.0149 4.63511 36.8039 4.93097C36.7053 5.12821 36.508 5.32544 36.3108 5.52268C35.6205 6.50887 34.8315 7.49507 34.3384 8.28402C33.0564 8.28402 31.7743 8.38264 30.4923 8.48126C31.4785 7.00197 32.9577 5.02958 33.9439 3.64891C34.5357 3.94477 34.6343 4.04339 34.7329 4.14201ZM31.4785 1.28205C31.7743 1.67653 32.366 2.26824 32.9577 2.76134C31.6757 4.43787 29.8019 7.00197 28.9144 8.48126C27.8295 8.57988 26.8434 8.6785 25.8572 8.87574C26.7447 7.19921 28.6185 3.94477 31.4785 1.28205ZM36.7053 43.2939C36.0149 45.1677 36.1136 47.14 36.4094 48.4221C32.8591 46.5483 31.7743 44.6746 31.084 41.9132C30.9854 41.4201 30.4923 40.6312 29.9006 39.645C31.8729 39.8422 33.7467 40.0395 35.7191 40.0395C36.0149 40.0395 36.4094 40.0395 36.7053 40.0395C36.9025 40.8284 37.0011 42.3077 36.7053 43.2939ZM62.1491 37.7712C62.4449 38.2643 62.8394 38.7574 63.1353 39.1519C62.8394 39.0533 62.4449 38.9546 61.9518 38.7574C60.3739 38.2643 58.2043 36.785 56.6264 35.7002C58.1057 35.1085 59.585 34.4181 61.0643 33.6292C61.2615 35.0099 61.5574 36.8836 62.1491 37.7712ZM77.6323 25.7396C77.5337 25.5424 76.6461 24.0631 74.871 24.0631C74.082 24.0631 73.1944 24.359 72.4055 24.9507C72.2082 25.0493 72.011 25.2465 71.7151 25.4438C71.5179 25.641 71.2221 25.8383 70.9262 26.0355C70.729 26.1341 70.6303 26.43 70.6303 26.6272C70.6303 26.7258 70.6303 26.9231 70.729 27.0217C70.6303 26.9231 70.5317 26.9231 70.4331 26.8245C70.2359 26.7258 69.94 26.7258 69.7428 26.8245C69.2497 27.2189 68.658 27.6134 67.9676 28.0079C67.7704 28.1065 67.6718 28.4024 67.6718 28.6982C67.6718 28.7968 67.6718 28.8955 67.7704 29.0927C67.6718 28.9941 67.5731 28.9941 67.4745 28.8955C67.2773 28.7968 66.9814 28.7968 66.7842 28.8955C66.0938 29.3886 65.3049 29.783 64.6146 30.2761C64.4173 30.3748 64.2201 30.6706 64.3187 30.9665C64.3187 31.1637 64.3187 31.2623 64.4173 31.3609C64.3187 31.2623 64.1215 31.1637 64.0228 31.0651C63.8256 30.9665 63.5297 30.8678 63.3325 31.0651C54.1609 36.1933 44.8907 38.7574 35.6205 38.7574C23.9834 38.7574 12.6422 34.6154 1.89266 26.5286L5.1471 26.7258C5.44296 26.7258 5.6402 26.6272 5.73882 26.3314C5.83744 26.0355 5.83744 25.8383 5.6402 25.641C5.6402 25.641 4.654 24.6548 2.38576 23.2742L1.5968 22.7811C1.39957 22.6824 1.30095 22.4852 1.30095 22.288C1.30095 22.0907 1.39957 21.8935 1.49819 21.7949C4.45677 19.3294 12.2477 13.4122 19.6441 11.5385C23.0958 10.6509 28.6185 9.56608 35.4232 9.56608C43.1155 9.56608 50.7092 10.9467 57.8098 13.5108C57.9084 13.5108 57.9084 13.5108 58.0071 13.5108C58.1057 13.5108 58.1057 13.5108 58.2043 13.5108L60.1767 12.8205C60.2753 13.4122 60.4725 14.1026 61.1629 14.7929C61.2615 14.7929 61.2615 14.8915 61.3601 14.8915L61.5574 14.9901C61.656 14.9901 61.7546 15.0888 61.8532 15.0888C62.0504 15.1874 62.1491 15.1874 62.3463 15.0888L63.8256 14.5957C63.9242 15.0888 64.2201 15.7791 64.9104 16.568C65.009 16.6667 65.009 16.6667 65.1077 16.6667L65.4035 16.7653C65.5021 16.8639 65.6007 16.8639 65.798 16.9625C65.9952 17.0611 66.0938 17.0611 66.2911 16.9625L67.2773 16.6667C67.3759 17.0611 67.4745 17.4556 67.869 17.9487C67.9676 18.0473 68.0662 18.146 68.1648 18.146C68.3621 18.2446 68.5593 18.3432 68.7566 18.4418C68.9538 18.5404 69.0524 18.5404 69.2497 18.4418L70.729 17.9487C70.8276 18.2446 71.0248 18.5404 71.3207 19.0335C71.4193 19.1321 71.5179 19.2308 71.7151 19.3294C71.9124 19.428 72.1096 19.428 72.2082 19.5266C72.8 19.7239 73.2931 19.9211 73.9834 19.9211C74.1806 19.9211 74.3779 19.9211 74.5751 19.9211C76.0544 19.7239 76.8434 18.146 78.0268 15.6805C79.4075 12.8205 81.5771 8.57988 86.2122 4.14201C85.8177 5.6213 85.3246 7.59369 84.7329 9.76331C83.4509 14.2998 82.1688 18.9349 82.0702 20.5128C81.8729 23.1755 84.7329 31.1637 86.508 34.714C84.437 33.5306 80.4923 30.2761 77.6323 25.7396Z" fill="#248EA9"/>
<path d="M22.0109 13.0177C21.7151 12.8205 21.3206 13.0177 21.1233 13.3136C20.9261 13.6095 21.1233 14.0039 21.4192 14.2012C21.6164 14.2998 26.2515 16.568 26.4488 23.57C26.7446 32.2485 21.6164 35.1085 21.4192 35.2071C21.1233 35.4043 20.9261 35.7988 21.1233 36.0947C21.222 36.2919 21.4192 36.4891 21.7151 36.4891C21.8137 36.4891 21.9123 36.4891 22.0109 36.3905C22.3068 36.2919 28.0267 33.1361 27.7308 23.57C27.6322 15.6805 22.3068 13.1164 22.0109 13.0177Z" fill="#248EA9"/>
<path d="M12.5435 17.4556C10.5711 17.4556 8.99316 19.0335 8.99316 21.0059C8.99316 22.9782 10.5711 24.5562 12.5435 24.5562C14.5158 24.5562 16.0938 22.9782 16.0938 21.0059C16.0938 19.0335 14.4172 17.4556 12.5435 17.4556ZM12.5435 23.1755C11.36 23.1755 10.3738 22.1893 10.3738 21.0059C10.3738 19.8224 11.36 18.8362 12.5435 18.8362C13.7269 18.8362 14.7131 19.8224 14.7131 21.0059C14.7131 22.1893 13.7269 23.1755 12.5435 23.1755Z" fill="#248EA9"/>
<path d="M45.7782 18.6391C35.7191 17.5543 29.4074 21.499 28.6185 21.9921C28.6185 21.9921 28.5199 21.9921 28.5199 22.0908C28.224 22.3866 28.1254 22.7811 28.224 23.1756C28.224 23.2742 28.3226 23.2742 28.3226 23.3728C28.3226 23.4714 28.4212 23.57 28.5199 23.57C29.9991 25.0493 36.2122 26.7259 38.7763 26.7259C38.8749 26.7259 39.0721 26.7259 39.1707 26.7259C40.2556 26.6272 42.1293 25.0493 42.721 24.5562C43.2141 24.0631 44.2989 22.5839 44.8907 21.7949C45.6796 20.6115 46.1727 19.7239 46.2713 19.7239C46.3699 19.5267 46.3699 19.3294 46.2713 19.1322C46.1727 18.9349 45.9755 18.6391 45.7782 18.6391ZM38.9735 25.3452C37.297 25.5424 33.7467 24.5562 31.4784 23.6687C35.1273 23.7673 38.4804 24.0631 40.7486 24.359C39.9597 24.9507 39.2694 25.3452 38.9735 25.3452ZM42.0307 23.2742C39.9597 22.8797 36.8039 22.5839 33.5494 22.4852C37.6915 21.9921 41.2417 21.8935 43.1155 21.9921C42.6224 22.4852 42.2279 22.9783 42.0307 23.2742ZM44.1017 20.6115C42.6224 20.5128 38.579 20.5128 33.7467 21.1046C35.9163 20.4142 38.8749 19.7239 42.5238 19.7239C43.2141 19.7239 43.9045 19.7239 44.6934 19.8225C44.4962 20.0198 44.2989 20.3156 44.1017 20.6115Z" fill="#248EA9"/>
<path d="M12.4449 22.2881C13.2074 22.2881 13.8255 21.6699 13.8255 20.9074C13.8255 20.1449 13.2074 19.5267 12.4449 19.5267C11.6824 19.5267 11.0642 20.1449 11.0642 20.9074C11.0642 21.6699 11.6824 22.2881 12.4449 22.2881Z" fill="#248EA9"/>
</svg>
