<svg width="106" height="50" viewBox="0 0 106 50" fill="none" xmlns="http://www.w3.org/2000/svg">
<path d="M105.55 6.21943L104.04 6.36828C103.402 6.43207 88.6562 8.07995 83.7657 20.3806L75.9303 17.6058L75.101 15.2881L67.6589 16.0855C59.9936 15.6708 51.3502 14.5439 50.0957 13.3744C48.1288 11.5246 46.5022 6.29386 48.3415 1.96683L49.1707 0L47.0976 0.520944C43.9639 1.32442 40.9855 2.64296 38.2841 4.42271C35.009 6.98245 32.6909 10.5701 31.7032 14.6077C22.053 14.3379 12.4611 16.1888 3.60408 20.0298C2.88114 20.2956 0.042526 21.3587 0 23.5488C0 25.303 1.69041 26.802 5.45397 28.2586C7.40606 29.6207 9.43665 30.8667 11.5352 31.9902C11.886 32.1603 20.3062 36.1046 28.9071 35.6687C31.8972 41.7419 36.9674 46.5404 43.1958 49.192L45.0989 50L44.6523 47.9375C44.0889 45.4284 42.8344 38.805 43.1958 35.7963C47.0163 35.7589 50.8303 35.4748 54.6141 34.9458L63.6934 38.3691L65.8197 32.7663C70.4585 31.6025 74.9981 30.0739 79.3961 28.1948C80.7438 28.2645 82.0859 28.4172 83.4148 28.6519C84.5418 30.4486 89.2196 37.3272 96.0982 39.2834L97.5547 39.6981L97.4591 38.1884C97.1165 34.17 95.699 30.3179 93.3553 27.0359C95.5879 24.3781 103.381 14.7246 105.156 7.60153L105.55 6.21943ZM13.6296 30.5975L17.9991 30.8952L9.3132 28.2479C7.36764 27.0572 6.65533 26.4937 6.64469 26.4937L6.35764 26.3343C5.17776 25.9237 4.05575 25.3627 3.01935 24.6651C5.20944 25.2498 8.84542 26.1854 13.3213 27.2167C19.4238 28.62 25.2073 30.3423 26.9934 30.8845C27.2574 31.8019 27.5734 32.7034 27.9396 33.5849C23.0227 33.5115 18.1652 32.4974 13.6296 30.5975ZM43.9081 33.7019C44.2257 32.9203 44.7725 32.2531 45.4766 31.7882C46.1806 31.3232 47.0089 31.0823 47.8524 31.0972C55.4708 30.8756 63.0634 30.1082 70.572 28.8008C71.4438 28.6307 72.2943 28.5137 73.1235 28.418C63.7155 31.6743 53.8607 33.4566 43.9081 33.7019ZM62.4708 35.6794L58.8667 34.3185C60.3019 34.0634 61.801 33.7657 63.3425 33.4148L62.4708 35.6794ZM91.1758 26.4087L90.5592 27.1104L91.1758 27.812C93.2644 30.3869 94.636 33.4675 95.152 36.7425C89.0921 34.1165 85.0946 27.2911 85.0521 27.1741L84.8182 26.7701L84.3717 26.6638C79.6907 25.7625 74.8808 25.7625 70.1999 26.6638C62.8597 27.9452 55.4381 28.7055 47.9906 28.939C44.9181 28.7582 42.4304 30.7995 41.3353 34.4142C40.538 37.0189 41.5267 43.0364 42.1646 46.3002C38.9699 44.5706 36.152 42.2215 33.8756 39.3903C31.5993 36.559 29.9102 33.3024 28.9071 29.8108L28.7689 29.2154L28.4924 29.1303L29.2367 27.5462L29.3642 27.2698V27.1635L28.6413 22.0285L27.9609 26.8658L26.5575 28.5243L25.909 28.333L26.7064 26.8339L26.8446 26.5788V26.4618L26.2173 22.0285L25.6326 26.1748L24.006 27.7376L23.3043 27.5356L23.9209 26.4406L24.0804 26.1642V26.0366L23.4212 21.4544L22.8046 25.707L21.4119 27.0572C19.1367 26.4406 16.5001 25.7495 13.7784 25.1223C9.10057 24.0591 5.33702 23.0704 3.22135 22.5069C3.59385 22.2938 3.98536 22.1159 4.39081 21.9753C13.2491 18.1572 22.8517 16.377 32.4899 16.7659L33.5531 16.8509L33.6487 15.7878C33.9145 12.694 36.6043 8.26069 39.5173 6.10249C41.4239 4.8143 43.5084 3.81144 45.7049 3.12566C44.7055 7.63343 46.2258 12.694 48.5966 14.8947C50.9675 17.0955 64.8416 18.0842 67.5845 18.1905H67.6696L73.6445 17.5526L74.2611 19.2324L85.0627 23.0491L85.4029 21.986C88.5924 12.4176 98.6604 9.48331 102.626 8.66468C99.9149 16.33 91.2715 26.313 91.1865 26.4193L91.1758 26.4087Z" fill="#248EA9"/>
<path d="M18.3301 25.29C18.9984 25.29 19.5401 24.2737 19.5401 23.02C19.5401 21.7663 18.9984 20.75 18.3301 20.75C17.6619 20.75 17.1201 21.7663 17.1201 23.02C17.1201 24.2737 17.6619 25.29 18.3301 25.29Z" fill="#248EA9"/>
</svg>
