<svg width="65" height="50" viewBox="0 0 65 50" fill="none" xmlns="http://www.w3.org/2000/svg">
<path d="M13.2795 19.5751C11.4857 19.5751 10.0264 21.0344 10.0264 22.8282C10.0264 23.3247 10.4285 23.7273 10.9255 23.7273C11.4224 23.7273 11.8246 23.3247 11.8246 22.8282C11.8246 22.0261 12.477 21.3733 13.2795 21.3733C14.082 21.3733 14.7344 22.0261 14.7344 22.8282C14.7344 23.3247 15.1366 23.7273 15.6335 23.7273C16.1305 23.7273 16.5326 23.3247 16.5326 22.8282C16.5326 21.0344 15.0733 19.5751 13.2795 19.5751Z" fill="#248EA9"/>
<path d="M64.737 15.7262V13.805C64.737 12.5068 63.6807 11.451 62.383 11.451H56.1129C52.0735 11.451 48.3708 13.3378 45.9996 16.5427C45.9623 16.5074 45.9259 16.4721 45.8881 16.4368L47.9014 13.6597C48.9367 12.2325 48.689 10.2428 47.3219 9.11717C44.636 6.89617 41.8877 5.05623 39.1535 3.6483C37.6784 2.88923 35.8969 3.31728 34.9179 4.66682L32.6986 7.7291L33.1521 4.2559C33.3795 2.52002 32.2276 0.890815 30.5294 0.547063C27.12 -0.142637 23.6228 -0.174686 20.3828 0.419747C19.0622 0.64672 17.7171 0.981253 16.3842 1.41369C15.155 1.81144 14.2541 2.89362 14.089 4.17117L13.3686 9.70353C8.0165 12.6142 3.57143 16.9282 0.767409 20.0782C-0.204581 21.1643 -0.258141 22.7882 0.640971 23.9407C0.978138 24.3727 1.24857 24.73 1.4435 24.9943C1.2477 25.2586 0.978138 25.6164 0.640093 26.0493C-0.254629 27.1964 -0.206337 28.8186 0.75336 29.9039C0.922822 30.0966 1.10019 30.2893 1.31004 30.5172C1.47686 30.706 1.64984 30.8947 1.84037 31.0949C1.84696 31.1034 1.85662 31.1104 1.86364 31.1188C1.86847 31.1236 1.87198 31.1279 1.87637 31.1327C1.91237 31.1775 1.95276 31.2192 1.99666 31.2569C2.01598 31.2793 2.03793 31.3035 2.05286 31.3193C2.22759 31.5019 2.39529 31.6775 2.55597 31.8373C2.79129 32.0889 3.03451 32.3325 3.28475 32.5749L3.75099 33.0411C3.76416 33.0547 3.80455 33.0898 3.81947 33.1026L3.82825 33.1106C3.85635 33.138 3.8805 33.1627 3.90903 33.1904L4.72649 33.9631C4.802 34.0258 4.87049 34.0882 4.99605 34.2098C5.08209 34.2822 5.16814 34.3617 5.25419 34.4477C5.26473 34.4587 5.37272 34.5496 5.38414 34.5597C5.97945 35.097 6.60549 35.6326 7.25085 36.1551L7.4247 36.2956C7.53358 36.3842 7.64334 36.4738 7.75397 36.559C7.79172 36.591 7.83211 36.6226 7.87514 36.6529C8.15611 36.8773 8.43884 37.0941 8.72684 37.3053C9.02361 37.527 9.32829 37.7496 9.63385 37.9643C9.93414 38.1754 10.2423 38.3866 10.5786 38.6153L11.0176 38.9029C11.1801 39.014 11.3495 39.1167 11.5287 39.2243C11.8448 39.4187 12.1688 39.6132 12.5068 39.8161C12.6973 39.9254 12.8905 40.0317 13.0828 40.1395L13.2909 42.5064C13.5921 45.9193 16.0734 48.69 19.4653 49.4012C19.7682 49.4648 20.0702 49.5232 20.3661 49.5755C21.9088 49.8573 23.5025 50 25.1154 50C25.7002 49.9996 26.2639 49.7506 26.6608 49.3173C27.0612 48.8796 27.2605 48.2891 27.2087 47.6982V47.6978L26.8333 43.4683C27.541 43.4106 28.2549 43.3165 28.9744 43.182L31.3961 47.531C31.7859 48.2308 32.5243 48.6412 33.2979 48.6412C33.5262 48.6412 33.7562 48.6057 33.9819 48.5319C34.6044 48.3282 35.2313 48.0999 35.8398 47.8558C39.6997 46.3359 43.5569 43.9942 47.3123 40.8899C48.1183 40.2257 48.3334 39.0803 47.8251 38.1658L45.4824 33.9522C45.6611 33.7867 45.8394 33.6209 46.0128 33.4565C46.3737 33.9414 46.76 34.4122 47.1964 34.849C49.5715 37.2329 52.7386 38.5455 56.1129 38.5455H62.383C63.6807 38.5455 64.737 37.4897 64.737 36.1915V34.2704C64.737 30.5145 62.8141 27.0314 59.7243 24.9956C62.8141 22.9665 64.737 19.4851 64.737 15.7262ZM36.3737 5.72267C36.8197 5.10672 37.6617 4.90258 38.3299 5.24721C40.95 6.59588 43.5894 8.36425 46.1945 10.5185C46.8136 11.0282 46.9242 11.9445 46.4457 12.6043L44.557 15.2094C44.4876 15.1478 44.4222 15.0925 44.3537 15.0325C44.2681 14.9573 44.1821 14.8826 44.0978 14.8098C43.7984 14.5509 43.5051 14.3011 43.2224 14.0689C42.8356 13.7488 42.4479 13.4398 42.0603 13.139C41.936 13.0428 41.8118 12.9525 41.6876 12.8582C41.4241 12.6587 41.1612 12.46 40.8978 12.2694C40.745 12.1587 40.5918 12.0536 40.4385 11.9459C40.2032 11.7805 39.9679 11.6156 39.7322 11.4573C39.5684 11.3474 39.4051 11.2421 39.2413 11.1357C39.0152 10.9887 38.7892 10.8433 38.5631 10.7031C38.3949 10.5987 38.2268 10.4976 38.0582 10.3969C37.8356 10.2638 37.6135 10.1334 37.3909 10.0069C37.2218 9.9108 37.0528 9.81652 36.8838 9.72417C36.6608 9.60245 36.4378 9.48474 36.2152 9.36955C36.0475 9.28295 35.8798 9.19674 35.7125 9.11387C35.4838 9.00077 35.2555 8.89332 35.0267 8.78724C34.8674 8.71321 34.708 8.63803 34.5487 8.56746C34.4894 8.54128 34.4301 8.51159 34.3709 8.48586L36.3737 5.72267ZM15.8714 4.40297C15.9487 3.81074 16.3667 3.30894 16.9383 3.12411C18.1903 2.71845 19.4521 2.40456 20.698 2.18987C22.1266 1.92778 23.6078 1.79476 25.1014 1.79476C26.7793 1.79476 28.4862 1.96773 30.1729 2.30929C30.9491 2.46646 31.4742 3.21938 31.3697 4.02278V4.02322L30.9465 7.25967C30.8864 7.24277 30.8262 7.23053 30.7656 7.21418C30.619 7.17461 30.4728 7.14037 30.3262 7.10382C30.0325 7.03018 29.7388 6.96026 29.4455 6.89896C29.3133 6.87142 29.1812 6.84711 29.0495 6.82203C28.7466 6.76435 28.445 6.71227 28.1434 6.66771C28.0139 6.64856 27.8843 6.631 27.7548 6.61421C27.4554 6.57541 27.1573 6.54336 26.8597 6.51746C26.7275 6.50588 26.5954 6.49446 26.4632 6.48546C26.1713 6.46554 25.8811 6.45352 25.5913 6.44601C25.457 6.44249 25.3227 6.43739 25.1888 6.43651C24.9016 6.4347 24.6167 6.44206 24.3318 6.45243C24.1996 6.4572 24.0671 6.45879 23.9354 6.46615C23.639 6.48288 23.3458 6.51021 23.0529 6.54018C22.9383 6.55186 22.8224 6.55872 22.7087 6.57244C22.3053 6.62101 21.9049 6.68028 21.5093 6.75392C20.9329 6.85281 20.3525 6.98326 19.7699 7.1317C19.5834 7.17928 19.3959 7.23701 19.2084 7.28964C18.8059 7.40285 18.4028 7.52462 17.9981 7.66099C17.7847 7.73283 17.5718 7.80861 17.358 7.88681C16.9607 8.03229 16.5625 8.19062 16.1638 8.3581C15.9645 8.44195 15.7652 8.52219 15.5654 8.61147C15.4803 8.64966 15.3951 8.68067 15.3095 8.71985L15.8714 4.40297ZM13.4182 38.2659C13.0995 38.0749 12.7807 37.8831 12.4471 37.678C12.3066 37.5937 12.1661 37.5099 12.0151 37.4072L11.5664 37.1135C11.2644 36.9062 10.9614 36.6995 10.6682 36.4931C10.3784 36.2894 10.0878 36.0774 9.79629 35.8592C9.51005 35.6502 9.23873 35.4408 8.92439 35.1932C8.91561 35.1866 8.85591 35.137 8.84713 35.1308C8.74967 35.0562 8.65484 34.9789 8.56176 34.9026L8.3765 34.7528C7.76187 34.255 7.16041 33.7409 6.5651 33.2C6.56291 33.1977 6.55983 33.1959 6.55764 33.1936C6.54622 33.1827 6.53437 33.1706 6.52822 33.1654L5.18746 31.9244L5.14707 31.886C4.94249 31.6894 4.7458 31.4927 4.54649 31.2938C4.30942 31.0638 4.08552 30.8412 3.84845 30.5874C3.67547 30.4149 3.51743 30.2494 3.33392 30.0567L3.33216 30.0579C3.31855 30.0422 3.30406 30.0268 3.28958 30.0117C3.27289 29.9917 3.25709 29.9714 3.23821 29.953C3.23119 29.946 3.22328 29.9386 3.21626 29.9315C3.21363 29.9293 3.21187 29.9276 3.21011 29.9254C3.01782 29.7256 2.83431 29.5259 2.6069 29.2712C2.43305 29.0825 2.26534 28.9003 2.10291 28.715C1.71394 28.2755 1.6955 27.6197 2.05725 27.156C2.85539 26.1345 3.29177 25.5084 3.29177 25.5084C3.50689 25.1998 3.50689 24.7893 3.29177 24.4802C3.29177 24.4802 2.85539 23.8537 2.05725 22.8339C1.6955 22.369 1.71657 21.7144 2.10905 21.2758C2.45149 20.8915 2.81939 20.4886 3.21011 20.0733C3.30538 19.9721 3.41382 19.8645 3.51172 19.7618C3.81596 19.443 4.1224 19.1228 4.45298 18.7927C4.58907 18.6567 4.73966 18.5166 4.88014 18.3793C5.18878 18.0772 5.49609 17.7751 5.82448 17.4688C6.00008 17.3052 6.19018 17.1409 6.37106 16.9767C6.6832 16.6936 6.99227 16.4104 7.32022 16.1277C7.527 15.9495 7.74738 15.7744 7.96031 15.5972C8.27991 15.3308 8.59645 15.0636 8.92922 14.8014C9.1663 14.6148 9.4161 14.435 9.65931 14.2513C9.71463 14.2098 9.77039 14.169 9.8257 14.1276C10.0979 13.9243 10.3644 13.7177 10.644 13.5194C10.9066 13.3333 11.1805 13.1575 11.4496 12.9767C11.7829 12.7523 12.1139 12.5254 12.4567 12.3108C12.7412 12.1328 13.0358 11.9686 13.3264 11.7984C13.6131 11.6303 13.8994 11.4614 14.1918 11.3018C16.5273 12.5866 18.5038 14.4585 19.9236 16.7381C21.461 19.2208 22.2732 22.0757 22.2732 24.9943C22.2732 27.9125 21.461 30.7674 19.9254 33.2483C18.5042 35.528 16.5269 37.4043 14.1847 38.6977C13.9231 38.554 13.6636 38.4071 13.4182 38.2659ZM25.3341 48.1034C25.2928 48.1482 25.2217 48.2018 25.1014 48.2018C23.6105 48.2018 22.1257 48.0688 20.6831 47.8053C20.4004 47.7557 20.1176 47.7009 19.834 47.6416C17.2227 47.0937 15.313 44.9666 15.0821 42.3483L14.9741 41.1226C15.1168 41.1899 15.2581 41.2438 15.4004 41.3083C15.6331 41.4139 15.8653 41.5141 16.098 41.6124C16.4839 41.7756 16.8685 41.9272 17.2522 42.0697C17.4787 42.1536 17.7048 42.2385 17.93 42.3152C18.3392 42.4546 18.7457 42.5764 19.1514 42.6916C19.3432 42.7461 19.5359 42.8079 19.7265 42.8569C20.3192 43.0092 20.9079 43.1412 21.49 43.2409C21.4913 43.2411 21.4927 43.2411 21.4935 43.2413C21.4962 43.2418 21.4988 43.2426 21.5014 43.243C21.5054 43.2437 21.5093 43.2434 21.5128 43.244C22.0919 43.3502 22.6784 43.4307 23.2694 43.4848C23.4485 43.5012 23.6289 43.4989 23.8085 43.5105C24.2176 43.5369 24.6264 43.5679 25.0364 43.5692L25.4175 47.8563C25.428 47.9796 25.3701 48.0639 25.3341 48.1034ZM25.7986 41.7486C25.0909 41.7944 24.3643 41.776 23.6364 41.7145C24.5662 40.7696 25.428 39.7529 26.1972 38.6632C26.2156 38.6382 26.2314 38.6118 26.2472 38.585C29.0315 34.5768 30.5022 29.8793 30.5022 24.9943C30.5022 21.8549 29.9008 18.8028 28.7136 15.9211C27.5419 13.0876 25.8051 10.4865 23.6539 8.29346C25.2801 8.16619 26.9545 8.25801 28.6561 8.57739C28.7562 8.59621 28.8559 8.60856 28.956 8.62892C28.9915 8.63617 29.0275 8.64665 29.0635 8.65406C29.8463 8.81715 30.6344 9.02475 31.4259 9.28356C31.7973 9.4028 32.1718 9.53978 32.5555 9.69201C33.7633 11.7275 34.7273 13.9062 35.4219 16.1744C35.4271 16.1959 35.4333 16.2179 35.4394 16.2394C36.3034 19.0557 36.7416 22.0015 36.7416 24.9943C36.7416 27.6311 36.4 30.241 35.7265 32.7531C35.0298 35.3753 33.9613 37.9124 32.5498 40.2993C32.199 40.433 31.8566 40.5505 31.5155 40.6646C31.3276 40.7275 31.134 40.8024 30.9483 40.8594C30.3784 41.0346 29.8169 41.1859 29.258 41.3096C28.0999 41.5634 26.9462 41.7109 25.7986 41.7486ZM46.2534 39.0394V39.0399C46.3403 39.1957 46.3043 39.3902 46.1585 39.5096C42.5577 42.4875 38.8638 44.7326 35.176 46.1845C34.5974 46.4167 34.0082 46.6314 33.4226 46.8228C33.2461 46.8812 33.0547 46.8136 32.9669 46.656L30.8069 42.7764C30.9671 42.7321 31.1309 42.6757 31.292 42.6275C31.4448 42.5818 31.5998 42.535 31.7539 42.4858C32.311 42.3077 32.8734 42.1138 33.4511 41.8869C33.463 41.8824 33.4735 41.8796 33.4849 41.8751C33.4858 41.8747 33.4867 41.874 33.4875 41.8736C34.294 41.5556 35.104 41.1923 35.9149 40.7845C38.3506 39.5596 40.7985 37.9333 43.2206 35.9294C43.5209 35.6818 43.8177 35.4329 44.1083 35.1822L46.2534 39.0394ZM45.5097 31.44C45.0865 31.8633 44.6356 32.287 44.1759 32.7115C44.2088 32.5483 44.2484 32.3862 44.2787 32.2228C44.7379 29.8556 44.9706 27.4234 44.9706 24.9943C44.9706 22.6693 44.7598 20.3455 44.3445 18.0877C44.2962 17.824 44.2334 17.5579 44.179 17.2929C44.6426 17.7143 45.0886 18.1356 45.5167 18.564C46.4167 19.4429 47.307 20.3833 48.3159 21.5204C50.0562 23.5003 50.057 26.4852 48.3176 28.4652C47.3167 29.5944 46.4255 30.5378 45.5097 31.44ZM57.5002 24.1764C57.1797 24.3226 56.9742 24.6418 56.9742 24.9934C56.9742 25.3451 57.1788 25.6647 57.4984 25.8113C60.8034 27.3281 62.9388 30.6485 62.9388 34.2704V36.1915C62.9388 36.498 62.6894 36.7473 62.383 36.7473H56.1129C53.2197 36.7473 50.5057 35.6221 48.4687 33.5785C48.0349 33.1443 47.6433 32.6807 47.2991 32.1947C47.3246 32.1689 47.3505 32.1403 47.3759 32.1144C47.7017 31.7839 48.0296 31.4413 48.362 31.0864C48.4349 31.0086 48.5104 30.9268 48.5837 30.8475C48.6293 30.7984 48.6741 30.7503 48.7202 30.7006C49.9082 31.894 51.3188 32.8623 52.8747 33.4981C52.9853 33.5433 53.1012 33.5653 53.2145 33.5653C53.5683 33.5653 53.9046 33.3541 54.0468 33.006C54.2347 32.5463 54.0144 32.0213 53.5543 31.8334C52.1845 31.2735 50.9456 30.4125 49.9108 29.3497C51.9119 26.8018 51.9128 23.1906 49.9108 20.6389C50.9456 19.576 52.1845 18.7151 53.5543 18.1553C54.0144 17.9674 54.2347 17.4423 54.0468 16.9826C53.8589 16.523 53.3295 16.303 52.8747 16.4905C51.3188 17.1264 49.9082 18.0947 48.7198 19.2882C48.6684 19.2324 48.6179 19.1786 48.567 19.1237C48.5011 19.053 48.4335 18.9797 48.3686 18.9103C48.0244 18.5432 47.6863 18.1917 47.3535 17.8555C47.336 17.8381 47.3184 17.8184 47.3009 17.801C49.3265 14.9381 52.57 13.2492 56.1129 13.2492H62.383C62.6894 13.2492 62.9388 13.4986 62.9388 13.805V15.7262C62.9388 19.3507 60.8042 22.6679 57.5002 24.1764Z" fill="#248EA9"/>
</svg>
