<svg xmlns="http://www.w3.org/2000/svg" xmlns:xlink="http://www.w3.org/1999/xlink" version="1.1" x="0px" y="0px" viewBox="0 0 100 125" enable-background="new 0 0 100 100" xml:space="preserve"><g><path d="M96.688,51.311c0-7.666-8.901-14.55-22.699-17.57c-2.021-2.398-5.324-5.842-9.789-8.949   c-1.695-1.18-3.622-1.778-5.726-1.778c-4.782,0-9.488,2.991-12.925,5.176c-1.014,0.645-1.891,1.202-2.578,1.555   c-1.2,0.616-3.096,0.811-5.104,1.017c-4.093,0.42-9.187,0.943-9.516,5.874c-0.093,1.397-0.269,2.687-0.521,3.835   c-1.464,1.084-2.711,2.253-3.709,3.478c-1.282,0.744-3.34,1.76-6.014,2.494c-0.348,0.096-0.695,0.145-1.035,0.145   c-2.189,0-4.045-2.017-6.01-4.153c-1.398-1.521-2.844-3.093-4.535-4.063c-1.108-0.636-2.004-0.573-2.572,0.093   c-1.04,1.218-0.662,4.182,0.031,8.565c0.269,1.695,0.521,3.296,0.521,4.281s-0.253,2.587-0.521,4.281   c-0.693,4.384-1.07,7.349-0.031,8.565c0.568,0.667,1.464,0.729,2.572,0.093c1.691-0.97,3.138-2.542,4.537-4.063   c1.963-2.137,3.818-4.153,6.01-4.153c0.338,0,0.686,0.049,1.033,0.144c2.676,0.736,4.732,1.751,6.014,2.495   c5.133,6.301,16.546,10.727,29.898,11.609c1.357,4.259,3.625,6.704,6.395,6.704c1.129,0,2.318-0.412,3.535-1.223   c2.578-1.72,4.979-4.143,6.828-6.271C86.284,66.922,96.688,59.63,96.688,51.311z M37.999,32.031   c2.129-0.219,4.142-0.425,5.555-1.151c0.585-0.3,1.271-0.723,2.047-1.212c2.074,8.881,4.009,22.282,2.738,38.717   c-6.723-1.01-12.681-2.95-17.184-5.572c1.043-3.291,2.215-6.814,2.599-10.967c0.49-5.3-1.487-11.185-3.921-16.204   C30.741,32.786,34.42,32.399,37.999,32.031z M17.075,54.758c-2.751,0-4.885,2.321-6.949,4.565c-1.334,1.45-2.712,2.948-4.232,3.82   c-0.42,0.24-0.658,0.276-0.764,0.276c-0.095,0-0.146-0.023-0.204-0.091c-0.735-0.861-0.099-4.879,0.321-7.537   c0.277-1.746,0.538-3.396,0.538-4.481s-0.261-2.734-0.538-4.48c-0.42-2.658-1.057-6.677-0.321-7.538   c0.058-0.067,0.109-0.091,0.204-0.091c0.105,0,0.344,0.036,0.764,0.277c1.52,0.871,2.898,2.37,4.231,3.819   c2.063,2.244,4.198,4.565,6.949,4.565c0.452,0,0.914-0.064,1.372-0.19c0.524-0.144,1.018-0.3,1.496-0.461   c0.79,2.847,1.461,5.854,1.905,8.917c-0.993-0.419-2.126-0.831-3.401-1.181C17.988,54.822,17.526,54.758,17.075,54.758z    M63.243,74.702c-1.004,0.669-1.956,1.009-2.828,1.009c-2.647,0-4.425-3.066-5.418-6.649c-0.076-0.272-0.146-0.551-0.215-0.833   c-0.067-0.282-0.131-0.566-0.189-0.852c-0.066-0.331-0.129-0.665-0.186-1.006c-0.021-0.135-0.047-0.27-0.067-0.403   c-0.065-0.43-0.092-0.841-0.081-1.234c0.035-1.198,0.418-2.228,1.143-3.071c1.607-1.868,4.961-2.897,9.443-2.897   c1.23,0,2.529,0.078,3.861,0.231c2.955,0.341,4.787,1.132,5.303,2.288c0.115,0.262,0.156,0.536,0.149,0.808   c-0.036,0.833-0.533,1.639-0.804,2.019C73.307,64.182,68.573,71.147,63.243,74.702z M74.402,64.873   c0.449-0.632,1.065-1.72,1.038-2.909c-0.005-0.404-0.083-0.819-0.267-1.233c-0.718-1.614-2.845-2.635-6.321-3.036   c-1.18-0.137-2.328-0.203-3.438-0.223c-1.608-5.386-3.605-10.255-4.816-13.439c-1.835-4.832-3.377-13.46-4.308-19.518   c0.728-0.14,1.456-0.225,2.184-0.225c1.837,0,3.519,0.521,4.997,1.549c4.455,3.099,7.723,6.543,9.68,8.888l0.141,0.168l0.215,0.046   c0.918,0.197,1.811,0.414,2.682,0.645c-1.963,6.227-3.02,16.49,2.51,30.729c-2.062,0.65-4.273,1.208-6.621,1.653   C73.497,66.211,74.365,64.928,74.402,64.873z M84.508,64.042c-4.434-11.227-4.054-20.634-2.88-26.698   c8.578,3.348,13.785,8.458,13.785,13.967C95.413,56.216,91.333,60.758,84.508,64.042z"/><circle cx="85.258" cy="46.664" r="2.552"/></g><text x="0" y="115" fill="#000000" font-size="5px" font-weight="bold" font-family="'Helvetica Neue', Helvetica, Arial-Unicode, Arial, Sans-serif">Created by Bakunetsu Kaito</text><text x="0" y="120" fill="#000000" font-size="5px" font-weight="bold" font-family="'Helvetica Neue', Helvetica, Arial-Unicode, Arial, Sans-serif">from the Noun Project</text></svg>