<svg xmlns="http://www.w3.org/2000/svg" xmlns:xlink="http://www.w3.org/1999/xlink" version="1.1" x="0px" y="0px" viewBox="0 0 100 125" enable-background="new 0 0 100 100" xml:space="preserve"><g><path d="M96.057,31.644l-0.207-0.528c-1.578-3.993-4.688-5.246-7.018-5.594c-4.35-0.649-9.256,1.397-11.105,3.718   c-2.371,2.976-4.514,3.759-5.15,3.937c-2.289-2.135-5.889-2.245-6.59-2.245c-0.068,0-0.113,0.001-0.119,0.001   c-1.236-0.055-2.352-0.081-3.41-0.081c-6.92,0-12.277,1.091-24.914,5.08C26.027,39.565,10.594,50.299,10.472,54.76   c-0.021,0.775,0.411,1.369,1.215,1.672c0.411,0.156,0.903,0.32,1.461,0.49c-0.991,0.621-1.899,0.721-2.921,0.822   c-1.481,0.148-3.162,0.316-5.254,2.266c-0.891,0.828-1.206,1.586-0.937,2.248c0.709,1.748,5.464,1.74,6.391,1.719   c0.179,0.004,0.358,0.006,0.536,0.006c7.687,0,14.944-3.891,15.963-4.459c2.959,0.313,6.146,0.512,9.428,0.512   c6.644,0,12.671-0.803,17.918-2.383c6.406-1.93,12.082-4.01,16.453-6.027c0.096,0.25,0.154,0.521,0.189,0.814   c0.002,0.029,0.01,0.055,0.012,0.082c0.004,0.047,0.002,0.094,0.006,0.141c0.135,2.268-1.41,5.697-3.893,10.314   c-0.109,0.201-0.244,0.457-0.395,0.748c-0.041,0.08-0.078,0.158-0.121,0.236c-0.08,0.16-0.166,0.33-0.254,0.508   c-0.086,0.18-0.174,0.357-0.258,0.535c-0.041,0.086-0.082,0.172-0.123,0.26c-0.08,0.174-0.16,0.344-0.24,0.518   c-0.08,0.176-0.158,0.355-0.238,0.537c-0.029,0.066-0.059,0.133-0.086,0.199c-1.139,2.639-2.168,5.848-1.281,7.33   c0.012,0.021,0.025,0.039,0.039,0.059c0.006,0.008,0.012,0.018,0.018,0.025c0.074,0.109,0.158,0.205,0.254,0.287   c0.004,0.006,0.008,0.014,0.014,0.018c0.01,0.008,0.021,0.014,0.031,0.021c0.049,0.039,0.1,0.074,0.15,0.105   c0.021,0.014,0.041,0.027,0.061,0.039c0.061,0.033,0.127,0.063,0.191,0.086c0.051,0.02,0.102,0.033,0.154,0.047   c0.021,0.008,0.041,0.012,0.063,0.016c0.061,0.014,0.119,0.025,0.184,0.031c0,0,0.002,0,0.004,0   c0.068,0.01,0.141,0.018,0.215,0.018c0.463,0,1.016-0.156,1.652-0.457c0.729-0.342,1.568-0.875,2.539-1.623   c6.715-5.166,10.691-9.717,12.469-18.957c0.615-3.201,0.57-5.223-0.152-6.472c-0.002-0.007-0.006-0.013-0.008-0.019   c-0.035-0.059-0.072-0.114-0.109-0.169c-0.016-0.021-0.029-0.045-0.043-0.065c-0.002-0.003-0.004-0.005-0.008-0.008   c-0.004-0.007-0.008-0.015-0.014-0.023c-0.014-0.019-0.031-0.032-0.043-0.05c-0.078-0.1-0.16-0.191-0.244-0.275   c-0.039-0.037-0.074-0.073-0.111-0.107c-0.082-0.074-0.168-0.141-0.256-0.203c-0.064-0.046-0.133-0.087-0.201-0.128   c-0.068-0.041-0.139-0.081-0.211-0.116c-0.063-0.032-0.125-0.062-0.191-0.09c-0.074-0.032-0.15-0.06-0.227-0.088   c-0.092-0.032-0.182-0.062-0.273-0.089c-0.088-0.025-0.176-0.048-0.262-0.07c-0.061-0.016-0.123-0.029-0.186-0.042   c-0.021-0.005-0.041-0.01-0.064-0.014c0.281-0.574,0.342-1.122,0.189-1.637c-0.201-0.67-0.75-1.236-1.662-1.721   c2.844-2.712,5.553-3.415,5.58-3.422c9.32-2.265,10.533-5.722,10.662-6.913c0.748-0.116,1.23-0.154,1.246-0.155L96.057,31.644z    M10.429,63.143c-2.114,0.045-5.255-0.297-5.62-1.199c-0.165-0.406,0.389-1.004,0.732-1.324c1.887-1.758,3.352-1.904,4.769-2.045   c1.216-0.121,2.473-0.248,3.864-1.354c2.73,0.756,6.677,1.576,11.274,2.135C22.941,60.605,16.786,63.291,10.429,63.143z    M78.867,44.134c0.107,0.366,0.021,0.789-0.264,1.258c-0.184-0.022-0.369-0.044-0.557-0.065c-0.613-0.071-1.244-0.143-1.865-0.29   c-3.273-0.775-4.107-2.898-4.145-2.998c-0.08-0.216-0.32-0.327-0.535-0.249c-0.217,0.078-0.328,0.318-0.25,0.533   c0.039,0.108,0.994,2.639,4.736,3.524c0.67,0.159,1.326,0.234,1.963,0.307c0.289,0.033,0.566,0.065,0.836,0.105   c0.086,0.013,0.17,0.026,0.252,0.04c0.059,0.01,0.119,0.021,0.178,0.032c0.076,0.014,0.148,0.029,0.217,0.045   c0.07,0.016,0.135,0.033,0.201,0.051c0.057,0.015,0.117,0.029,0.172,0.045c0.117,0.036,0.229,0.076,0.336,0.12   c0.029,0.013,0.059,0.029,0.09,0.043c0.078,0.036,0.156,0.076,0.229,0.119c0.037,0.021,0.07,0.045,0.105,0.068   c0.064,0.043,0.125,0.089,0.186,0.139c0.031,0.027,0.064,0.055,0.094,0.083c0.064,0.061,0.123,0.127,0.18,0.199   c0.018,0.023,0.041,0.046,0.061,0.072c0.014,0.019,0.025,0.039,0.037,0.057c0.029,0.045,0.059,0.09,0.088,0.139   c0.014,0.024,0.025,0.051,0.039,0.076c0.023,0.047,0.049,0.093,0.072,0.144c0.014,0.032,0.025,0.066,0.037,0.099   c0.02,0.047,0.039,0.095,0.057,0.146c0.014,0.038,0.025,0.081,0.039,0.121c0.014,0.048,0.029,0.096,0.041,0.147   c0.012,0.047,0.021,0.096,0.033,0.144c0.01,0.05,0.023,0.097,0.031,0.148c0.014,0.055,0.02,0.114,0.029,0.171   c0.006,0.048,0.016,0.094,0.021,0.145c0.008,0.067,0.014,0.136,0.021,0.205c0.004,0.046,0.008,0.091,0.014,0.136   c0.004,0.077,0.008,0.157,0.012,0.236c0,0.044,0.004,0.087,0.006,0.132c0.002,0.085,0.002,0.175,0.002,0.266   c0,0.042,0.002,0.082,0,0.124c0,0.098-0.004,0.199-0.008,0.302c0,0.038-0.002,0.075-0.002,0.115   c-0.006,0.106-0.014,0.217-0.021,0.328c-0.002,0.039-0.004,0.075-0.006,0.114c-0.01,0.115-0.021,0.236-0.033,0.357   c-0.004,0.037-0.006,0.072-0.01,0.109c-0.016,0.141-0.031,0.283-0.051,0.43c-0.004,0.021-0.006,0.041-0.008,0.063   c-0.018,0.143-0.039,0.287-0.061,0.434c-0.004,0.029-0.008,0.057-0.012,0.088c-0.057,0.354-0.119,0.727-0.195,1.115   c-1.727,8.979-5.605,13.412-12.158,18.451c-0.16,0.125-0.314,0.24-0.465,0.348c-0.049,0.037-0.098,0.072-0.146,0.107   c-0.102,0.072-0.203,0.143-0.299,0.209c-0.053,0.035-0.107,0.074-0.158,0.109c-0.109,0.07-0.213,0.139-0.314,0.203   c-0.07,0.045-0.139,0.086-0.207,0.127c-0.041,0.025-0.08,0.049-0.121,0.072c-0.246,0.145-0.473,0.264-0.674,0.359   c-0.008,0.004-0.018,0.008-0.025,0.012c-0.209,0.098-0.395,0.17-0.559,0.225c-0.016,0.004-0.029,0.008-0.041,0.012   c-0.051,0.016-0.098,0.029-0.143,0.043c-0.043,0.01-0.082,0.021-0.121,0.027c-0.035,0.008-0.068,0.016-0.1,0.02   c-0.047,0.008-0.094,0.016-0.137,0.02c-0.008,0.002-0.016,0.002-0.023,0.004c-0.068,0.004-0.127,0.006-0.184,0.004   c-0.047-0.002-0.092-0.006-0.133-0.014c-0.033-0.004-0.064-0.01-0.092-0.018c-0.039-0.012-0.078-0.023-0.117-0.039   c-0.014-0.01-0.027-0.018-0.041-0.023c-0.037-0.023-0.072-0.047-0.105-0.076c-0.041-0.039-0.078-0.084-0.111-0.131   c-0.008-0.014-0.018-0.023-0.025-0.035c-0.115-0.193-0.186-0.471-0.207-0.822c0-0.012-0.002-0.021-0.002-0.033   c-0.004-0.1-0.004-0.209,0-0.322c0-0.033,0-0.064,0.002-0.096c0.004-0.1,0.016-0.207,0.025-0.314   c0.004-0.059,0.012-0.119,0.02-0.18c0.012-0.092,0.025-0.188,0.041-0.283c0.014-0.094,0.031-0.189,0.049-0.287   c0.014-0.078,0.031-0.156,0.049-0.236c0.027-0.133,0.059-0.27,0.096-0.41c0.012-0.059,0.025-0.115,0.041-0.172   c0.045-0.178,0.096-0.357,0.152-0.547c0.01-0.033,0.018-0.068,0.029-0.102c0.066-0.217,0.137-0.441,0.217-0.674   c0.004-0.014,0.008-0.029,0.014-0.043c0.262-0.764,0.596-1.609,1.004-2.531c0.002,0,0.002,0,0.002,0   c0.131-0.293,0.271-0.592,0.416-0.898c0.01-0.02,0.018-0.041,0.029-0.063c0.135-0.283,0.281-0.576,0.432-0.871   c0.021-0.045,0.041-0.086,0.063-0.129c0.174-0.338,0.354-0.686,0.543-1.037c0.195-0.367,0.387-0.725,0.572-1.076   c0.109-0.209,0.213-0.41,0.318-0.613c0.068-0.133,0.141-0.27,0.209-0.4c0.135-0.264,0.264-0.52,0.389-0.773   c0.029-0.061,0.063-0.123,0.094-0.184c0.143-0.287,0.275-0.568,0.406-0.842c0.01-0.023,0.023-0.045,0.033-0.066   c1.285-2.715,2.002-4.836,1.984-6.516c0-0.021-0.004-0.043-0.004-0.064c-0.002-0.162-0.01-0.32-0.027-0.475   c-0.01-0.09-0.029-0.176-0.043-0.266c-0.014-0.08-0.023-0.166-0.043-0.244c-0.039-0.174-0.088-0.344-0.15-0.508   c-0.063-0.172-0.143-0.332-0.229-0.488l-0.178-0.329l-0.018,0.007c-0.516-0.744-1.328-1.319-2.457-1.745   c-0.217-0.082-0.457,0.028-0.539,0.244c-0.08,0.215,0.027,0.456,0.242,0.536c0.9,0.339,1.549,0.777,1.977,1.326   c-4.326,1.994-9.939,4.048-16.279,5.958c-5.168,1.557-11.116,2.346-17.678,2.346c-10.892,0-20.73-2.176-24.373-3.547   c-0.613-0.232-0.684-0.586-0.675-0.869c0.102-3.773,14.584-14.3,26.488-18.057c12.542-3.958,17.843-5.042,24.663-5.042   c1.047,0,2.154,0.027,3.414,0.083l0.115-0.002c0.646,0,3.988,0.098,6.043,2.042c0.686,0.645,0.574,1.353,0.338,2.455   c-0.396,1.86-0.891,4.176,4.506,6.308C78.023,43.024,78.693,43.55,78.867,44.134z M88.041,32.863l0.377,0.743   c1.686-0.86,3.553-1.345,4.949-1.614c-0.275,1.1-1.789,3.959-9.98,5.951c-0.127,0.031-3.098,0.792-6.193,3.857   c-0.004-0.002-0.008-0.004-0.014-0.005c-4.74-1.874-4.363-3.646-3.996-5.358c0.176-0.819,0.367-1.723-0.063-2.556   c0.984-0.338,3.029-1.327,5.256-4.121c1.707-2.138,6.264-4.019,10.332-3.413c2.01,0.301,4.66,1.344,6.146,4.564   C93.625,31.056,90.66,31.526,88.041,32.863z"/><path d="M64.314,45.426c-0.258,0.24-0.537,0.499-0.85,0.76c-0.303,0.271-0.641,0.542-1,0.821c-0.352,0.291-0.742,0.567-1.143,0.862   c-0.807,0.584-1.721,1.16-2.701,1.736c-0.49,0.284-1.018,0.541-1.543,0.824c-0.539,0.25-1.092,0.508-1.652,0.77   c-0.576,0.227-1.16,0.457-1.754,0.689c-0.605,0.197-1.217,0.396-1.834,0.596c-0.629,0.164-1.261,0.328-1.897,0.494   c-0.626,0.145-1.306,0.271-1.959,0.408c-1.314,0.285-2.63,0.578-3.923,0.803c-1.296,0.232-2.56,0.516-3.802,0.717   c-1.241,0.205-2.432,0.451-3.572,0.633c-1.137,0.193-2.213,0.377-3.207,0.545c-3.983,0.66-6.638,1.102-6.638,1.102   s2.7-0.021,6.729-0.389c1.009-0.08,2.097-0.205,3.249-0.336c1.153-0.115,2.363-0.291,3.616-0.469   c1.251-0.17,2.547-0.383,3.858-0.615c1.318-0.217,2.632-0.494,3.949-0.766c0.662-0.148,1.304-0.273,1.98-0.438   c0.66-0.18,1.315-0.357,1.967-0.533c0.639-0.217,1.271-0.438,1.895-0.664c0.604-0.262,1.205-0.521,1.795-0.775   c0.572-0.295,1.143-0.564,1.682-0.865c0.527-0.322,1.057-0.616,1.547-0.937c0.482-0.336,0.971-0.633,1.406-0.974   c0.434-0.345,0.869-0.648,1.25-0.991c0.783-0.655,1.465-1.3,2.031-1.904c0.289-0.295,0.553-0.58,0.781-0.856   c0.236-0.267,0.441-0.525,0.625-0.757c0.371-0.462,0.627-0.851,0.805-1.113c0.174-0.266,0.258-0.411,0.258-0.411   s-0.418,0.531-1.248,1.359C64.807,44.96,64.576,45.19,64.314,45.426z"/><ellipse transform="matrix(0.2961 -0.9551 0.9551 0.2961 33.8442 103.1111)" cx="86.884" cy="28.592" rx="0.933" ry="1.868"/></g><text x="0" y="115" fill="#000000" font-size="5px" font-weight="bold" font-family="'Helvetica Neue', Helvetica, Arial-Unicode, Arial, Sans-serif">Created by Bakunetsu Kaito</text><text x="0" y="120" fill="#000000" font-size="5px" font-weight="bold" font-family="'Helvetica Neue', Helvetica, Arial-Unicode, Arial, Sans-serif">from the Noun Project</text></svg>