<svg xmlns="http://www.w3.org/2000/svg" xmlns:xlink="http://www.w3.org/1999/xlink" version="1.1" x="0px" y="0px" viewBox="0 0 100 125" enable-background="new 0 0 100 100" xml:space="preserve"><g><path d="M96.942,50.868c-0.913-0.257-3.403-0.565-4.313-0.673c0.038-0.115,0.078-0.225,0.117-0.329   c0.007-0.021,0.016-0.042,0.025-0.063c0.029-0.078,0.059-0.155,0.09-0.228c0.241-0.561,0.539-0.964,1.06-1.163   c0.446-0.169,2.682-1.188,2.579-1.953c-0.023-0.175-0.152-0.393-0.633-0.438c-0.069-0.007-0.144-0.016-0.221-0.028   c-1.149-0.17-2.828-0.82-3.005-0.889c-0.168-0.091-0.344-0.182-0.522-0.271c-0.011-0.006-0.022-0.011-0.033-0.017   c-0.17-0.084-0.346-0.168-0.524-0.25c-0.024-0.011-0.047-0.021-0.069-0.033c-0.171-0.078-0.349-0.155-0.527-0.231   c-0.033-0.015-0.065-0.028-0.1-0.043c-0.174-0.073-0.35-0.146-0.53-0.216c-0.04-0.017-0.083-0.034-0.125-0.051   c-0.175-0.068-0.351-0.135-0.531-0.203c-0.049-0.018-0.1-0.037-0.15-0.055c-0.175-0.064-0.353-0.128-0.531-0.192   c-0.058-0.02-0.116-0.039-0.173-0.06c-0.164-0.056-0.329-0.113-0.496-0.168c-0.078-0.026-0.155-0.051-0.234-0.077   c-0.136-0.045-0.273-0.089-0.41-0.132c-0.113-0.036-0.226-0.071-0.338-0.105c-0.118-0.037-0.237-0.073-0.357-0.109   c-0.136-0.041-0.274-0.083-0.412-0.122c-0.102-0.031-0.204-0.06-0.307-0.089c-0.172-0.05-0.343-0.098-0.517-0.146   c-0.073-0.021-0.147-0.042-0.222-0.062c-5.258-1.44-10.811-2.274-11.854-2.425c-0.614-1.511-2.185-5.033-4.631-8.198l-0.378-0.489   l-0.107,0.609c-0.007,0.037-0.688,3.711-3.573,4.607c-0.357,0.112-0.739,0.227-1.138,0.345c-2.862,0.858-6.412,1.921-7.771,3.781   c-0.205,0.035-0.412,0.071-0.622,0.109c-0.363,0.064-0.714,0.13-1.055,0.199c-0.637-0.146-2.141-0.608-3.542-1.91   c-2.046-1.902-5.284-3.124-9.626-3.628l-1.184-0.137l1.005,0.639c0.05,0.032,4.942,3.161,5.788,4.722   c0.465,0.859,0.107,1.792-0.3,2.45c-0.021,0.007-0.04,0.014-0.061,0.02c-0.224,0.077-0.449,0.155-0.676,0.235   c-0.067,0.023-0.138,0.047-0.204,0.072c-0.209,0.073-0.422,0.151-0.635,0.229c-0.063,0.023-0.128,0.046-0.191,0.069   c-0.408-0.264-1.016-0.593-1.756-0.802l-0.368-0.104l0.021,0.381c0,0.008,0.034,0.729-0.225,1.428   c-0.152,0.061-0.303,0.122-0.455,0.185c-0.406-0.274-1.101-0.676-1.895-0.852l-0.406-0.089l0.078,0.408   c0.002,0.008,0.151,0.816-0.092,1.485c-0.109,0.043-0.218,0.086-0.327,0.127c-0.317-0.187-0.951-0.512-1.788-0.685l-0.359-0.073   l0.032,0.367c0.001,0.007,0.054,0.665-0.235,1.262c-0.168,0.06-0.336,0.119-0.505,0.176c-0.379-0.268-1.13-0.731-1.899-0.811   l-0.311-0.033l0.009,0.311c0,0.008,0.017,0.738-0.276,1.352c-0.168,0.053-0.336,0.106-0.503,0.158   c-0.267-0.257-0.803-0.666-1.655-0.86l-0.334-0.076l-0.001,0.342c0,0.006-0.005,0.671-0.245,1.264   c-0.319,0.093-0.637,0.183-0.953,0.272c-0.301-0.307-0.839-0.736-1.613-0.914l-0.382-0.087l0.05,0.389   c0,0.006,0.071,0.589-0.149,1.18c-0.194,0.052-0.387,0.102-0.577,0.151c-0.252-0.296-0.702-0.705-1.386-0.91l-0.337-0.101   l-0.016,0.352c0,0.005-0.029,0.604-0.328,1.172c-0.376,0.091-0.742,0.178-1.097,0.261c-0.222-0.275-0.595-0.607-1.207-0.855   l-0.327-0.133l-0.047,0.35c-0.001,0.007-0.085,0.601-0.414,1.083c-0.353,0.076-0.684,0.145-0.994,0.207   c-0.254-0.294-0.722-0.718-1.475-0.998l-0.355-0.132L19.66,50.3c0,0.007-0.025,0.631-0.356,1.153c0,0-0.001,0-0.002,0   c-0.043,0.008-0.081,0.014-0.119,0.018c-0.055,0.008-0.109,0.016-0.152,0.021c-1.695,0.197-2.872-1.789-2.885-1.811   C11.544,41.889,3.5,38.923,3.419,38.894l-1.002-0.362l0.705,0.799c0.082,0.093,8.139,9.279,8.184,13.91   c0.044,4.651-6.186,14.478-6.249,14.575l-0.515,0.809l0.863-0.414c5.428-2.596,9.897-9.693,11.58-12.365   c0.035-0.057,0.07-0.111,0.104-0.164c0.234-0.371,0.404-0.639,0.498-0.762c0.049-0.064,0.108-0.123,0.172-0.182   c0.018-0.016,0.037-0.029,0.055-0.045c0.055-0.045,0.113-0.086,0.178-0.127c0.016-0.008,0.029-0.018,0.045-0.027   c0.08-0.047,0.168-0.09,0.263-0.129c0.015-0.006,0.03-0.012,0.045-0.016c0.099-0.039,0.204-0.076,0.317-0.105   c0.254,0.434,0.281,0.885,0.281,0.889l0.018,0.406l0.37-0.17c0.537-0.246,1.068-0.799,1.444-1.256c0.037,0,0.074,0,0.112,0.002   c0.236,0.004,0.478,0.012,0.724,0.02c0.043,0.002,0.085,0.004,0.129,0.004c0.322,0.527,0.383,1.203,0.384,1.209l0.022,0.268   l0.268-0.018c0.836-0.051,1.504-0.785,1.872-1.303c0.017,0.002,0.031,0.004,0.047,0.004c0.211,0.018,0.423,0.037,0.636,0.059   c0.045,0.004,0.089,0.008,0.133,0.012c0.214,0.482,0.236,1.096,0.236,1.102l0.01,0.328l0.32-0.068   c0.964-0.207,1.51-0.717,1.787-1.078c0.256,0.037,0.512,0.076,0.766,0.117c0.205,0.605,0.228,1.342,0.229,1.35l0.01,0.348   l0.334-0.09c0.852-0.23,1.446-0.732,1.818-1.156c0.094,0.021,0.189,0.041,0.283,0.064c0.146,0.033,0.313,0.072,0.492,0.113   c0.188,0.582,0.141,1.266,0.141,1.273l-0.027,0.357l0.352-0.068c0.877-0.166,1.517-0.611,1.926-0.994   c0.307,0.074,0.627,0.15,0.958,0.229c0.079,0.549,0.04,1.121,0.04,1.129l-0.027,0.389l0.375-0.107   c0.707-0.201,1.344-0.582,1.781-0.891c0.229,0.057,0.463,0.111,0.698,0.168c0.077,0.508,0.078,1.035,0.078,1.041l0.001,0.273h0.272   c0.797,0,1.446-0.404,1.88-0.783c0.004,0.002,0.009,0.002,0.014,0.004l0.125,0.031c0.015,0.557-0.096,1.059-0.097,1.064   l-0.081,0.363l0.371-0.031c0.875-0.072,1.657-0.535,2.1-0.854c0.312,0.074,0.623,0.148,0.934,0.221   c0.094,0.379,0.07,0.832-0.072,1.348c-0.685,2.48-4.783,5.602-4.824,5.633l-0.799,0.605l0.994-0.115   c4.029-0.463,6.899-2.947,8.613-4.432l0.287-0.248c0.648-0.559,1.379-1.002,2.174-1.322c0.008,0,0.015,0.002,0.021,0.004   c0.141,0.031,0.277,0.061,0.413,0.092c0.027,0.006,0.054,0.012,0.081,0.018c0.121,0.025,0.242,0.053,0.361,0.08   c0.035,0.006,0.069,0.014,0.104,0.021c0.111,0.023,0.221,0.047,0.326,0.07c0.039,0.008,0.076,0.018,0.114,0.025   c0.1,0.021,0.198,0.043,0.294,0.063c0.043,0.01,0.086,0.018,0.128,0.027c0.087,0.02,0.175,0.037,0.259,0.055   c0.049,0.01,0.095,0.02,0.143,0.029c0.075,0.016,0.151,0.031,0.224,0.047c0.062,0.012,0.118,0.023,0.177,0.035   c0.056,0.012,0.112,0.023,0.167,0.035c0.112,0.021,0.221,0.043,0.323,0.063c0.396,0.078,0.792,0.15,1.188,0.219   c0.133,0.023,0.266,0.047,0.397,0.068c0.268,0.045,0.535,0.088,0.803,0.129c0.152,0.023,0.305,0.047,0.456,0.07   c0.337,0.049,0.674,0.096,1.01,0.139c0.236,0.029,0.473,0.057,0.709,0.086c0.125,0.014,0.25,0.027,0.375,0.041   c0.263,0.029,0.526,0.057,0.788,0.082c0.001,0,0.001,0,0.002,0c0.598,0.059,1.188,0.104,1.775,0.141   c0.042,0.002,0.085,0.006,0.128,0.008c0.277,0.02,0.555,0.033,0.83,0.045c0.061,0.004,0.123,0.006,0.185,0.008   c0.479,0.02,0.952,0.033,1.419,0.039c0.095,0,0.19,0.002,0.284,0.002c0.088,0.002,0.178,0.006,0.264,0.006   c0.156,0,0.307-0.006,0.46-0.006c0.063-0.002,0.127-0.002,0.189-0.002c0.217-0.004,0.431-0.01,0.643-0.016   c0.109-0.004,0.217-0.008,0.325-0.012c0.176-0.008,0.351-0.014,0.523-0.023c0.159-0.008,0.315-0.02,0.471-0.029   c0.127-0.008,0.254-0.016,0.378-0.025c0.285-0.021,0.565-0.047,0.841-0.074c0.142-0.016,0.293-0.033,0.446-0.051   c0.073-0.008,0.148-0.018,0.226-0.027c0.079-0.01,0.157-0.018,0.24-0.029c0.094-0.012,0.188-0.023,0.285-0.035   c0.069-0.01,0.142-0.02,0.212-0.027c0.103-0.014,0.205-0.029,0.309-0.043c0.114-0.016,0.23-0.033,0.348-0.049   c0.061-0.008,0.118-0.016,0.181-0.025c-0.56,0.461-1.009,0.732-1.016,0.738l-0.176,0.105l0.055,0.199   c0.798,2.928,0.575,6.168,0.571,6.199l-0.028,0.4l0.382-0.117c3.115-0.961,3.713-3.758,3.886-6.088   c0.067-0.928,0.354-1.664,0.604-2.146c3.739-0.689,7.733-1.596,9.887-2.406c3.44-1.293,10.753-3.998,12.065-4.466   c0.961-0.343,1.982-1.149,1.958-1.859C97.578,51.365,97.485,51.02,96.942,50.868z M64.008,37.445   c0.398-0.12,0.782-0.235,1.142-0.346c2.496-0.777,3.483-3.303,3.811-4.457c2.07,2.801,3.45,5.79,4.089,7.319   c-2.131-0.251-5.857-0.233-10.834,0.056c-1.473,0.085-3.234,0.234-5.286,0.548C58.41,39.125,61.481,38.202,64.008,37.445z    M47.323,40.435c-0.668-1.233-3.449-3.229-4.973-4.26c3.631,0.562,6.365,1.678,8.137,3.326c0.989,0.92,2.027,1.447,2.816,1.744   c-1.826,0.404-3.828,0.937-6.006,1.65C47.625,42.176,47.788,41.292,47.323,40.435z M43.214,43.604   c0.347,0.122,0.648,0.268,0.906,0.413c-0.338,0.127-0.679,0.259-1.023,0.396C43.17,44.104,43.201,43.819,43.214,43.604z    M41.377,45.117c-0.061,0.024-0.119,0.048-0.179,0.074c-0.295,0.125-0.591,0.248-0.89,0.369c0.062-0.339,0.063-0.667,0.048-0.915   C40.746,44.772,41.097,44.951,41.377,45.117z M38.677,46.2c-0.334,0.126-0.67,0.25-1.008,0.372   c0.072-0.265,0.104-0.513,0.114-0.703C38.137,45.966,38.438,46.087,38.677,46.2z M35.841,47.212   c-0.387,0.13-0.773,0.258-1.16,0.383c0.092-0.313,0.132-0.61,0.148-0.826C35.204,46.862,35.563,47.045,35.841,47.212z    M32.897,48.157c-0.328,0.099-0.656,0.197-0.98,0.293c0.074-0.273,0.114-0.531,0.134-0.727   C32.42,47.844,32.696,48.008,32.897,48.157z M29.709,49.08c-0.29,0.08-0.577,0.158-0.862,0.233   c0.061-0.256,0.086-0.496,0.092-0.685C29.257,48.751,29.513,48.919,29.709,49.08z M26.42,49.354   c0.265,0.122,0.472,0.279,0.63,0.428c-0.271,0.067-0.537,0.134-0.799,0.198C26.335,49.747,26.39,49.527,26.42,49.354z    M23.377,50.19c0.211,0.111,0.374,0.233,0.501,0.352c-0.231,0.052-0.457,0.103-0.678,0.151   C23.281,50.509,23.338,50.333,23.377,50.19z M20.159,50.704c0.301,0.147,0.531,0.317,0.703,0.475   c-0.336,0.064-0.634,0.12-0.895,0.165C20.064,51.109,20.126,50.883,20.159,50.704z M19.419,54.727   c-0.038-0.158-0.104-0.348-0.198-0.543c0.445-0.055,0.8-0.035,0.833-0.033C19.864,54.354,19.646,54.564,19.419,54.727z    M22.626,55.051c-0.041-0.217-0.119-0.527-0.258-0.84c0.407,0.02,0.83,0.047,1.264,0.078C23.38,54.59,23.026,54.928,22.626,55.051z    M25.703,54.477c0.362,0.039,0.728,0.084,1.096,0.133c-0.211,0.199-0.515,0.41-0.945,0.551   C25.829,54.971,25.782,54.725,25.703,54.477z M28.97,55.787c-0.023-0.234-0.068-0.553-0.151-0.873   c0.39,0.066,0.776,0.141,1.161,0.219C29.725,55.375,29.392,55.621,28.97,55.787z M32.077,56.387   c-0.005-0.217-0.026-0.504-0.09-0.801c0.341,0.08,0.719,0.17,1.127,0.268C32.843,56.061,32.498,56.26,32.077,56.387z    M35.331,57.004c0-0.178-0.008-0.398-0.031-0.627c0.137,0.031,0.273,0.064,0.411,0.098c0.151,0.035,0.304,0.072,0.458,0.109   C35.919,56.734,35.638,56.885,35.331,57.004z M38.22,57.676c-0.008-0.164-0.023-0.383-0.049-0.611   c0.32,0.076,0.647,0.154,0.978,0.232C38.887,57.473,38.571,57.623,38.22,57.676z M40.474,58.291   c0.023-0.182,0.044-0.416,0.045-0.668c0.334,0.08,0.67,0.16,1.008,0.238C41.229,58.035,40.867,58.203,40.474,58.291z    M47.042,60.635l-0.289,0.248c-1.617,1.4-3.986,3.451-7.314,4.143c1.278-1.08,3.672-3.309,4.215-5.273   c0.137-0.498,0.178-0.951,0.125-1.357c1.723,0.404,3.409,0.795,4.916,1.135C48.103,59.832,47.547,60.199,47.042,60.635z    M72.523,62.395c-0.152,2.057-0.652,4.506-3.126,5.475c0.035-0.957,0.05-3.408-0.56-5.775c0.294-0.195,0.914-0.633,1.541-1.244   c0.834-0.129,1.723-0.277,2.634-0.441C72.792,60.918,72.583,61.59,72.523,62.395z M95.442,52.902   c-0.042,0.014-0.088,0.029-0.141,0.049c-0.065,0.023-0.145,0.053-0.228,0.082c-1.966,0.715-8.508,3.135-11.706,4.338   c-0.114,0.043-0.237,0.088-0.366,0.133c-0.022,0.006-0.046,0.014-0.069,0.021c-0.107,0.037-0.219,0.076-0.336,0.113   c-0.028,0.01-0.059,0.02-0.087,0.029c-0.114,0.035-0.23,0.072-0.351,0.109c-0.039,0.012-0.078,0.023-0.117,0.033   c-0.112,0.035-0.225,0.068-0.342,0.102c-0.057,0.018-0.113,0.033-0.169,0.051c-0.098,0.027-0.194,0.055-0.295,0.082   c-0.086,0.023-0.172,0.047-0.261,0.07c-0.056,0.016-0.114,0.033-0.172,0.047c-3.996,1.068-9.98,2.148-13.301,2.533   c-0.011,0-0.022,0.002-0.031,0.002c-0.131,0.018-0.257,0.029-0.38,0.043c-0.27,0.027-0.547,0.053-0.827,0.074   c-0.124,0.01-0.25,0.018-0.376,0.025c-0.153,0.01-0.306,0.021-0.463,0.029c-0.169,0.008-0.343,0.016-0.516,0.021   c-0.106,0.006-0.215,0.008-0.323,0.012c-0.207,0.006-0.417,0.012-0.629,0.014c-0.065,0.002-0.134,0.002-0.198,0.004   c-0.232,0.002-0.465,0.002-0.701,0c-0.106,0-0.214-0.002-0.321-0.004c-0.448-0.006-0.904-0.018-1.365-0.037   c-0.063-0.002-0.126-0.004-0.189-0.008c-0.271-0.012-0.545-0.025-0.818-0.043c-0.043-0.002-0.087-0.006-0.13-0.01   c-0.837-0.053-1.689-0.127-2.548-0.221c-0.113-0.014-0.227-0.025-0.34-0.039c-0.242-0.029-0.485-0.057-0.729-0.088   c-0.325-0.043-0.652-0.088-0.979-0.135c-0.161-0.023-0.321-0.049-0.482-0.074c-0.254-0.039-0.508-0.078-0.762-0.121   c-0.138-0.023-0.274-0.047-0.412-0.07c-0.39-0.068-0.78-0.141-1.17-0.215c-0.104-0.021-0.211-0.043-0.322-0.064   c-0.063-0.014-0.129-0.027-0.194-0.039c-0.052-0.012-0.102-0.021-0.155-0.033c-0.073-0.014-0.15-0.031-0.228-0.047   c-0.049-0.01-0.096-0.02-0.146-0.029c-0.081-0.018-0.167-0.035-0.252-0.055c-0.049-0.01-0.097-0.02-0.146-0.031   c-0.09-0.02-0.184-0.037-0.276-0.059c-0.048-0.01-0.095-0.02-0.144-0.029c-0.101-0.023-0.204-0.047-0.31-0.068   c-0.041-0.01-0.083-0.018-0.124-0.027c-0.128-0.027-0.258-0.057-0.392-0.086c-0.015-0.004-0.028-0.006-0.042-0.008   c-0.154-0.035-0.311-0.07-0.473-0.105l-0.026-0.006c-1.853-0.412-4.048-0.922-6.276-1.447l-1.025-0.242   c-0.837-0.197-1.671-0.395-2.486-0.59l-0.118-0.027l0,0c-0.544-0.131-1.077-0.258-1.599-0.383l0,0l-1.291-0.309l0,0   c-0.324-0.078-0.641-0.154-0.947-0.227c-0.613-0.148-1.201-0.289-1.752-0.42l-0.48-0.115l0,0c-0.693-0.166-1.312-0.313-1.826-0.434   l-0.126-0.029c-0.157-0.037-0.302-0.072-0.439-0.104c-0.007-0.002-0.013-0.002-0.02-0.004c-0.06-0.016-0.124-0.029-0.179-0.041   c-0.122-0.029-0.246-0.057-0.371-0.084L30.4,54.66l0,0c-0.587-0.125-1.185-0.234-1.783-0.336l0,0l-0.151-0.023   c-0.006-0.002-0.012-0.004-0.016-0.004c-0.41-0.066-0.82-0.129-1.23-0.184l-0.025-0.004l0,0c-0.588-0.08-1.17-0.15-1.744-0.209   v-0.002l-0.145-0.014c-0.025-0.004-0.049-0.004-0.074-0.008c-0.327-0.033-0.648-0.061-0.967-0.088   c-0.031-0.002-0.062-0.006-0.092-0.008l-0.16-0.012h-0.001c-0.689-0.053-1.353-0.094-1.978-0.121l-0.002-0.002l-0.133-0.004   c-0.029-0.002-0.058-0.002-0.088-0.004c-0.026,0-0.052,0-0.078-0.002c-0.371-0.014-0.734-0.025-1.083-0.029l-0.134-0.002   l-0.002,0.002c-0.145-0.002-0.291-0.004-0.43-0.004c-0.002,0-0.006,0-0.008,0c-0.042-0.002-0.561-0.035-1.176,0.072l-0.002-0.002   l-0.174,0.037c-0.01,0.002-0.018,0.006-0.027,0.008c-0.043,0.008-0.086,0.02-0.129,0.031c-0.044,0.012-0.088,0.021-0.129,0.033   c-0.022,0.008-0.045,0.016-0.066,0.021c-0.061,0.02-0.121,0.039-0.18,0.061c-0.008,0.002-0.018,0.006-0.025,0.01   c-0.072,0.027-0.141,0.057-0.207,0.086c-0.009,0.006-0.018,0.01-0.027,0.014c-0.065,0.031-0.129,0.066-0.189,0.102   c-0.014,0.008-0.027,0.018-0.042,0.025c-0.056,0.035-0.108,0.07-0.159,0.107c-0.017,0.012-0.033,0.025-0.05,0.037   c-0.048,0.039-0.094,0.078-0.138,0.119c-0.016,0.016-0.031,0.029-0.047,0.045c-0.057,0.057-0.109,0.115-0.158,0.178   c-0.122,0.16-0.324,0.48-0.629,0.967c-1.566,2.486-5.582,8.863-10.471,11.695c1.541-2.535,5.84-9.979,5.801-14.015   c-0.038-4.006-5.499-10.911-7.559-13.373c2.311,1.076,7.867,4.147,11.379,10.094c0.055,0.095,1.365,2.313,3.413,2.079   c0.003,0,0.005,0,0.008,0c0.054-0.008,0.116-0.016,0.185-0.025c0.049-0.007,0.106-0.016,0.162-0.023   c0.023-0.004,0.043-0.007,0.065-0.01l0.018-0.003c0.011-0.003,0.021-0.003,0.032-0.005l0.063-0.01v-0.001   c0.41-0.066,0.973-0.169,1.66-0.306l0.002,0.001l0.168-0.034c0.031-0.006,0.066-0.014,0.1-0.02l0,0   c0.362-0.074,0.748-0.152,1.167-0.242l0.1-0.021l0.001-0.002c4.243-0.913,11.188-2.672,17.26-5.092l0.02-0.006l0,0   c0.443-0.177,0.885-0.356,1.316-0.541c0.174-0.074,0.343-0.144,0.514-0.215l0.004,0.002l0.289-0.121   c0.183-0.076,0.363-0.151,0.543-0.223l0.106-0.043l0.001-0.001c0.672-0.271,1.331-0.526,1.976-0.766   c0.039-0.013,0.079-0.028,0.118-0.042c0.221-0.082,0.439-0.162,0.658-0.239c0.043-0.016,0.087-0.032,0.131-0.046   c0.219-0.078,0.434-0.153,0.648-0.228c0.084-0.028,0.17-0.058,0.256-0.087c3.383-1.152,6.35-1.876,8.91-2.337   c0.232-0.042,0.468-0.083,0.714-0.123l0.115-0.019l0.001-0.001c2.299-0.379,4.247-0.548,5.851-0.64   c5.223-0.304,9.186-0.305,11.163-0.002c0.115,0.016,10.384,1.437,16.806,4.019c0.006,0.002,0.013,0.004,0.018,0.007   c0.102,0.041,0.202,0.082,0.302,0.124c0.011,0.004,0.022,0.009,0.033,0.013c0.096,0.041,0.189,0.08,0.284,0.121   c0.014,0.007,0.029,0.013,0.043,0.02c0.088,0.038,0.174,0.077,0.26,0.115c0.021,0.009,0.04,0.018,0.061,0.027   c0.079,0.036,0.155,0.072,0.234,0.108c0.025,0.011,0.05,0.024,0.075,0.035c0.077,0.037,0.153,0.074,0.229,0.11   c0.022,0.013,0.048,0.024,0.07,0.035c0.074,0.036,0.146,0.073,0.219,0.11c0.022,0.013,0.048,0.024,0.072,0.036   c0.095,0.05,0.188,0.099,0.279,0.149l0.029,0.015c0.087,0.034,2.12,0.837,3.392,0.958c0.043,0.003,0.077,0.009,0.102,0.015   c-0.223,0.306-1.254,0.965-2.189,1.32c-0.246,0.094-0.45,0.221-0.627,0.375c-0.016,0.014-0.032,0.025-0.047,0.038   c-0.008,0.007-0.015,0.015-0.021,0.021c-0.523,0.492-0.772,1.219-1.006,1.938c-0.021,0.065-0.043,0.132-0.063,0.198l-0.021,0.059   c-0.108,0.337-0.221,0.687-0.358,1.053l0.513,0.192c0.138-0.368,0.249-0.715,0.357-1.048c0.686,0.08,2.792,0.336,3.918,0.568   c0.004,0.002,0.01,0.002,0.016,0.003c0.074,0.016,0.145,0.031,0.209,0.047c0.006,0.002,0.012,0.003,0.019,0.004   c0.064,0.016,0.124,0.031,0.179,0.047c0.158,0.043,0.241,0.105,0.243,0.182C97.048,51.878,96.383,52.566,95.442,52.902z"/><path d="M59.084,48.621l1.149-0.271c0.385-0.084,0.774-0.146,1.16-0.22l0.582-0.106l0.586-0.082   c0.391-0.051,0.78-0.116,1.173-0.157l1.178-0.118c0.392-0.039,0.787-0.057,1.182-0.086c0.393-0.031,0.787-0.046,1.182-0.06   c0.395-0.016,0.789-0.034,1.185-0.034l1.186-0.007c0.395-0.014,0.79-0.039,1.187-0.043l1.188-0.019   c0.794-0.008,1.588,0,2.383,0.028c-0.784-0.137-1.575-0.245-2.367-0.326c-0.396-0.047-0.795-0.073-1.193-0.108   c-0.396-0.037-0.796-0.054-1.195-0.081c-0.398-0.025-0.798,0.013-1.196,0.009c-0.399,0-0.798,0.018-1.196,0.034   c-0.399,0.014-0.798,0.029-1.196,0.06c-0.398,0.031-0.797,0.049-1.194,0.088l-1.193,0.121c-0.396,0.041-0.791,0.106-1.188,0.158   l-0.593,0.082l-0.591,0.108c-0.393,0.075-0.789,0.137-1.18,0.223l-1.17,0.274c-0.393,0.081-0.771,0.217-1.158,0.325   c-0.384,0.114-0.771,0.22-1.145,0.369l-1.131,0.418l-1.241,0.458l1.333,0.069c1.608,0.081,3.223,0.202,4.827,0.367   c0.402,0.039,0.804,0.084,1.202,0.133c0.401,0.043,0.801,0.102,1.2,0.153c0.398,0.059,0.796,0.115,1.193,0.184   c0.396,0.067,0.791,0.136,1.182,0.222c0.395,0.074,0.778,0.179,1.163,0.276l0.566,0.177c0.165,0.051,0.37,0.144,0.553,0.213   c0.186,0.078,0.339,0.171,0.512,0.254c0.162,0.102,0.33,0.197,0.486,0.312c0.323,0.214,0.59,0.502,0.955,0.753   c0.185,0.123,0.404,0.222,0.638,0.277c0.117,0.024,0.237,0.023,0.353,0.033c0.114,0.002,0.226-0.022,0.336-0.035   c0.113-0.008,0.212-0.049,0.315-0.075c0.102-0.032,0.21-0.054,0.305-0.096c0.19-0.083,0.389-0.151,0.57-0.245l0.551-0.277   l0.532-0.3c0.352-0.204,0.69-0.427,1.037-0.638c-0.371,0.165-0.735,0.342-1.108,0.498l-0.556,0.238l-0.564,0.211   c-0.187,0.072-0.379,0.115-0.568,0.174c-0.092,0.031-0.189,0.037-0.281,0.057c-0.095,0.015-0.189,0.042-0.28,0.036   c-0.379,0.036-0.679-0.075-0.962-0.31c-0.292-0.222-0.607-0.504-0.955-0.747c-0.169-0.125-0.354-0.231-0.534-0.344   c-0.191-0.094-0.388-0.208-0.576-0.283c-0.195-0.074-0.359-0.152-0.58-0.224l-0.594-0.185c-0.399-0.101-0.799-0.208-1.2-0.285   c-0.399-0.088-0.802-0.157-1.204-0.227c-0.401-0.068-0.805-0.125-1.208-0.186c-0.402-0.05-0.806-0.11-1.21-0.154   c-0.403-0.048-0.807-0.094-1.211-0.134c-1.182-0.121-2.364-0.217-3.549-0.293c0.329-0.123,0.669-0.218,1.006-0.318   C58.327,48.834,58.697,48.7,59.084,48.621z"/><path d="M56.614,46.043c0.687-0.065,1.362-0.142,2.03-0.195c1.335-0.103,2.63-0.176,3.856-0.207   c0.614-0.017,1.211-0.033,1.791-0.032c0.577-0.008,1.136-0.007,1.672,0.002c0.535-0.004,1.05,0.036,1.539,0.03   c0.489-0.012,0.953-0.012,1.39-0.014c0.872-0.002,1.635,0.01,2.262,0.025c0.627,0.018,1.121,0.031,1.457,0.042   c0.336,0.015,0.516,0.022,0.516,0.022s-0.178-0.028-0.511-0.08c-0.334-0.047-0.822-0.122-1.447-0.193   c-0.626-0.072-1.385-0.154-2.259-0.232c-0.437-0.039-0.9-0.082-1.393-0.114c-0.49-0.035-1.008-0.022-1.548-0.033   c-0.539-0.009-1.101-0.01-1.683-0.003c-0.582,0-1.185,0.016-1.802,0.032c-1.236,0.033-2.54,0.106-3.885,0.21   c-0.674,0.053-1.355,0.131-2.048,0.196c-0.689,0.091-1.389,0.171-2.09,0.278c-0.35,0.059-0.701,0.116-1.054,0.175l-0.535,0.088   l-0.524,0.107c-0.7,0.143-1.402,0.288-2.104,0.431c-1.404,0.293-2.813,0.565-4.192,0.87c-1.378,0.319-2.732,0.633-4.044,0.938   c-1.313,0.311-2.58,0.576-3.781,0.846c-1.204,0.26-2.338,0.524-3.391,0.736c-0.527,0.104-1.039,0.166-1.517,0.277   c-0.478,0.109-0.931,0.212-1.356,0.309c-0.853,0.194-1.596,0.363-2.208,0.501c-1.224,0.287-1.923,0.45-1.923,0.45   s0.711-0.091,1.957-0.249c0.623-0.082,1.38-0.184,2.248-0.299c0.435-0.059,0.896-0.12,1.385-0.185   c0.488-0.061,0.99-0.182,1.521-0.269c1.057-0.213,2.193-0.478,3.399-0.738c1.204-0.27,2.48-0.538,3.786-0.847   c1.308-0.303,2.66-0.617,4.033-0.936c1.377-0.304,2.787-0.576,4.191-0.868c0.702-0.144,1.404-0.288,2.104-0.431l0.524-0.108   l0.519-0.084c0.349-0.059,0.696-0.115,1.043-0.172C55.239,46.212,55.933,46.135,56.614,46.043z"/><circle cx="87.866" cy="47.29" r="1.129"/><path d="M79.149,56.818c-0.097-0.021-0.201-0.057-0.313-0.09c-0.111-0.041-0.23-0.088-0.354-0.143   c-0.118-0.066-0.252-0.119-0.374-0.213c-0.063-0.041-0.126-0.086-0.191-0.129c-0.062-0.051-0.122-0.104-0.186-0.156   c-0.245-0.219-0.483-0.486-0.681-0.807c-0.208-0.314-0.365-0.682-0.505-1.07c-0.062-0.199-0.131-0.396-0.172-0.607   c-0.054-0.208-0.093-0.42-0.126-0.633c-0.042-0.207-0.061-0.439-0.084-0.666l-0.017-0.172c-0.006-0.039-0.004-0.105-0.006-0.158   l-0.008-0.332c-0.01-0.442,0.022-0.889,0.082-1.325c0.063-0.436,0.141-0.865,0.244-1.274c0.2-0.822,0.46-1.575,0.706-2.213   c0.498-1.274,0.931-2.093,0.931-2.093s-0.146,0.18-0.372,0.516c-0.111,0.168-0.248,0.373-0.389,0.618   c-0.146,0.243-0.301,0.52-0.456,0.833c-0.158,0.31-0.318,0.653-0.468,1.025c-0.149,0.371-0.296,0.768-0.417,1.191   c-0.121,0.421-0.232,0.864-0.3,1.324c-0.07,0.459-0.113,0.931-0.108,1.409l0.013,0.355c0.004,0.063,0.001,0.112,0.01,0.186   l0.021,0.172c0.027,0.227,0.047,0.451,0.096,0.686c0.021,0.117,0.043,0.232,0.064,0.348c0.029,0.113,0.061,0.223,0.09,0.336   c0.055,0.223,0.138,0.434,0.215,0.645c0.078,0.209,0.176,0.41,0.274,0.602c0.113,0.186,0.215,0.373,0.346,0.535   c0.237,0.34,0.531,0.609,0.82,0.822c0.289,0.219,0.599,0.348,0.87,0.445c0.139,0.041,0.27,0.078,0.391,0.102   c0.124,0.016,0.236,0.035,0.339,0.043c0.205,0.012,0.364,0.01,0.473-0.002c0.107-0.01,0.165-0.014,0.165-0.014   s-0.058-0.008-0.164-0.018C79.499,56.889,79.343,56.855,79.149,56.818z"/><path d="M82.577,54.914c-0.181-0.086-0.356-0.205-0.519-0.348c-0.163-0.141-0.298-0.324-0.416-0.535s-0.215-0.449-0.308-0.699   c-0.05-0.123-0.091-0.254-0.136-0.381c-0.04-0.129-0.093-0.271-0.124-0.394c-0.076-0.248-0.133-0.507-0.162-0.767   c-0.03-0.26-0.055-0.521-0.055-0.775c-0.003-0.254,0-0.502,0.014-0.738c0.014-0.236,0.029-0.46,0.051-0.667   c0.085-0.828,0.182-1.387,0.182-1.387s-0.271,0.503-0.489,1.331c-0.056,0.208-0.109,0.433-0.146,0.678   c-0.043,0.243-0.08,0.502-0.091,0.772c-0.009,0.136-0.013,0.274-0.01,0.415c-0.003,0.141,0.006,0.284,0.021,0.428   c0.023,0.289,0.081,0.582,0.162,0.871c0.043,0.148,0.093,0.269,0.138,0.404c0.051,0.135,0.097,0.271,0.153,0.4   c0.1,0.268,0.237,0.521,0.391,0.762c0.149,0.238,0.352,0.451,0.57,0.602c0.217,0.154,0.444,0.258,0.656,0.32   c0.21,0.07,0.406,0.105,0.577,0.131c0.173,0.033,0.325,0.037,0.448,0.051c0.248,0.014,0.389,0.016,0.389,0.016   s-0.133-0.045-0.367-0.123C83.274,55.199,82.938,55.094,82.577,54.914z"/></g><text x="0" y="115" fill="#000000" font-size="5px" font-weight="bold" font-family="'Helvetica Neue', Helvetica, Arial-Unicode, Arial, Sans-serif">Created by Bakunetsu Kaito</text><text x="0" y="120" fill="#000000" font-size="5px" font-weight="bold" font-family="'Helvetica Neue', Helvetica, Arial-Unicode, Arial, Sans-serif">from the Noun Project</text></svg>