<svg xmlns="http://www.w3.org/2000/svg" xmlns:xlink="http://www.w3.org/1999/xlink" version="1.1" x="0px" y="0px" viewBox="0 0 100 125" enable-background="new 0 0 100 100" xml:space="preserve"><g><path fill="none" d="M26.025,33.285c-0.992,0.627-1.15,1.713-0.762,2.66c0.233,0.367,0.593,0.658,1.094,0.798   c1.147,0.321,2.644-0.478,2.547-1.815C28.801,33.53,27.334,32.457,26.025,33.285z"/><path fill="none" d="M34.318,25.74c-0.131-1.798-2.019-3.178-3.702-2.113c-1.276,0.807-1.479,2.203-0.98,3.42   c0.299,0.472,0.763,0.846,1.407,1.026C32.518,28.487,34.443,27.459,34.318,25.74z"/><path fill="none" d="M29.102,16.148c-0.161-2.199-2.469-3.886-4.527-2.584c-1.56,0.987-1.809,2.694-1.199,4.183   c0.366,0.578,0.933,1.034,1.721,1.255C26.901,19.506,29.255,18.249,29.102,16.148z"/><path fill="none" d="M41.244,29.888c-0.105,0.206-0.161,0.408-0.193,0.607c0.203,0.913,0.861,1.77,1.909,1.658   c1.216-0.13,2.031-1.689,1.065-2.644C43.212,28.705,41.793,28.81,41.244,29.888z M43.436,31.764   c-0.555,0.454-1.511,0.402-1.853-0.303c-0.315-0.65-0.099-1.399,0.545-1.682c0.411-0.218,0.944-0.176,1.329,0.175   C44.001,30.449,44.018,31.289,43.436,31.764z"/><path fill="none" d="M42.713,29.786c-0.214-0.012-0.434,0.075-0.547,0.269c-0.013,0.022-0.014,0.045-0.024,0.067   c-0.125,0.202-0.106,0.469,0.066,0.64c0.031,0.048,0.062,0.097,0.102,0.139c0.239,0.249,0.613,0.289,0.93,0.206   c0.43-0.112,0.472-0.635,0.297-0.976C43.385,29.834,43.036,29.736,42.713,29.786z"/><path fill="none" d="M70.486,51.342c-0.044,0.009-0.086-0.047-0.047-0.081c0.905-0.794,2.01-1.23,3.186-1.475   c0.656-0.137,1.468-0.344,2.201-0.304c-0.258-0.535-0.33-1.201-0.288-1.747c0.048-0.632,0.343-1.19,0.759-1.644   c-1.553,0.326-3.128,0.688-4.547,1.374c-1.566,0.757-2.686,1.791-3.833,3.04c1.462,1.61,1.581,5.089,0.37,6.848   c-0.001,0.001-0.002,0.001-0.003,0.002c1.005,1.152,2.026,2.31,3.23,3.257c1.015,0.799,2.108,1.447,3.236,2.054   c-0.856-1.767-0.328-3.84,1.244-5.015c-1.795-0.173-3.669-1.158-5.163-1.981c-0.049-0.027-0.015-0.102,0.037-0.089   c1.17,0.288,2.348,0.535,3.519,0.819c0.546,0.132,1.111,0.228,1.657,0.376c-1.255-1.769-1.333-4.324,0.001-5.999   c0.128-0.192,0.274-0.376,0.433-0.554c-0.017-0.013-0.034-0.025-0.052-0.037c-0.807,0.257-1.78,0.131-2.607,0.299   C72.691,50.718,71.61,51.102,70.486,51.342z"/><path fill="none" d="M68.315,54.095c-0.059-0.858-0.305-1.629-0.519-2.421c-0.069-0.017-0.138-0.05-0.201-0.123   c-2.519-2.904-1.722-6.735-0.801-10.126c1.189-4.377,1.666-8.889,0.398-13.314c-1.052-3.669-3.222-7.195-6.477-9.303   c-0.062-0.04-0.129-0.074-0.191-0.113c-1.79,1.583-1.232,3.928,0.408,5.45c0.214,0.198-0.013,0.51-0.266,0.457   c-1.72-0.354-3.675,0.18-5.27,1.016c-0.256,0.187-0.499,0.392-0.717,0.656c-0.148,0.179-0.372-0.018-0.35-0.198   c-0.028-0.05-0.034-0.112,0.016-0.159c0.002-0.002,0.005-0.004,0.007-0.006c0.107-0.727,0.175-1.451-0.238-2.121   c-0.359-0.582-0.868-1.019-1.471-1.334c-0.065-0.034-0.037-0.146,0.038-0.141c1.463,0.102,2.601,1.594,2.389,2.999   c1.399-1.033,2.922-1.358,4.662-1.31c-0.059-0.052-0.112-0.108-0.166-0.163c-0.335-0.082-0.668-0.172-1.018-0.23   c-0.675-0.112-1.364-0.079-2.034-0.207c-0.071-0.013-0.078-0.116-0.019-0.149c0.678-0.383,1.623-0.442,2.473-0.241   c-0.604-1.186-0.479-2.677,0.198-3.897c-0.612,0.314-1.262,0.569-1.821,0.987c-0.79,0.591-1.374,1.378-2.129,2   c-0.086,0.071-0.202,0.004-0.182-0.106c0.28-1.549,2.217-3.32,3.957-3.643c-1.414-0.521-2.329-1.971-2.036-3.401   c-0.682,0.648-1.366,1.298-1.849,2.114c-0.595,1.005-1.007,2.045-1.221,3.193c-0.012,0.064-0.102,0.043-0.107-0.014   c-0.076-1.033,0.13-2.169,0.583-3.184c-1.1,1.334-1.883,2.945-2.343,4.679c-0.086,0.325-0.617,0.266-0.595-0.081   c0.124-1.917,0.89-3.663,2.06-5.102c-1.317,0.003-2.603,0.185-3.957,0.356c-0.142,0.018-0.19-0.202-0.072-0.264   c1.398-0.734,3.055-0.965,4.726-0.86c1.087-1.093,2.418-1.962,3.866-2.519c0.455-0.175,0.785,0.478,0.461,0.791   c-0.937,0.906-0.841,1.895-0.253,2.607c0.653,0.245,1.272,0.529,1.837,0.841c0.08,0.044,0.156,0.097,0.235,0.143   c0.082,0.003,0.164,0.008,0.246,0.003c0.276-0.014,0.408,0.183,0.412,0.396c0.299,0.197,0.592,0.404,0.88,0.618   c-1.141-1.533-2.072-3.155-2.798-5.029c-0.129-0.334-0.262-0.689-0.391-1.056c-1.033,0.26-2.175,0.13-3.234,0.324   c-0.965,0.177-1.911,0.438-2.819,0.812c-0.062,0.026-0.101-0.075-0.045-0.107c1.582-0.911,3.966-2.068,5.884-1.667   c-0.449-1.426-0.753-2.994-0.435-4.395c-1.016,0.652-2.474,1.041-3.216,1.461c-1.36,0.77-2.648,1.681-3.751,2.794   c-1.076,1.086-2.837,2.667-1.837,4.306c0.19,0.311-0.242,0.633-0.497,0.383c-1.89-1.851,1.021-4.603,2.365-5.787   c1.022-0.901,2.121-1.727,3.327-2.368c0.857-0.456,3.661-1.181,3.878-2.382c-4.274,1.817-8.216,4.579-11.275,8.078   c-1.631,1.865-3.074,3.901-4.217,6.103c-0.971,1.871-1.586,3.92-2.508,5.803c2.041-0.491,4.143,0.272,5.229,2.314   c0.034,0.065-0.05,0.136-0.104,0.08c-1.535-1.61-3.829-2.147-5.823-1.135c0.604,3.151,0.074,6.637-1.616,9.378   c-1.176,1.907-2.857,3.775-4.947,4.723c-0.374,0.318-0.813,0.564-1.274,0.746c0.586,0.844,2.905-0.345,3.465-0.712   c0.037-0.025,0.078,0.03,0.047,0.061c-0.156,0.153-0.378,0.341-0.64,0.53c0.039-0.005,0.077-0.017,0.117-0.018   c0.069-0.001,0.107,0.107,0.037,0.137c-1.415,0.608,0.508,2.333,1.461,1.338c0.223-0.201,0.4-0.435,0.533-0.701   c0.294-0.58,0.513-1.184,0.775-1.777c0.431-0.976,0.974-1.904,1.66-2.724c1.563-1.866,3.523-3.049,5.755-3.972   c2.584-1.068,5.857-2.064,7.382-4.624c0.683-1.146,1.249-2.739,0.717-4.065c-0.56-1.394-1.794-2.412-3.342-2.433   c-0.121-0.002-0.156-0.194-0.029-0.217c3.33-0.604,4.928,3.128,4.035,5.857c0.362-0.081,0.754-0.039,1.099,0.163   c1.327,0.781,1.405,2.577,0.684,3.817c-1.164,2.004-2.817,3.7-4.012,5.701c-1.194,1.997-2.234,4.113-2.857,6.363   c-1.355,4.893-0.862,10.21,1.864,14.568c2.497,3.991,6.447,6.819,10.898,8.272c0.214,0.07,0.126,0.374-0.092,0.333   c-0.239-0.044-0.476-0.094-0.711-0.149c4.099,3.216,6.292,8.824,5.68,13.987c-0.758,6.399-6.21,10.621-12.573,9.969   c-5.661-0.579-12-5.526-12.345-11.539c-0.318-5.549,4.654-10.494,10.299-9.099c0.367,0.091,0.728,0.208,1.082,0.346   c-2.841-1.292-6.373-1.04-8.884,1.122c-5.676,4.887-3.137,13.806,1.991,18.069c1.099,0.914,2.319,1.632,3.606,2.169   c0.03-0.099,0.088-0.192,0.179-0.259c0.206-0.151,0.523-0.256,0.679,0.005c0.02,0.033-0.001,0.077-0.021,0.113   c0.005,0.149-0.018,0.283-0.083,0.435c0.884,0.313,1.795,0.544,2.719,0.687c0.027-0.047,0.049-0.099,0.08-0.14   c0.121-0.16,0.202-0.325,0.366-0.445c0.122-0.089,0.309,0.004,0.344,0.14c0.044,0.174,0.017,0.367-0.011,0.547   c0.957,0.099,1.923,0.109,2.882,0.031c0.02-0.165,0.093-0.334,0.129-0.497c0.058-0.266,0.088-0.536,0.217-0.78   c0.089-0.169,0.282-0.143,0.392-0.039c0-0.004,0.001-0.008,0.001-0.012c0.006,0.008,0.009,0.017,0.015,0.025   c0.023,0.025,0.041,0.054,0.052,0.086c0.15,0.251,0.184,0.533,0.158,0.832c-0.007,0.087-0.017,0.183-0.034,0.278   c1.097-0.157,2.179-0.424,3.221-0.816c-0.093-0.328,0.033-0.74,0.2-1.025c0.099-0.168,0.402-0.202,0.491,0   c0.079,0.179,0.15,0.424,0.164,0.663c0.838-0.376,1.647-0.822,2.408-1.356c-0.013-0.096-0.015-0.193-0.004-0.287   c0.032-0.264,0.339-0.455,0.557-0.231c0.018,0.019,0.033,0.039,0.05,0.059c0.192-0.15,0.388-0.293,0.573-0.454   c0.464-0.404,0.898-0.832,1.309-1.277c-0.009-0.019-0.017-0.039-0.028-0.058c-0.089-0.15-0.244-0.304-0.273-0.477   c-0.026-0.152,0.061-0.26,0.211-0.278c0.201-0.024,0.41,0.129,0.56,0.284c0.836-0.985,1.551-2.053,2.137-3.181   c-0.11-0.087-0.212-0.181-0.293-0.297c-0.143-0.205-0.353-0.324-0.511-0.508c-0.072-0.084-0.038-0.191,0.061-0.23   c0.298-0.118,0.723,0.044,0.969,0.219c0.046,0.033,0.08,0.076,0.118,0.117c0.698-1.505,1.178-3.103,1.423-4.742   c-0.085,0.012-0.174,0-0.259-0.063c-0.165-0.124-0.328-0.25-0.508-0.351c-0.16-0.089-0.37-0.148-0.458-0.318   c-0.05-0.097-0.037-0.2,0.036-0.281c0.168-0.184,0.492-0.145,0.715-0.095c0.215,0.048,0.401,0.143,0.577,0.261   c0.204-2.047,0.054-4.14-0.486-6.182c-0.333,0.006-0.71-0.078-0.945-0.235c-0.176-0.118-0.174-0.352,0-0.47   c0.17-0.116,0.416-0.192,0.665-0.225c-0.064-0.196-0.119-0.394-0.19-0.589c-0.22-0.602-0.475-1.179-0.745-1.747   c-0.047,0.104-0.138,0.185-0.283,0.21c-0.337,0.06-0.938,0.213-1.168-0.124c-0.109-0.16,0.152-0.366,0.259-0.432   c0.213-0.132,0.433-0.228,0.668-0.317c0.067-0.025,0.129-0.032,0.186-0.026c-0.466-0.894-0.989-1.758-1.573-2.606   c-0.88-1.28-1.896-2.663-2.18-4.23c-0.371-2.051,0.361-4.696,2.528-5.084c0.071-0.068,0.172-0.093,0.262-0.036   c0.026-0.002,0.05-0.009,0.077-0.011C68.152,56.036,68.383,55.084,68.315,54.095z M43.431,32.925   c-0.795,0.308-1.773,0.137-2.321-0.469c-0.968-0.779-1.077-2.438-0.207-3.391c1.192-1.305,3.295-1.084,4.096,0.524   C45.651,30.894,44.797,32.596,43.431,32.925z M66.632,29.709c0.169,0.034,0.133,0.255,0,0.307c-0.917,0.355-2.043,0.578-3.02,0.356   c-0.29-0.066-0.226-0.431,0-0.524C64.53,29.469,65.68,29.516,66.632,29.709z M63.175,25.008c0.543-0.307,0.969-0.642,1.597-0.478   c0.069,0.018,0.127,0.103,0.099,0.174c-0.259,0.651-0.873,0.821-1.487,1.09c-0.462,0.203-1.067,0.603-1.577,0.434   c-0.044-0.015-0.076-0.06-0.061-0.108C61.921,25.569,62.707,25.273,63.175,25.008z M62.329,43.159   c0.622,0.127,1.293,0.324,1.83,0.673c0.397,0.258,0.151,0.962-0.335,0.795c-0.581-0.201-1.129-0.467-1.727-0.623   c-0.361-0.094-0.873-0.12-1.04-0.5c0.002,0,0.003-0.001,0.005-0.001c-0.034-0.051-0.046-0.115-0.005-0.171   C61.344,42.933,61.903,43.072,62.329,43.159z M61.423,61.274c0.4-0.491,1.2-1.168,1.88-1.004c0.099,0.024,0.141,0.125,0.123,0.217   c-0.135,0.684-1.11,1.124-1.715,1.281C61.405,61.848,61.243,61.495,61.423,61.274z M60.472,56.672c-0.29-0.059-0.258-0.476,0-0.553   c0.434-0.13,0.874-0.156,1.324-0.182c0.417-0.024,0.63-0.003,0.975,0.221c0.08,0.052,0.122,0.19,0.033,0.259   c-0.343,0.267-0.567,0.312-1.008,0.326C61.347,56.758,60.914,56.763,60.472,56.672z M61.413,51.605   c-0.559-0.053-1.29-0.082-1.647-0.555c-0.008-0.011-0.004-0.029,0.005-0.038c0.541-0.511,1.61-0.268,2.29-0.214   c0.676,0.054,1.506,0.06,2.04,0.507c0.068,0.057,0.043,0.172-0.028,0.213C63.335,51.949,62.229,51.682,61.413,51.605z    M68.384,78.391c-0.065,0.143-0.314,0.039-0.255-0.108c2.1-5.234-3.095-9.756-6.697-12.668c-3.566-2.883-6.166-6.224-6.714-10.903   c-0.569-4.855,0.776-9.53,2.622-13.978c1.526-3.676,6.246-10.849,1.235-13.865c-0.084-0.05-0.028-0.202,0.069-0.163   c4.565,1.838,2.758,7.393,1.24,10.697c-2.305,5.016-4.702,10.435-4.293,16.091c0.197,2.728,0.955,5.501,2.621,7.715   c1.607,2.136,3.725,3.762,5.721,5.509C67.313,69.678,70.517,73.713,68.384,78.391z M65.267,65.298   c0.138,0.06,0.155,0.246,0.095,0.363c0.012-0.105,0.009-0.091-0.008,0.044c-0.02,0.071-0.056,0.133-0.108,0.186   c-0.114,0.093-0.215,0.171-0.363,0.201c-0.24,0.049-0.507,0.096-0.745,0.022c-0.157-0.049-0.258-0.244-0.16-0.392   c0.136-0.204,0.344-0.338,0.559-0.45c0.135-0.071,0.26-0.1,0.411-0.1C65.087,65.172,65.154,65.249,65.267,65.298z M65.358,36.526   c-0.212-0.088-0.426-0.177-0.651-0.228c-0.421-0.096-0.841-0.118-1.269-0.152c-0.321-0.025-0.397-0.465-0.077-0.566   c0.5-0.157,1.041-0.148,1.548-0.017c0.536,0.139,0.867,0.282,1.159,0.749c0.068,0.109-0.019,0.28-0.154,0.269   C65.718,36.565,65.547,36.604,65.358,36.526z"/><path d="M40.904,29.066c-0.87,0.953-0.761,2.612,0.207,3.391c0.548,0.606,1.526,0.776,2.321,0.469   c1.366-0.329,2.219-2.031,1.569-3.336C44.198,27.982,42.095,27.761,40.904,29.066z M42.961,32.153   c-1.048,0.112-1.706-0.745-1.909-1.658c0.032-0.199,0.088-0.401,0.193-0.607c0.549-1.077,1.968-1.183,2.781-0.379   C44.991,30.465,44.176,32.024,42.961,32.153z"/><path d="M42.128,29.779c-0.644,0.283-0.86,1.032-0.545,1.682c0.342,0.705,1.297,0.757,1.853,0.303   c0.582-0.475,0.565-1.315,0.022-1.81C43.072,29.603,42.54,29.561,42.128,29.779z M43.241,31.107   c-0.317,0.082-0.691,0.043-0.93-0.206c-0.04-0.042-0.071-0.091-0.102-0.139c-0.172-0.171-0.192-0.438-0.066-0.64   c0.01-0.022,0.011-0.045,0.024-0.067c0.113-0.194,0.332-0.281,0.547-0.269c0.324-0.05,0.673,0.048,0.826,0.345   C43.714,30.471,43.671,30.995,43.241,31.107z"/><path d="M77.558,45.812c0.291-0.177,0.086-0.563-0.218-0.516c-3.285,0.5-8.128,1.373-9.735,4.775   c-2.043-3.728,0.432-8.593,1.044-12.425c0.651-4.077,0.268-8.27-1.349-12.077c-0.954-2.246-2.413-4.271-4.222-5.905   c-1.124-1.748-2.125-3.669-2.955-5.543c-0.512-1.155-0.91-2.354-1.207-3.58c-0.308-1.276-0.207-2.46-0.08-3.722   c0.291-0.414,0.396-0.91,0.17-1.527C58.94,5.11,58.738,4.939,58.53,5.021c-4.666,1.837-8.779,4.658-12.137,8.388   c-1.71,1.899-3.143,4.039-4.342,6.291c-1.021,1.917-2.096,4.184-2.278,6.399c-0.323,0.113-0.643,0.257-0.954,0.435   c-0.2,0.114-0.258,0.329-0.221,0.543c0.545,3.149,0.113,6.21-1.436,9.025c-1.237,2.248-3.17,3.732-5.149,5.246   c-0.216,0.111-0.443,0.209-0.686,0.29c-0.14,0.047-0.23,0.185-0.189,0.333c0.359,1.307,1.612,1.042,2.686,0.467   c-0.223,0.32-0.292,0.738-0.054,1.113c0.683,1.075,1.91,1.032,2.878,0.353c1.321-0.926,1.708-2.964,2.543-4.275   c1.274-1.997,3.218-3.328,5.333-4.304c3.109-1.435,7.226-2.47,8.877-5.77c0.26-0.147,0.571-0.192,0.918-0.126   c1.016,0.192,0.923,1.566,0.727,2.256c-0.304,1.069-1.277,1.942-1.936,2.799c-1.289,1.675-2.449,3.427-3.439,5.296   c-1.937,3.655-2.985,7.749-2.65,11.892c0.546,6.755,4.958,12.857,11.148,15.355c1.902,1.23,3.569,2.714,4.875,4.666   c2.008,3.001,2.782,6.817,2.249,10.371c-0.526,3.505-2.602,6.412-5.815,7.909c-3.269,1.523-7.08,0.994-10.208-0.584   c-2.999-1.513-5.617-4.209-6.661-7.434c-1.011-3.122,0.17-6.507,2.613-8.598c2.573-2.201,6.545-1.965,9.133,0.048   c2.611,2.031,2.98,5.612,1.151,8.077c-0.249,0.246-0.526,0.441-0.818,0.6c-0.025,0.177-0.043,0.349-0.03,0.501   c0.091,0.135,0.2,0.254,0.337,0.353c0.552-0.305,1.015-0.693,1.387-1.146c1.349-1.335,2.019-3.287,1.675-5.229   c-1.111-6.275-8.83-8.406-13.846-5.339c-5.52,3.375-5.322,10.819-2.5,15.883c2.948,5.291,8.801,8.271,14.781,7.858   c4.227-0.292,7.971-2.272,10.733-5.222c0.058-0.035,0.112-0.093,0.149-0.159c2.211-2.42,3.77-5.47,4.405-8.771   c0.734-3.813,0.093-7.799-1.486-11.315c-0.873-1.944-2.222-3.552-3.371-5.326c-0.746-1.152-1.264-2.416-1.246-3.804   c0.017-1.3,0.902-2.427,2.074-2.849c1.57,2.864,4.602,5.223,7.719,6.142c0.224,0.066,0.442-0.199,0.309-0.402   c-1.323-2.016-0.741-4.425,1.38-5.587c0.183-0.1,0.184-0.333,0.061-0.477c-1.623-1.919-1.646-3.979-0.623-5.957   c0.269-0.319,0.556-0.623,0.894-0.892c0.22-0.175,0.108-0.498-0.082-0.633c-1.063-0.759-1.283-1.86-0.838-2.935   C76.821,46.385,77.166,46.049,77.558,45.812z M67.971,57.019c-0.089-0.057-0.191-0.032-0.262,0.036   c-2.166,0.388-2.899,3.034-2.528,5.084c0.284,1.567,1.3,2.951,2.18,4.23c0.584,0.849,1.106,1.712,1.573,2.606   c-0.057-0.006-0.12,0.001-0.186,0.026c-0.235,0.09-0.455,0.185-0.668,0.317c-0.107,0.067-0.368,0.272-0.259,0.432   c0.23,0.337,0.831,0.184,1.168,0.124c0.145-0.026,0.236-0.107,0.283-0.21c0.27,0.567,0.525,1.144,0.745,1.747   c0.071,0.195,0.126,0.393,0.19,0.589c-0.25,0.033-0.495,0.11-0.665,0.225c-0.174,0.118-0.176,0.352,0,0.47   c0.234,0.157,0.611,0.241,0.945,0.235c0.54,2.041,0.69,4.135,0.486,6.182c-0.177-0.118-0.363-0.213-0.577-0.261   c-0.222-0.05-0.547-0.09-0.715,0.095c-0.073,0.081-0.086,0.184-0.036,0.281c0.088,0.17,0.298,0.229,0.458,0.318   c0.18,0.101,0.343,0.227,0.508,0.351c0.084,0.063,0.173,0.076,0.259,0.063c-0.245,1.639-0.725,3.237-1.423,4.742   c-0.037-0.041-0.071-0.084-0.118-0.117c-0.246-0.176-0.671-0.337-0.969-0.219c-0.099,0.039-0.133,0.147-0.061,0.23   c0.158,0.184,0.369,0.303,0.511,0.508c0.081,0.116,0.183,0.21,0.293,0.297c-0.586,1.128-1.301,2.196-2.137,3.181   c-0.15-0.155-0.36-0.307-0.56-0.284c-0.151,0.018-0.237,0.126-0.211,0.278c0.029,0.173,0.184,0.327,0.273,0.477   c0.011,0.019,0.019,0.039,0.028,0.058c-0.411,0.445-0.845,0.873-1.309,1.277c-0.185,0.161-0.382,0.303-0.573,0.454   c-0.017-0.019-0.031-0.04-0.05-0.059c-0.217-0.224-0.525-0.034-0.557,0.231c-0.011,0.093-0.009,0.191,0.004,0.287   c-0.761,0.534-1.571,0.98-2.408,1.356c-0.014-0.239-0.085-0.484-0.164-0.663c-0.089-0.202-0.392-0.168-0.491,0   c-0.167,0.285-0.293,0.696-0.2,1.025c-1.042,0.392-2.124,0.659-3.221,0.816c0.017-0.095,0.027-0.191,0.034-0.278   c0.025-0.3-0.008-0.581-0.158-0.832c-0.011-0.032-0.029-0.061-0.052-0.086c-0.006-0.008-0.009-0.017-0.015-0.025   c0,0.004-0.001,0.008-0.001,0.012c-0.11-0.104-0.303-0.13-0.392,0.039c-0.128,0.244-0.158,0.514-0.217,0.78   c-0.036,0.162-0.109,0.331-0.129,0.497c-0.959,0.079-1.925,0.068-2.882-0.031c0.028-0.179,0.055-0.372,0.011-0.547   c-0.034-0.136-0.221-0.229-0.344-0.14c-0.164,0.12-0.245,0.285-0.366,0.445c-0.031,0.041-0.053,0.093-0.08,0.14   c-0.924-0.143-1.835-0.374-2.719-0.687c0.065-0.152,0.088-0.285,0.083-0.435c0.021-0.036,0.041-0.079,0.021-0.113   c-0.155-0.261-0.473-0.156-0.679-0.005c-0.091,0.067-0.149,0.16-0.179,0.259c-1.287-0.537-2.506-1.255-3.606-2.169   c-5.128-4.263-7.667-13.182-1.991-18.069c2.512-2.163,6.043-2.415,8.884-1.122c-0.354-0.138-0.716-0.255-1.082-0.346   c-5.645-1.395-10.617,3.55-10.299,9.099c0.345,6.012,6.684,10.959,12.345,11.539c6.363,0.651,11.815-3.571,12.573-9.969   c0.612-5.162-1.581-10.77-5.68-13.987c0.235,0.055,0.472,0.105,0.711,0.149c0.218,0.04,0.306-0.263,0.092-0.333   c-4.451-1.453-8.4-4.281-10.898-8.272c-2.727-4.357-3.219-9.675-1.864-14.568c0.623-2.25,1.663-4.366,2.857-6.363   c1.196-2,2.848-3.697,4.012-5.701c0.721-1.24,0.643-3.037-0.684-3.817c-0.344-0.203-0.737-0.244-1.099-0.163   c0.892-2.73-0.706-6.461-4.035-5.857c-0.126,0.023-0.092,0.216,0.029,0.217c1.548,0.021,2.781,1.039,3.342,2.433   c0.533,1.326-0.034,2.918-0.717,4.065c-1.524,2.56-4.798,3.556-7.382,4.624c-2.232,0.922-4.192,2.106-5.755,3.972   c-0.687,0.82-1.23,1.748-1.66,2.724c-0.262,0.593-0.481,1.197-0.775,1.777c-0.133,0.266-0.311,0.5-0.533,0.701   c-0.953,0.995-2.876-0.73-1.461-1.338c0.07-0.03,0.031-0.138-0.037-0.137c-0.04,0-0.078,0.013-0.117,0.018   c0.262-0.19,0.484-0.377,0.64-0.53c0.031-0.031-0.01-0.085-0.047-0.061c-0.56,0.367-2.878,1.556-3.465,0.712   c0.461-0.182,0.9-0.428,1.274-0.746c2.09-0.948,3.771-2.816,4.947-4.723c1.691-2.741,2.22-6.226,1.616-9.378   c1.994-1.013,4.288-0.476,5.823,1.135c0.053,0.056,0.138-0.015,0.104-0.08c-1.086-2.041-3.188-2.804-5.229-2.314   c0.922-1.884,1.537-3.933,2.508-5.803c1.143-2.202,2.586-4.238,4.217-6.103c3.06-3.499,7.001-6.26,11.275-8.078   c-0.216,1.201-3.021,1.926-3.878,2.382c-1.206,0.641-2.305,1.467-3.327,2.368c-1.343,1.185-4.254,3.937-2.365,5.787   c0.255,0.249,0.687-0.072,0.497-0.383c-1.001-1.64,0.761-3.221,1.837-4.306c1.103-1.113,2.391-2.024,3.751-2.794   c0.742-0.42,2.2-0.809,3.216-1.461c-0.318,1.401-0.014,2.969,0.435,4.395c-1.918-0.401-4.302,0.757-5.884,1.667   c-0.056,0.032-0.017,0.132,0.045,0.107c0.907-0.374,1.854-0.635,2.819-0.812c1.059-0.194,2.2-0.063,3.234-0.324   c0.128,0.367,0.261,0.722,0.391,1.056c0.726,1.874,1.657,3.497,2.798,5.029c-0.288-0.214-0.581-0.421-0.88-0.618   c-0.004-0.213-0.136-0.411-0.412-0.396c-0.083,0.004-0.164,0-0.246-0.003c-0.079-0.046-0.155-0.098-0.235-0.143   c-0.565-0.313-1.184-0.597-1.837-0.841c-0.588-0.713-0.684-1.702,0.253-2.607c0.324-0.313-0.006-0.966-0.461-0.791   c-1.448,0.557-2.779,1.425-3.866,2.519c-1.671-0.105-3.328,0.125-4.726,0.86c-0.118,0.062-0.071,0.282,0.072,0.264   c1.354-0.171,2.64-0.353,3.957-0.356c-1.17,1.439-1.936,3.186-2.06,5.102c-0.022,0.346,0.509,0.405,0.595,0.081   c0.46-1.734,1.243-3.345,2.343-4.679c-0.453,1.016-0.659,2.151-0.583,3.184c0.004,0.058,0.095,0.078,0.107,0.014   c0.214-1.149,0.626-2.189,1.221-3.193c0.483-0.816,1.166-1.466,1.849-2.114c-0.293,1.43,0.623,2.881,2.036,3.401   c-1.74,0.323-3.677,2.094-3.957,3.643c-0.02,0.11,0.096,0.176,0.182,0.106c0.755-0.622,1.339-1.409,2.129-2   c0.559-0.418,1.209-0.673,1.821-0.987c-0.677,1.22-0.802,2.711-0.198,3.897c-0.85-0.201-1.796-0.142-2.473,0.241   c-0.058,0.033-0.051,0.136,0.019,0.149c0.67,0.127,1.359,0.095,2.034,0.207c0.35,0.058,0.683,0.148,1.018,0.23   c0.054,0.055,0.107,0.111,0.166,0.163c-1.74-0.048-3.263,0.278-4.662,1.31c0.212-1.404-0.926-2.896-2.389-2.999   c-0.075-0.005-0.104,0.107-0.038,0.141c0.603,0.315,1.112,0.752,1.471,1.334c0.413,0.67,0.345,1.393,0.238,2.121   c-0.003,0.002-0.005,0.004-0.007,0.006c-0.05,0.047-0.044,0.109-0.016,0.159c-0.022,0.18,0.202,0.378,0.35,0.198   c0.218-0.263,0.461-0.469,0.717-0.656c1.595-0.836,3.549-1.37,5.27-1.016c0.253,0.052,0.48-0.259,0.266-0.457   c-1.641-1.521-2.199-3.867-0.408-5.45c0.063,0.039,0.129,0.073,0.191,0.113c3.255,2.108,5.425,5.634,6.477,9.303   c1.268,4.425,0.792,8.937-0.398,13.314c-0.921,3.391-1.718,7.222,0.801,10.126c0.063,0.072,0.132,0.105,0.201,0.123   c0.214,0.792,0.46,1.562,0.519,2.421c0.068,0.989-0.163,1.941-0.267,2.913C68.022,57.01,67.998,57.016,67.971,57.019z    M76.425,50.188c0.018,0.012,0.035,0.024,0.052,0.037c-0.159,0.178-0.305,0.362-0.433,0.554c-1.334,1.675-1.256,4.23-0.001,5.999   c-0.546-0.148-1.111-0.243-1.657-0.376c-1.171-0.284-2.35-0.531-3.519-0.819c-0.053-0.013-0.087,0.062-0.037,0.089   c1.494,0.823,3.367,1.808,5.163,1.981c-1.572,1.175-2.1,3.247-1.244,5.015c-1.127-0.607-2.22-1.255-3.236-2.054   c-1.204-0.948-2.225-2.105-3.23-3.257c0.001-0.001,0.002-0.001,0.003-0.002c1.211-1.759,1.093-5.239-0.37-6.848   c1.147-1.249,2.267-2.283,3.833-3.04c1.419-0.686,2.994-1.048,4.547-1.374c-0.416,0.454-0.71,1.012-0.759,1.644   c-0.042,0.546,0.031,1.212,0.288,1.747c-0.733-0.04-1.545,0.167-2.201,0.304c-1.176,0.245-2.281,0.681-3.186,1.475   c-0.039,0.034,0.003,0.09,0.047,0.081c1.124-0.24,2.205-0.623,3.332-0.854C74.646,50.319,75.618,50.445,76.425,50.188z"/><path d="M63.931,66.718c-1.996-1.747-4.114-3.373-5.721-5.509c-1.666-2.214-2.423-4.987-2.621-7.715   c-0.409-5.655,1.988-11.075,4.293-16.091c1.518-3.304,3.325-8.859-1.24-10.697c-0.097-0.039-0.153,0.113-0.069,0.163   c5.012,3.016,0.291,10.189-1.235,13.865c-1.846,4.447-3.19,9.122-2.622,13.978c0.548,4.68,3.148,8.02,6.714,10.903   c3.602,2.913,8.797,7.434,6.697,12.668c-0.059,0.147,0.19,0.251,0.255,0.108C70.517,73.713,67.313,69.678,63.931,66.718z"/><path d="M61.711,61.769c0.605-0.157,1.58-0.598,1.715-1.281c0.018-0.092-0.025-0.193-0.123-0.217   c-0.68-0.164-1.48,0.513-1.88,1.004C61.243,61.495,61.405,61.848,61.711,61.769z"/><path d="M64.537,65.271c-0.215,0.113-0.423,0.246-0.559,0.45c-0.099,0.148,0.003,0.344,0.16,0.392   c0.239,0.074,0.505,0.027,0.745-0.022c0.148-0.03,0.25-0.108,0.363-0.201c0.052-0.053,0.088-0.115,0.108-0.186   c0.017-0.135,0.02-0.149,0.008-0.044c0.06-0.116,0.043-0.303-0.095-0.363c-0.114-0.049-0.181-0.126-0.319-0.126   C64.797,65.171,64.672,65.2,64.537,65.271z"/><path d="M61.806,26.229c0.51,0.169,1.115-0.231,1.577-0.434c0.614-0.27,1.228-0.439,1.487-1.09c0.028-0.071-0.03-0.156-0.099-0.174   c-0.628-0.164-1.054,0.172-1.597,0.478c-0.468,0.265-1.254,0.561-1.43,1.113C61.73,26.168,61.762,26.214,61.806,26.229z"/><path d="M63.612,30.372c0.977,0.222,2.103-0.001,3.02-0.356c0.133-0.051,0.169-0.273,0-0.307c-0.953-0.193-2.102-0.24-3.02,0.139   C63.386,29.941,63.322,30.306,63.612,30.372z"/><path d="M66.068,36.313c-0.291-0.467-0.623-0.61-1.159-0.749c-0.507-0.132-1.048-0.141-1.548,0.017   c-0.321,0.101-0.244,0.541,0.077,0.566c0.428,0.034,0.849,0.056,1.269,0.152c0.225,0.051,0.439,0.139,0.651,0.228   c0.189,0.079,0.36,0.04,0.556,0.056C66.05,36.593,66.136,36.422,66.068,36.313z"/><path d="M61.056,43.331c-0.041,0.056-0.029,0.12,0.005,0.171c-0.002,0-0.003,0.001-0.005,0.001c0.167,0.38,0.678,0.406,1.04,0.5   c0.599,0.156,1.146,0.423,1.727,0.623c0.486,0.168,0.732-0.536,0.335-0.795c-0.536-0.349-1.207-0.546-1.83-0.673   C61.903,43.072,61.344,42.933,61.056,43.331z"/><path d="M64.102,51.306c-0.534-0.447-1.365-0.453-2.04-0.507c-0.68-0.055-1.749-0.298-2.29,0.214   c-0.009,0.009-0.013,0.027-0.005,0.038c0.357,0.473,1.088,0.502,1.647,0.555c0.815,0.077,1.921,0.344,2.661-0.085   C64.145,51.478,64.17,51.363,64.102,51.306z"/><path d="M62.804,56.418c0.088-0.069,0.046-0.207-0.033-0.259c-0.344-0.225-0.558-0.245-0.975-0.221   c-0.45,0.026-0.89,0.052-1.324,0.182c-0.258,0.077-0.29,0.493,0,0.553c0.442,0.091,0.875,0.085,1.324,0.071   C62.237,56.73,62.461,56.686,62.804,56.418z"/><path d="M30.044,16.15c0.095-2.835-3.121-4.829-5.614-3.541c-1.688,0.872-2.46,2.816-1.996,4.4   c0.196,1.086,0.871,2.106,1.972,2.704C26.974,21.107,29.955,18.812,30.044,16.15z M23.376,17.747   c-0.61-1.489-0.362-3.196,1.199-4.183c2.059-1.302,4.367,0.385,4.527,2.584c0.153,2.101-2.201,3.358-4.005,2.854   C24.309,18.781,23.742,18.324,23.376,17.747z"/><path d="M25.845,32.498c-1.159,0.599-1.689,1.933-1.37,3.021c0.134,0.746,0.598,1.446,1.354,1.856   c1.763,0.957,3.809-0.618,3.87-2.446C29.764,32.982,27.556,31.613,25.845,32.498z M26.357,36.743   c-0.501-0.14-0.861-0.431-1.094-0.798c-0.388-0.947-0.23-2.033,0.762-2.66c1.309-0.828,2.777,0.245,2.879,1.643   C29.001,36.265,27.504,37.064,26.357,36.743z"/><path d="M35.088,25.742c0.078-2.318-2.552-3.949-4.59-2.895c-1.38,0.713-2.011,2.303-1.632,3.598   c0.16,0.888,0.712,1.722,1.613,2.211C32.578,29.795,35.015,27.919,35.088,25.742z M31.043,28.074   c-0.644-0.18-1.108-0.554-1.407-1.026c-0.499-1.217-0.296-2.614,0.98-3.42c1.683-1.064,3.571,0.315,3.702,2.113   C34.443,27.459,32.518,28.487,31.043,28.074z"/></g><text x="0" y="115" fill="#000000" font-size="5px" font-weight="bold" font-family="'Helvetica Neue', Helvetica, Arial-Unicode, Arial, Sans-serif">Created by Alena Artemova</text><text x="0" y="120" fill="#000000" font-size="5px" font-weight="bold" font-family="'Helvetica Neue', Helvetica, Arial-Unicode, Arial, Sans-serif">from the Noun Project</text></svg>