<svg width="133" height="135" viewBox="0 0 133 135" fill="none" xmlns="http://www.w3.org/2000/svg">
<g clip-path="url(#clip0)">
<path d="M110.426 83.6423L110.066 84.1977L110.436 84.7463L130.045 113.773L108.428 109.682L107.44 109.495L107.259 110.484L103.231 132.412L84.8415 105.19L84.4091 104.55L83.6806 104.807C78.2947 106.704 72.5145 107.738 66.498 107.738C60.4825 107.738 54.7023 106.704 49.3153 104.807L48.5868 104.55L48.1544 105.19L29.766 132.412L25.7374 110.484L25.5557 109.495L24.5679 109.682L2.95126 113.773L22.5597 84.7463L22.9302 84.1977L22.57 83.6424C17.1154 75.2322 13.9345 65.1732 13.9345 54.3689C13.9345 24.9278 37.5291 1 66.498 1C95.4668 1 119.062 24.9278 119.062 54.3689C119.062 65.1732 115.882 75.2322 110.426 83.6423ZM32.4775 114.839L32.9196 117.246L34.2897 115.218L42.4865 103.086L43.1078 102.166L42.1287 101.644C36.6105 98.6988 31.6656 94.7888 27.5167 90.1317L26.6613 89.1714L25.9414 90.2371L17.1175 103.3L15.7741 105.289L18.1322 104.842L30.2208 102.554L32.4775 114.839ZM100.518 114.839L102.775 102.553L114.865 104.841L117.223 105.288L115.879 103.299L107.056 90.2371L106.336 89.1714L105.48 90.1317C101.331 94.7888 96.3864 98.6988 90.8682 101.644L89.8893 102.166L90.5104 103.086L98.7062 115.218L100.076 117.246L100.518 114.839ZM66.498 6.9565C40.7192 6.9565 19.7731 28.2392 19.7731 54.3689C19.7731 80.4997 40.7192 101.782 66.498 101.782C92.2778 101.782 113.224 80.4997 113.224 54.3689C113.224 28.2391 92.2778 6.9565 66.498 6.9565Z" fill="white" stroke="#28C3D4" stroke-width="2"/>
<path d="M56.2372 67.0112L56.9496 67.7342L57.6619 67.0112L88.7922 35.4149L92.9307 39.6157L56.9496 76.1369L40.0663 58.9997L44.2048 54.7989L56.2372 67.0112Z" fill="white" stroke="#28C3D4" stroke-width="2"/>
</g>
<defs>
<clipPath id="clip0">
<rect width="133" height="135" fill="white"/>
</clipPath>
</defs>
</svg>
