<svg width="135" height="135" viewBox="0 0 135 135" fill="none" xmlns="http://www.w3.org/2000/svg">
<path d="M22.4911 100.054V99.0572L21.4946 99.0537C12.4789 99.0216 5.15283 91.6765 5.15283 82.6536V26.4969C5.15283 17.4536 12.5109 10.0969 21.5529 10.0969H113.315C122.357 10.0969 129.715 17.4536 129.715 26.4969V82.6536C129.715 91.6955 122.357 99.0537 113.315 99.0537H58.1134H57.7997L57.5422 99.2328L22.4911 123.623V100.054ZM21.5529 93.6379H27.9068V111.343V113.257L29.478 112.163L56.1004 93.6379H113.315C119.373 93.6379 124.3 88.7105 124.3 82.6536V26.4969C124.3 20.4384 119.373 15.5127 113.315 15.5127H21.5529C15.4952 15.5127 10.5686 20.4384 10.5686 26.4969V82.6536C10.5686 88.7105 15.4951 93.6379 21.5529 93.6379Z" fill="#FFFDFD" stroke="#28C3D4" stroke-width="2"/>
<path d="M39.0266 36.3H95.8414V41.7158H39.0266V36.3Z" fill="#FFFDFD" stroke="#28C3D4" stroke-width="2"/>
<path d="M39.0266 52.1205H95.8414V57.5363H39.0266V52.1205Z" fill="#FFFDFD" stroke="#28C3D4" stroke-width="2"/>
<path d="M39.0266 67.9408H95.8414V73.3566H39.0266V67.9408Z" fill="#FFFDFD" stroke="#28C3D4" stroke-width="2"/>
</svg>
